<mxfile host="app.diagrams.net" modified="2023-09-12T06:26:56.819Z" agent="Mozilla/5.0 (X11; Ubuntu; Linux x86_64; rv:109.0) Gecko/20100101 Firefox/115.0" etag="iCS8QwJEr53-QK8lxp3p" version="21.7.4" type="github">
  <diagram name="Page-1" id="knEj3GXMlwgibw09zNI5">
    <mxGraphModel dx="808" dy="483" grid="1" gridSize="10" guides="1" tooltips="1" connect="1" arrows="1" fold="1" page="1" pageScale="1" pageWidth="827" pageHeight="1169" math="0" shadow="0">
      <root>
        <mxCell id="0" />
        <mxCell id="1" parent="0" />
        <mxCell id="KyfbS7ZkWyv1i_ft2Jjp-1" value="data:application/pdf;base64,JVBERi0xLjcKJYGBgYEKCjkgMCBvYmoKPDwKL1R5cGUgL1BhdHRlcm4KL1BhdHRlcm5UeXBlIDEKL1BhaW50VHlwZSAxCi9UaWxpbmdUeXBlIDEKL0JCb3ggWyAwIDAgODQyIDU5OSBdCi9YU3RlcCA4NDIKL1lTdGVwIDU5OQovUmVzb3VyY2VzIDw8Ci9Qcm9jU2V0IFsgL1BERiAvVGV4dCAvSW1hZ2VCIC9JbWFnZUMgL0ltYWdlSSBdCi9FeHRHU3RhdGUgPDwKL0czIDQgMCBSCj4+Ci9YT2JqZWN0IDw8Ci9YNCAxMCAwIFIKPj4KPj4KL01hdHJpeCBbIDEuMDAwMDAwMTIgMCAwIC0xIDAgNTk5IF0KL0xlbmd0aCA1OAo+PgpzdHJlYW0KcQo4NDIgMCAwIC01OTkgMCA1OTkgY20KMCAwIDAgUkcgMCAwIDAgcmcKL0czIGdzCi9YNCBEbwpRCgplbmRzdHJlYW0KZW5kb2JqCgoxMCAwIG9iago8PAovVHlwZSAvWE9iamVjdAovU3VidHlwZSAvSW1hZ2UKL1dpZHRoIDg0MgovSGVpZ2h0IDU5OQovQ29sb3JTcGFjZSAvRGV2aWNlUkdCCi9TTWFzayAxMSAwIFIKL0JpdHNQZXJDb21wb25lbnQgOAovRmlsdGVyIC9GbGF0ZURlY29kZQovTGVuZ3RoIDIwNTY2Cj4+CnN0cmVhbQp4nO3d0W7jutZ12/P+z6baUWDkQwJf8kUOsQga9U8qhaQqtkcfQ/NiYYObbun0VcqRpX3/f+bt7a21ti/z8vLy69ev/t/1/+r7+6vW9WexoNQoFpRqz4JSc1hQahQLSvVmx2ZEqix7uVxeX1///Nrb9J19/1d2Pp0FpbqyoFRjFpR6sncyT/ZbLCjVmwWlKrBl5f39/fBXvv/973/9N8n+3/X/6vv7q/78gx7JglKjWFCqPQtKzWFBqVEsKNWbHZsRqVLs/zen/Tdlsc+vOb8v3n5Wn3X9WSwo1Zsto5yaw4JS01hQahQLSvVm2xz9VE3W4AigVG+2jHJqDgtKTWNBqVEsKNWbbXP0UzVZgyOAUr3ZMsqpOSwoNY0FpUaxoFRvts3RT9Vhx59of5918f/+7//6D+r//X1x/PG3LTPWn8WCUr3Zw9FMzWFBqWksKDWQBaW6soejmSrCXi6XdfP4Om2Z19fXL+58OgtK9WbvYbLeAUEWlJrGglLTWFCqMXsPk/UOfItdv4p7vV4Pv6mxbdu62Hf2/ev6c1lQqjcLSs1hQalpLCg1igWlerOgVAW2rHx8fLT/Picst9E7/H7u2NP391etP+5ZLCg1igWlGrOg1DQWlBrFglK92bEZkarD7vxLB/fz4mQ9toxyag4LSk1jQalRLCjVm21z9FM1WYMjgFK92TLKqTksKDWNBaVGsaBUb7bN0U/VZA2OAEr1Zssop+awoNQ0FpQaxYJSvdk2Rz9VkzU4AijVmy2jnJrDglLTWFBqFAtK9WbbHP1UHXZcvzdm3F+lLH4245K/Nu/NUtalWFCqDVtGOTWHBaWeLCvVlQWlerNjMyJVhy3C6+vrtm2H8rrYd/b96/pzWVCqNwtKzWFBqWksKDWKBaV6s6BUBdbjF9Tzn8CCbBnl1BwWlHqyrFRXFpTqzZ6f3f0Fu/P/uLyfl6/osWWUU3NYUGoaC0qNYkGp3mybo5+qyRocAZTqzZZRTs1hQalpLCg1igWlerNtjn6qJmtwBFCqN1tGOTWHBaWmsaDUKBaU6s22OfqpmqzBEUCp3mwZ5dQcFpSaxoJSo1hQqjfb5uinSrG3eX9/H4s/+9SzR7Kg1CgWlGrMglLTWFBqFAtK9Wa/+JxZhVQRdnxt9vd5e3sr5pht29bFvvN6va7rz2VBqd4sKDWHBaWmsaDUKBaU6s2CUhXYy+XSlukvXxf7y9fFLqyLfZ7LglK92XuYrHdAkAWlprGg1DQWlGrM3sNkvQPfYvf5IV5ZHJ+C3mbcX2XcROU2/YX7/Cvwuv4sFpTqzR6OZmoOC0pNY0GpgSwo1ZU9HM1UHXa3uHSQmOrNllFOzWFBqWksKDWKBaV6s22Ofqoma3AEUKo3W0Y5NYcFpaaxoNQoFpTqzbY5+qmarMERQKnebBnl1BwWlJrGglKjWFCqN9vm6KdqsgZHAKV6s2WUU3NYUGoaC0qNYkGp3mybo58qxd7mdveVMod3X7n9rHFR3x/mkSwoNYoFpdqzoNQcFpQaxYJSvdmxGZEqy14ul/XeKZ9N39n3f2Xn01lQqisLSjVmQakneyfzZL/FglK9WVCqAltWDH5BBaVGsaBUexaUmsOCUqNYUKo3e35293eswR+XianebBnl1BwWlJrGglKjWFCqN9vm6KdqsgZHAKV6s2WUU3NYUGoaC0qNYkGp3mybo5+qyRocAZTqzZZRTs1hQalpLCg1igWlerNtjn6qDnv4AIuy+FPPxXgAC0r1Zg9HMzWHBaWmsaDUQBaU6soejmaqCHv48NnDJ9X++zNtH8aCUr3Ze5isd0CQBaWmsaDUNBaUaszew2S9A99i16/iXq/Xw29qbNu2Lvadff+6/lwWlOrNglJzWFBqGgtKjWJBqd4sKFWBLSsfHx/tv88JX15eivlr+X7u2NP391etP+5ZLCg1igWlGrOg1DQWlBrFglK92bEZkarD7vxLB/fz4mQ9toxyag4LSk1jQalRLCjVm21z9FM1WYMjgFK92TLKqTksKDWNBaVGsaBUb7bN0U/VZA2OAEr1Zssop+awoNQ0FpQaxYJSvdk2Rz9VkzU4AijVmy2jnJrDglLTWFBqFAtK9WbbHP1UHXZcvzdm3F+lLH4245K/Nu/NUtalWFCqDVtGOTWHBaWeLCvVlQWlerNjMyJVhy3C6+vrtm2H8rrYd/b96/pzWVCqNwtKzWFBqWksKDWKBaV6s6BUBdbjF9Tzn8CCbBnl1BwWlHqyrFRXFpTqzZ6f3f0Fu/P/uLyfl6/osWWUU3NYUGoaC0qNYkGp3mybo5+qyRocAZTqzZZRTs1hQalpLCg1igWlerNtjn6qJmtwBFCqN1tGOTWHBaWmsaDUKBaU6s22OfqpmqzBEUCp3mwZ5dQcFpSaxoJSo1hQqjfb5uinSrG3eX9/H4s/+9SzR7Kg1CgWlGrMglLTWFBqFAtK9Wa/+JxZhVQRdnxt9vd5e3sr5pht29bFvvN6va7rz2VBqd4sKDWHBaWmsaDUKBaU6s2CUhXYy+XSlukvXxf7y9fFLqyLfZ7LglK92XuYrHdAkAWlprGg1DQWlGrM3sNkvQPfYvf5IV5ZHJ+C3mbcX2XcROU2/YX7/Cvwuv4sFpTqzR6OZmoOC0pNY0GpgSwo1ZU9HM1UHXa3uHSQmOrNllFOzWFBqWksKDWKBaV6s22Ofqoma3AEUKo3W0Y5NYcFpaaxoNQoFpTqzbY5+qmarMERQKnebBnl1BwWlJrGglKjWFCqN9vm6KdKsbe5fT+3zOH3c28/a/zZ9w/zSBaUGsWCUu1ZUGoOC0qNYkGp3uzYjEiVZS+Xy/rt2s+m7+z7v7Lz6Swo1ZUFpRqzoNSTvZN5st9iQaneLChVgS0rBr+gglKjWFCqPQtKzWFBqVEsKNWbPT+7+zvW4I/LxFRvtoxyag4LSk1jQalRLCjVm21z9FM1WYMjgFK92TLKqTksKDWNBaVGsaBUb7bN0U/VZA2OAEr1Zssop+awoNQ0FpQaxYJSvdk2Rz9Vhz28xXFZ/Kk7Jz+ABaV6s4ejmZrDglLTWFBqIAtKdWUPRzNVhD18PNnhs8z+/alnD2NBqd7sPUzWOyDIglLTWFBqGgtKNWbvYbLegW+x61dxr9fr4Tc1tm1bF/vOvn9dfy4LSvVmQak5LCg1jQWlRrGgVG8WlKrAlpXxKNv+P15eXor5a/l+7tjT9/dXrT/uWSwoNYoFpRqzoNQ0FpQaxYJSvdmxGZGqw+78Swf38+JkPbaMcmoOC0pNY0GpUSwo1Zttc/RTNVmDI4BSvdkyyqk5LCg1jQWlRrGgVG+2zdFP1WQNjgBK9WbLKKfmsKDUNBaUGsWCUr3ZNkc/VZM1OAIo1Zsto5yaw4JS01hQahQLSvVm2xz9VB12XL83ZtxfpSx+NuOSvzbvzVLWpVhQqg1bRjk1hwWlniwr1ZUFpXqzYzMiVYctwuvr67Zth/K62Hf2/ev6c1lQqjcLSs1hQalpLCg1igWlerOgVAXW4xfU85/AgmwZ5dQcFpR6sqxUVxaU6s2en939Bbvz/7i8n5ev6LFllFNzWFBqGgtKjWJBqd5sm6OfqskaHAGU6s2WUU7NYUGpaSwoNYoFpXqzbY5+qiZrcARQqjdbRjk1hwWlprGg1CgWlOrNtjn6qZqswRFAqd5sGeXUHBaUmsaCUqNYUKo32+bop0qxt3l/fx+LP/vUs0eyoNQoFpRqzIJS01hQahQLSvVmv/icWYVUEXZ8bfb3eXt7K+aYbdvWxb7zer2u689lQaneLCg1hwWlprGg1CgWlOrNglIV2Mvl0pbpL18X+8vXxS6si32ey4JSvdl7mKx3QJAFpaaxoNQ0FpRqzN7DZL0D32L3+SFeWRyfgt5m3F9l3ETlNv2F+/wr8Lr+LBaU6s0ejmZqDgtKTWNBqYEsKNWVPRzNVB12t7h0kJjqzZZRTs1hQalpLCg1igWlerNtjn6qJmtwBFCqN1tGOTWHBaWmsaDUKBaU6s22OfqpmqzBEUCp3mwZ5dQcFpSaxoJSo1hQqjfb5uinarIGRwClerNllFNzWFBqGgtKjWJBqd5sm6OfKsXe5nb3lTKHd1+5/axxUd8f5pEsKDWKBaXas6DUHBaUGsWCUr3ZsRmRKsteLpf13imfTd/Z939l59NZUKorC0o1ZkGpJ3sn82S/xYJSvVlQqgJbVgx+QQWlRrGgVHsWlJrDglKjWFCqN3t+dvd3rMEfl4mp3mwZ5dQcFpSaxoJSo1hQqjfb5uinarIGRwClerNllFNzWFBqGgtKjWJBqd5sm6OfqskaHAGU6s2WUU7NYUGpaSwoNYoFpXqzbY5+qg57+ACLsvhTz8V4AAtK9WYPRzM1hwWlprGg1EAWlOrKHo5mqgh7+PDZwyfV/vszbR/GglK92XuYrHdAkAWlprGg1DQWlGrM3sNkvQPfYtev4l6v18Nvamzbti72nX3/uv5cFpTqzYJSc1hQahoLSo1iQaneLChVgS0rHx8f7b/PCV9eXor5a/l+7tjT9/dXrT/uWSwoNYoFpRqzoNQ0FpQaxYJSvdmxGZGqw+78Swf38+JkPbaMcmoOC0pNY0GpUSwo1Zttc/RTNVmDI4BSvdkyyqk5LCg1jQWlRrGgVG+2zdFP1WQNjgBK9WbLKKfmsKDUNBaUGsWCUr3ZNkc/VZM1OAIo1Zsto5yaw4JS01hQahQLSvVm2xz9VB12XL83ZtxfpSx+NuOSvzbvzVLWpVhQqg1bRjk1hwWlniwr1ZUFpXqzYzMiVYctwuvr67Zth/K62Hf2/ev6c1lQqjcLSs1hQalpLCg1igWlerOgVAXW4xfU85/AgmwZ5dQcFpR6sqxUVxaU6s2en939Bbvz/7i8n5ev6LFllFNzWFBqGgtKjWJBqd5sm6OfqskaHAGU6s2WUU7NYUGpaSwoNYoFpXqzbY5+qiZrcARQqjdbRjk1hwWlprGg1CgWlOrNtjn6qZqswRFAqd5sGeXUHBaUmsaCUqNYUKo32+bop0qxt3l/fx+LP/vUs0eyoNQoFpRqzIJS01hQahQLSvVmv/icWYVUEXZ8bfb3eXt7K+aYbdvWxb7zer2u689lQaneLCg1hwWlprGg1CgWlOrNglIV2Mvl0pbpL18X+8vXxS6si32ey4JSvdl7mKx3QJAFpaaxoNQ0FpRqzN7DZL0D32L3+SFeWRyfgt5m3F9l3ETlNv2F+/wr8Lr+LBaU6s0ejmZqDgtKTWNBqYEsKNWVPRzNVB12t7h0kJjqzZZRTs1hQalpLCg1igWlerNtjn6qJmtwBFCqN1tGOTWHBaWmsaDUKBaU6s22OfqpmqzBEUCp3mwZ5dQcFpSaxoJSo1hQqjfb5uinarIGRwClerNllFNzWFBqGgtKjWJBqd5sm6OfKsXe5nb3lTKHd1+5/axxUd8f5pEsKDWKBaXas6DUHBaUGsWCUr3ZsRmRKsteLpf13imfTd/Z939l59NZUKorC0o1ZkGpJ3sn82S/xYJSvVlQqgJbVgx+QQWlRrGgVHsWlJrDglKjWFCqN3t+dvd3rMEfl4mp3mwZ5dQcFpSaxoJSo1hQqjfb5uinarIGRwClerNllFNzWFBqGgtKjWJBqd5sm6OfqskaHAGU6s2WUU7NYUGpaSwoNYoFpXqzbY5+qg57+ACLsvhTz8V4AAtK9WYPRzM1hwWlprGg1EAWlOrKHo5mqgh7+PDZwyfV/vszbR/GglK92XuYrHdAkAWlprGg1DQWlGrM3sNkvQPfYtev4l6v18Nvamzbti72nX3/uv5cFpTqzYJSc1hQahoLSo1iQaneLChVgS0rHx8f7b/PCV9eXor5a/l+7tjT9/dXrT/uWSwoNYoFpRqzoNQ0FpQaxYJSvdmxGZGqw+78Swf38+JkPbaMcmoOC0pNY0GpUSwo1Zttc/RTNVmDI4BSvdkyyqk5LCg1jQWlRrGgVG+2zdFP1WQNjgBK9WbLKKfmsKDUNBaUGsWCUr3ZNkc/VZM1OAIo1Zsto5yaw4JS01hQahQLSvVm2xz9VB12XL83ZtxfpSx+NuOSvzbvzVLWpVhQqg1bRjk1hwWlniwr1ZUFpXqzYzMiVYctwuvr67Zth/K62Hf2/ev6c1lQqjcLSs1hQalpLCg1igWlerOgVAXW4xfU85/AgmwZ5dQcFpR6sqxUVxaU6s2en939Bbvz/7i8n5ev6LFllFNzWFBqGgtKjWJBqd5sm6OfqskaHAGU6s2WUU7NYUGpaSwoNYoFpXqzbY5+qiZrcARQqjdbRjk1hwWlprGg1CgWlOrNtjn6qZqswRFAqd5sGeXUHBaUmsaCUqNYUKo32+bop0qxt3l/fx+LP/vUs0eyoNQoFpRqzIJS01hQahQLSvVmv/icWYVUEXZ8bfb3eXt7K+aYbdvWxb7zer2u689lQaneLCg1hwWlprGg1CgWlOrNglIV2Mvl0pbpL18X+8vXxS6si32ey4JSvdl7mKx3QJAFpaaxoNQ0FpRqzN7DZL0D32L3+SFeWRyfgt5m3F9l3ETlNv2F+/wr8Lr+LBaU6s0ejmZqDgtKTWNBqYEsKNWVPRzNVB12t7h0kJjqzZZRTs1hQalpLCg1igWlerNtjn6qJmtwBFCqN1tGOTWHBaWmsaDUKBaU6s22OfqpmqzBEUCp3mwZ5dQcFpSaxoJSo1hQqjfb5uinarIGRwClerNllFNzWFBqGgtKjWJBqd5sm6OfKsXe5nb3lTKHd1+5/axxUd8f5pEsKDWKBaXas6DUHBaUGsWCUr3ZsRmRKsteLpf13imfTd/Z939l59NZUKorC0o1ZkGpJ3sn82S/xYJSvVlQqgJbVgx+QQWlRrGgVHsWlJrDglKjWFCqN3t+dvd3rMEfl4mp3mwZ5dQcFpSaxoJSo1hQqjfb5uinarIGRwClerNllFNzWFBqGgtKjWJBqd5sm6OfqskaHAGU6s2WUU7NYUGpaSwoNYoFpXqzbY5+qg57+ACLsvhTz8V4AAtK9WYPRzM1hwWlprGg1EAWlOrKHo5mqgh7+PDZwyfV/vszbR/GglK92XuYrHdAkAWlprGg1DQWlGrM3sNkvQPfYtev4l6v18Nvamzbti72nX3/uv5cFpTqzYJSc1hQahoLSo1iQaneLChVgS0rHx8f7b/PCV9eXor5a/l+7tjT9/dXrT/uWSwoNYoFpRqzoNQ0FpQaxYJSvdmxGZGqw+78Swf38+JkPbaMcmoOC0pNY0GpUSwo1Zttc/RTNVmDI4BSvdkyyqk5LCg1jQWlRrGgVG+2zdFP1WQNjgBK9WbLKKfmsKDUNBaUGsWCUr3ZNkc/VZM1OAIo1Zsto5yaw4JS01hQahQLSvVm2xz9VB12XL83ZtxfpSx+NuOSvzbvzVLWpVhQqg1bRjk1hwWlniwr1ZUFpXqzYzMiVYctwuvr67Zth/K62Hf2/ev6c1lQqjcLSs1hQalpLCg1igWlerOgVAXW4xfU85/AgmwZ5dQcFpR6sqxUVxaU6s2en939Bbvz/7i8n5ev6LFllFNzWFBqGgtKjWJBqd5sm6OfqskaHAGU6s2WUU7NYUGpaSwoNYoFpXqzbY5+qiZrcARQqjdbRjk1hwWlprGg1CgWlOrNtjn6qZqswRFAqd5sGeXUHBaUmsaCUqNYUKo32+bop0qxt3l/fx+LP/vUs0eyoNQoFpRqzIJS01hQahQLSvVmv/icWYVUEXZ8bfb3eXt7K+aYbdvWxb7zer2u689lQaneLCg1hwWlprGg1CgWlOrNglIV2Mvl0pbpL18X+8vXxS6si32ey4JSvdl7mKx3QJAFpaaxoNQ0FpRqzN7DZL0D32L3+SFeWRyfgt5m3F9l3ETlNv2F+/wr8Lr+LBaU6s0ejmZqDgtKTWNBqYEsKNWVPRzNVB12t7h0kJjqzZZRTs1hQalpLCg1igWlerNtjn6qJmtwBFCqN1tGOTWHBaWmsaDUKBaU6s22OfqpmqzBEUCp3mwZ5dQcFpSaxoJSo1hQqjfb5uinarIGRwClerNllFNzWFBqGgtKjWJBqd5sm6OfKsXe5nb3lTKHd1+5/axxUd8f5pEsKDWKBaXas6DUHBaUGsWCUr3ZsRmRKsteLpf13imfTd/Z939l59NZUKorC0o1ZkGpJ3sn82S/xYJSvVlQqgJbVgx+QQWlRrGgVHsWlJrDglKjWFCqN3t+dvd3rMEfl4mp3mwZ5dQcFpSaxoJSo1hQqjfb5uinarIGRwClerNllFNzWFBqGgtKjWJBqd5sm6OfqskaHAGU6s2WUU7NYUGpaSwoNYoFpXqzbY5+qg57+ACLsvhTz8V4AAtK9WYPRzM1hwWlprGg1EAWlOrKHo5mqgh7+PDZwyfV/vszbR/GglK92XuYrHdAkAWlprGg1DQWlGrM3sNkvQPfYtev4l6v18Nvamzbti72nX3/uv5cFpTqzYJSc1hQahoLSo1iQaneLChVgS0rHx8f7b/PCV9eXor5a/l+7tjT9/dXrT/uWSwoNYoFpRqzoNQ0FpQaxYJSvdmxGZGqw+78Swf38+JkPbaMcmoOC0pNY0GpUSwo1Zttc/RTNVmDI4BSvdkyyqk5LCg1jQWlRrGgVG+2zdFP1WQNjgBK9WbLKKfmsKDUNBaUGsWCUr3ZNkc/VZM1OAIo1Zsto5yaw4JS01hQahQLSvVm2xz9VB12XL83ZtxfpSx+NuOSvzbvzVLWpVhQqg1bRjk1hwWlniwr1ZUFpXqzYzMiVYctwuvr67Zth/K62Hf2/ev6c1lQqjcLSs1hQalpLCg1igWlerOgVAXW4xfU85/AgmwZ5dQcFpR6sqxUVxaU6s2en939Bbvz/7i8n5ev6LFllFNzWFBqGgtKjWJBqd5sm6OfqskaHAGU6s2WUU7NYUGpaSwoNYoFpXqzbY5+qiZrcARQqjdbRjk1hwWlprGg1CgWlOrNtjn6qVLsbd7f38fizz4X45EsKDWKBaUas6DUNBaUGsWCUr3ZLz6JTCFVhF0fPvv29lbMMf/4TNtHsqBUbxaUmsOCUtNYUGoUC0r1ZkGpCuzlcmnL9Jevi/3l62IX1sU+z2VBqd7sPUzWOyDIglLTWFBqGgtKNWbvYbLegW+x+/wQryyOT0FvM76BO75me5v+wn3+FXhdfxYLSvVmD0czNYcFpaaxoNRAFpTqyh6OZqoOu1tcOkhM9WbLKKfmsKDUNBaUGsWCUr3ZNkc/VZM1OAIo1Zsto5yaw4JS01hQahQLSvVm2xz9VE3W4AigVG+2jHJqDgtKTWNBqVEsKNWbbXP0UzVZgyOAUr3ZMsqpOSwoNY0FpUaxoFRvts3RT5Vib3O7+0qZw7uv3H7WuKjvD/NIFpQaxYJS7VlQag4LSo1iQane7NiMSJVlL5fLeu+Uz6bv7Pu/svPpLCjVlQWlGrOg1JO9k3my32JBqd4sKFWBLSsGv6CCUqNYUKo9C0rNYUGpUSwo1Zs9P7v7O9bgj8vEVG+2jHJqDgtKTWNBqVEsKNWbbXP0UzVZgyOAUr3ZMsqpOSwoNY0FpUaxoFRvts3RT9VkDY4ASvVmyyin5rCg1DQWlBrFglK92TZHP1WHPXyARVn8qediPIAFpXqzh6OZmsOCUtNYUGogC0p1ZQ9HM1WEPXz47OGTav/9mbYPY0Gp3uw9TNY7IMiCUtNYUGoaC0o1Zu9hst6Bb7HrV3Gv1+vhNzW2bVsX+86+f11/LgtK9WZBqTksKDWNBaVGsaBUbxaUqsCWlY+Pj/bf54QvLy/F/LV8P3fs6fv7q9Yf9ywWlBrFglKNWVBqGgtKjWJBqd7s2IxI1WF3/qWD+3lxsh5bRjk1hwWlprGg1CgWlOrNtjn6qZqswRFAqd5sGeXUHBaUmsaCUqNYUKo32+bop2qyBkcApXqzZZRTc1hQahoLSo1iQanebJujn6rJGhwBlOrNllFOzWFBqWksKDWKBaV6s22OfqoOO67fGzPur1IWP5txyV+b92Yp61IsKNWGLaOcmsOCUk+WlerKglK92bEZkarDFuH19XXbtkN5Xew7+/51/bksKNWbBaXmsKDUNBaUGsWCUr1ZUKoC6/EL6vlPYEG2jHJqDgtKPVlWqisLSvVmz8/u/oLd+X9c3s/LV/TYMsqpOSwoNY0FpUaxoFRvts3RT9VkDY4ASvVmyyin5rCg1DQWlBrFglK92TZHP1WTNTgCKNWbLaOcmsOCUtNYUGoUC0r1Ztsc/VRN1uAIoFRvtoxyag4LSk1jQalRLCjVm21z9FOl2Nu8v7+PxZ996tkjWVBqFAtKNWZBqWksKDWKBaV6s198zqxCqgg7vjb7+7y9vRVzzLZt62Lfeb1e1/XnsqBUbxaUmsOCUtNYUGoUC0r1ZkGpCuzlcmnL9Jevi/3l62IX1sU+z2VBqd7sPUzWOyDIglLTWFBqGgtKNWbvYbLegW+x+/wQryyOT0FvM+6vMm6icpv+wn3+FXhdfxYLSvVmD0czNYcFpaaxoNRAFpTqyh6OZqoOu1tcOkhM9WbLKKfmsKDUNBaUGsWCUr3ZNkc/VZM1OAIo1Zsto5yaw4JS01hQahQLSvVm2xz9VE3W4AigVG+2jHJqDgtKTWNBqVEsKNWbbXP0UzVZgyOAUr3ZMsqpOSwoNY0FpUaxoFRvts3RT5Vib3O7+0qZw7uv3H7WuKjvD/NIFpQaxYJS7VlQag4LSo1iQane7NiMSJVlL5fLeu+Uz6bv7Pu/svPpLCjVlQWlGrOg1JO9k3my32JBqd4sKFWBLSsGv6CCUqNYUKo9C0rNYUGpUSwo1Zs9P7v7O9bgj8vEVG+2jHJqDgtKTWNBqVEsKNWbbXP0UzVZgyOAUr3ZMsqpOSwoNY0FpUaxoFRvts3RT9VkDY4ASvVmyyin5rCg1DQWlBrFglK92TZHP1WHPXyARVn8qediPIAFpXqzh6OZmsOCUtNYUGogC0p1ZQ9HM1WEPXz47OGTav/9mbYPY0Gp3uw9TNY7IMiCUtNYUGoaC0o1Zu9hst6Bb7HrV3Gv1+vhNzW2bVsX+86+f11/LgtK9WZBqTksKDWNBaVGsaBUbxaUqsCWlY+Pj/bf54QvLy/F/LV8P3fs6fv7q9Yf9ywWlBrFglKNWVBqGgtKjWJBqd7s2IxI1WF3/qWD+3lxsh5bRjk1hwWlprGg1CgWlOrNtjn6qZqswRFAqd5sGeXUHBaUmsaCUqNYUKo32+bop2qyBkcApXqzZZRTc1hQahoLSo1iQanebJujn6rJGhwBlOrNllFOzWFBqWksKDWKBaV6s22OfqoOO67fGzPur1IWP5txyV+b92Yp61IsKNWGLaOcmsOCUk+WlerKglK92bEZkarDFuH19XXbtkN5Xew7+/51/bksKNWbBaXmsKDUNBaUGsWCUr1ZUKoC6/EL6vlPYEG2jHJqDgtKPVlWqisLSvVmz8/u/oLd+X9c3s/LV/TYMsqpOSwoNY0FpUaxoFRvts3RT9VkDY4ASvVmyyin5rCg1DQWlBrFglK92TZHP1WTNTgCKNWbLaOcmsOCUtNYUGoUC0r1Ztsc/VRN1uAIoFRvtoxyag4LSk1jQalRLCjVm21z9FOl2Nu8v7+PxZ996tkjWVBqFAtKNWZBqWksKDWKBaV6s198zqxCqgg7vjb7+7y9vRVzzLZt62Lfeb1e1/XnsqBUbxaUmsOCUtNYUGoUC0r1ZkGpCuzlcmnL9Jevi/3l62IX1sU+z2VBqd7sPUzWOyDIglLTWFBqGgtKNWbvYbLegW+x+/wQryyOT0FvM+6vMm6icpv+wn3+FXhdfxYLSvVmD0czNYcFpaaxoNRAFpTqyh6OZqoOu1tcOkhM9WbLKKfmsKDUNBaUGsWCUr3ZNkc/VZM1OAIo1Zsto5yaw4JS01hQahQLSvVm2xz9VE3W4AigVG+2jHJqDgtKTWNBqVEsKNWbbXP0UzVZgyOAUr3ZMsqpOSwoNY0FpUaxoFRvts3RT5Vib3O7+0qZw7uv3H7WuKjvD/NIFpQaxYJS7VlQag4LSo1iQane7NiMSJVlL5fLeu+Uz6bv7Pu/svPpLCjVlQWlGrOg1JO9k3my32JBqd4sKFWBLSsGv6CCUqNYUKo9C0rNYUGpUSwo1Zs9P7v7O9bgj8vEVG+2jHJqDgtKTWNBqVEsKNWbbXP0UzVZgyOAUr3ZMsqpOSwoNY0FpUaxoFRvts3RT9VkDY4ASvVmyyin5rCg1DQWlBrFglK92TZHP1WHPXyARVn8qediPIAFpXqzh6OZmsOCUtNYUGogC0p1ZQ9HM1WEPXz47OGTav/9mbYPY0Gp3uw9TNY7IMiCUtNYUGoaC0o1Zu9hst6Bb7HrV3Gv1+vhNzW2bVsX+86+f11/LgtK9WZBqTksKDWNBaVGsaBUbxaUqsCWlY+Pj/bf54QvLy/F/LV8P3fs6fv7q9Yf9ywWlBrFglKNWVBqGgtKjWJBqd7s2IxI1WF3/qWD+3lxsh5bRjk1hwWlprGg1CgWlOrNtjn6qZqswRFAqd5sGeXUHBaUmsaCUqNYUKo32+bop2qyBkcApXqzZZRTc1hQahoLSo1iQanebJujn6rJGhwBlOrNllFOzWFBqWksKDWKBaV6s22OfqoOO67fGzPur1IWP5txyV+b92Yp61IsKNWGLaOcmsOCUk+WlerKglK92bEZkarDFuH19XXbtkN5Xew7+/51/bksKNWbBaXmsKDUNBaUGsWCUr1ZUKoC6/EL6vlPYEG2jHJqDgtKPVlWqisLSvVmz8/u/oLd+X9c3s/LV/TYMsqpOSwoNY0FpUaxoFRvts3RT9VkDY4ASvVmyyin5rCg1DQWlBrFglK92TZHP1WTNTgCKNWbLaOcmsOCUtNYUGoUC0r1Ztsc/VRN1uAIoFRvtoxyag4LSk1jQalRLCjVm21z9FOl2Nu8v7+PxZ996tkjWVBqFAtKNWZBqWksKDWKBaV6s198zqxCqgg7vjb7+7y9vRVzzLZt62Lfeb1e1/XnsqBUbxaUmsOCUtNYUGoUC0r1ZkGpCuzlcmnL9Jevi/3l62IX1sU+z2VBqd7sPUzWOyDIglLTWFBqGgtKNWbvYbLegW+x+/wQryyOT0FvM+6vMm6icpv+wn3+FXhdfxYLSvVmD0czNYcFpaaxoNRAFpTqyh6OZqoOu1tcOkhM9WbLKKfmsKDUNBaUGsWCUr3ZNkc/VZM1OAIo1Zsto5yaw4JS01hQahQLSvVm2xz9VE3W4AigVG+2jHJqDgtKTWNBqVEsKNWbbXP0UzVZgyOAUr3ZMsqpOSwoNY0FpUaxoFRvts3RT5Vib3O7+0qZw7uv3H7WuKjvD/NIFpQaxYJS7VlQag4LSo1iQane7NiMSJVlL5fLeu+Uz6bv7Pu/svPpLCjVlQWlGrOg1JO9k3my32JBqd4sKFWBLSsGv6CCUqNYUKo9C0rNYUGpUSwo1Zs9P7v7O9bgj8vEVG+2jHJqDgtKTWNBqVEsKNWbbXP0UzVZgyOAUr3ZMsqpOSwoNY0FpUaxoFRvts3RT9VkDY4ASvVmyyin5rCg1DQWlBrFglK92TZHP1WHPXyARVn8qediPIAFpXqzh6OZmsOCUtNYUGogC0p1ZQ9HM1WEPXz47OGTav/9mbYPY0Gp3uw9TNY7IMiCUtNYUGoaC0o1Zu9hst6Bb7HrV3Gv1+vhNzW2bVsX+86+f11/LgtK9WZBqTksKDWNBaVGsaBUbxaUqsCWlY+Pj/bf54QvLy/F/LV8P3fs6fv7q9Yf9ywWlBrFglKNWVBqGgtKjWJBqd7s2IxI1WF3/qWD+3lxsh5bRjk1hwWlprGg1CgWlOrNtjn6qZqswRFAqd5sGeXUHBaUmsaCUqNYUKo32+bop2qyBkcApXqzZZRTc1hQahoLSo1iQanebJujn6rJGhwBlOrNllFOzWFBqWksKDWKBaV6s22OfqoOO67fGzPur1IWP5txyV+b92Yp61IsKNWGLaOcmsOCUk+WlerKglK92bEZkarDFuH19XXbtkN5Xew7+/51/bksKNWbBaXmsKDUNBaUGsWCUr1ZUKoC6/EL6vlPYEG2jHJqDgtKPVlWqisLSvVmz8/u/oLd+X9c3s/LV/TYMsqpOSwoNY0FpUaxoFRvts3RT9VkDY4ASvVmyyin5rCg1DQWlBrFglK92TZHP1WTNTgCKNWbLaOcmsOCUtNYUGoUC0r1Ztsc/VRN1uAIoFRvtoxyag4LSk1jQalRLCjVm21z9FOl2Nu8v7+PxZ996tkjWVBqFAtKNWZBqWksKDWKBaV6s198zqxCqgg7vjb7+7y9vRVzzLZt62Lfeb1e1/XnsqBUbxaUmsOCUtNYUGoUC0r1ZkGpCuzlcmnL9Jevi/3l62IX1sU+z2VBqd7sPUzWOyDIglLTWFBqGgtKNWbvYbLegW+x+/wQryyOT0FvM+6vMm6icpv+wn3+FXhdfxYLSvVmD0czNYcFpaaxoNRAFpTqyh6OZqoOu1tcOkhM9WbLKKfmsKDUNBaUGsWCUr3ZNkc/VZM1OAIo1Zsto5yaw4JS01hQahQLSvVm2xz9VE3W4AigVG+2jHJqDgtKTWNBqVEsKNWbbXP0UzVZgyOAUr3ZMsqpOSwoNY0FpUaxoFRvts3RT5Vib3O7+0qZw7uv3H7WuKjvD/NIFpQaxYJS7VlQag4LSo1iQane7NiMSJVlL5fLeu+Uz6bv7Pu/svPpLCjVlQWlGrOg1JO9k3my32JBqd4sKFWBLSsGv6CCUqNYUKo9C0rNYUGpUSwo1Zs9P7v7O9bgj8vEVG+2jHJqDgtKTWNBqVEsKNWbbXP0UzVZgyOAUr3ZMsqpOSwoNY0FpUaxoFRvts3RT9VkDY4ASvVmyyin5rCg1DQWlBrFglK92TZHP1WHPXyARVn8qediPIAFpXqzh6OZmsOCUtNYUGogC0p1ZQ9HM1WEPXz47OGTav/9mbYPY0Gp3uw9TNY7IMiCUtNYUGoaC0o1Zu9hst6Bb7HrV3Gv1+vhNzW2bVsX+86+f11/LgtK9WZBqTksKDWNBaVGsaBUbxaUqsCWlY+Pj/bf54QvLy/F/LV8P3fs6fv7q9Yf9ywWlBrFglKNWVBqGgtKjWJBqd7s2IxI1WF3/qWD+3lxsh5bRjk1hwWlprGg1CgWlOrNtjn6qZqswRFAqd5sGeXUHBaUmsaCUqNYUKo32+bop2qyBkcApXqzZZRTc1hQahoLSo1iQanebJujn6rDjr/wjhnfwC2Ln834o3Cb394t61IsKNWGLaOcmsOCUk+WlerKglK92bEZkarDFuH19XXbtkN5Xew7+/51/bksKNWbBaXmsKDUNBaUGsWCUr1ZUKoC6/EL6vlPYEG2jHJqDgtKPVlWqisLSvVmz8/u/oLd+X9c3s/LV/TYMsqpOSwoNY0FpUaxoFRvts3RT9VkDY4ASvVmyyin5rCg1DQWlBrFglK92TZHP1WTNTgCKNWbLaOcmsOCUtNYUGoUC0r1Ztsc/VRN1uAIoFRvtoxyag4LSk1jQalRLCjVm21z9FOl2Nu8v7+PxZ99LsYjWVBqFAtKNWZBqWksKDWKBaV6s198EplCqgi7Pnz27e2tmGP+8Zm2j2RBqd4sKDWHBaWmsaDUKBaU6s2CUhXYy+XSlukvXxf7y9fFLqyLfZ7LglK92XuYrHdAkAWlprGg1DQWlGrM3sNkvQPfYvf5IV5ZHJ+C3mbcX2XcROU2/YX7/Cvwuv4sFpTqzR6OZmoOC0pNY0GpgSwo1ZU9HM1UHXa3uHSQmOrNllFOzWFBqWksKDWKBaV6s22Ofqoma3AEUKo3W0Y5NYcFpaaxoNQoFpTqzbY5+qmarMERQKnebBnl1BwWlJrGglKjWFCqN9vm6KdqsgZHAKV6s2WUU3NYUGoaC0qNYkGp3mybo58qxd7mdveVMod3X7n9rHFR3x/mkSwoNYoFpdqzoNQcFpQaxYJSvdmxGZEqy14ul/XeKZ9N39n3f2Xn01lQqisLSjVmQakneyfzZL/FglK9WVCqAltWDH5BBaVGsaBUexaUmsOCUqNYUKo3e35293eswR+XianebBnl1BwWlJrGglKjWFCqN9vm6KdqsgZHAKV6s2WUU3NYUGoaC0qNYkGp3mybo5+qyRocAZTqzZZRTs1hQalpLCg1igWlerNtjn6qDnv4AIuy+FPPxXgAC0r1Zg9HMzWHBaWmsaDUQBaU6soejmaqCHv48NnDJ9X++zNtH8aCUr3Ze5isd0CQBaWmsaDUNBaUaszew2S9A99i16/iXq/Xw29qbNu2Lvadff+6/lwWlOrNglJzWFBqGgtKjWJBqd4sKFWBLSsfHx/tv88JX15eivlr+X7u2NP391etP+5ZLCg1igWlGrOg1DQWlBrFglK92bEZkarD7vxLB/fz4mQ9toxyag4LSk1jQalRLCjVm21z9FM1WYMjgFK92TLKqTksKDWNBaVGsaBUb7bN0U/VZA2OAEr1Zssop+awoNQ0FpQaxYJSvdk2Rz9VkzU4AijVmy2jnJrDglLTWFBqFAtK9WbbHP1UHXZcvzdm3F+lLH4245K/Nu/NUtalWFCqDVtGOTWHBaWeLCvVlQWlerNjMyJVhy3C6+vrtm2H8rrYd/b96/pzWVCqNwtKzWFBqWksKDWKBaV6s6BUBdbjF9Tzn8CCbBnl1BwWlHqyrFRXFpTqzZ6f3f0Fu/P/uLyfl6/osWWUU3NYUGoaC0qNYkGp3mybo5+qyRocAZTqzZZRTs1hQalpLCg1igWlerNtjn6qJmtwBFCqN1tGOTWHBaWmsaDUKBaU6s22OfqpmqzBEUCp3mwZ5dQcFpSaxoJSo1hQqjfb5uinSrG3eX9/H4s/+9SzR7Kg1CgWlGrMglLTWFBqFAtK9Wa/+JxZhVQRdnxt9vd5e3sr5pht29bFvvN6va7rz2VBqd4sKDWHBaWmsaDUKBaU6s2CUhXYy+XSlukvXxf7y9fFLqyLfZ7LglK92XuYrHdAkAWlprGg1DQWlGrM3sNkvQPfYvf5IV5ZHJ+C3mbcX2XcROU2/YX7/Cvwuv4sFpTqzR6OZmoOC0pNY0GpgSwo1ZU9HM1UHXa3uHSQmOrNllFOzWFBqWksKDWKBaV6s22Ofqoma3AEUKo3W0Y5NYcFpaaxoNQoFpTqzbY5+qmarMERQKnebBnl1BwWlJrGglKjWFCqN9vm6KdqsgZHAKV6s2WUU3NYUGoaC0qNYkGp3mybo58qxd7mdveVMod3X7n9rHFR3x/mkSwoNYoFpdqzoNQcFpQaxYJSvdmxGZEqy14ul/XeKZ9N39n3f2Xn01lQqisLSjVmQakneyfzZL/FglK9WVCqAltWDH5BBaVGsaBUexaUmsOCUqNYUKo3e35293eswR+XianebBnl1BwWlJrGglKjWFCqN9vm6KdqsgZHAKV6s2WUU3NYUGoaC0qNYkGp3mybo5+qyRocAZTqzZZRTs1hQalpLCg1igWlerNtjn6qDnv4AIuy+FPPxXgAC0r1Zg9HMzWHBaWmsaDUQBaU6soejmaqCHv48NnDJ9X++zNtH8aCUr3Ze5isd0CQBaWmsaDUNBaUaszew2S9A99i16/iXq/Xw29qbNu2Lvadff+6/lwWlOrNglJzWFBqGgtKjWJBqd4sKFWBLSsfHx/tv88JX15eivlr+X7u2NP391etP+5ZLCg1igWlGrOg1DQWlBrFglK92bEZkarD7vxLB/fz4mQ9toxyag4LSk1jQalRLCjVm21z9FM1WYMjgFK92TLKqTksKDWNBaVGsaBUb7bN0U/VZA2OAEr1Zssop+awoNQ0FpQaxYJSvdk2Rz9VkzU4AijVmy2jnJrDglLTWFBqFAtK9WbbHP1UHXZcvzdm3F+lLH4245K/Nu/NUtalWFCqDVtGOTWHBaWeLCvVlQWlerNjMyJVhy3C6+vrtm2H8rrYd/b96/pzWVCqNwtKzWFBqWksKDWKBaV6s6BUBdbjF9Tzn8CCbBnl1BwWlHqyrFRXFpTqzZ6f3f0Fu/P/uLyfl6/osWWUU3NYUGoaC0qNYkGp3mybo5+qyRocAZTqzZZRTs1hQalpLCg1igWlerNtjn6qJmtwBFCqN1tGOTWHBaWmsaDUKBaU6s22OfqpmqzBEUCp3mwZ5dQcFpSaxoJSo1hQqjfb5uinSrG3eX9/H4s/+9SzR7Kg1CgWlGrMglLTWFBqFAtK9Wa/+JxZhVQRdnxt9vd5e3sr5pht29bFvvN6va7rz2VBqd4sKDWHBaWmsaDUKBaU6s2CUhXYy+XSlukvXxf7y9fFLqyLfZ7LglK92XuYrHdAkAWlprGg1DQWlGrM3sNkvQPfYvf5IV5ZHJ+C3mbcX2XcROU2/YX7/Cvwuv4sFpTqzR6OZmoOC0pNY0GpgSwo1ZU9HM1UHXa3uHSQmOrNllFOzWFBqWksKDWKBaV6s22Ofqoma3AEUKo3W0Y5NYcFpaaxoNQoFpTqzbY5+qmarMERQKnebBnl1BwWlJrGglKjWFCqN9vm6KdqsgZHAKV6s2WUU3NYUGoaC0qNYkGp3mybo58qxd7mdveVMod3X7n9rHFR3x/mkSwoNYoFpdqzoNQcFpQaxYJSvdmxGZEqy14ul/XeKZ9N39n3f2Xn01lQqisLSjVmQakneyfzZL/FglK9WVCqAltWDH5BBaVGsaBUexaUmsOCUqNYUKo3e35293eswR+XianebBnl1BwWlJrGglKjWFCqN9vm6KdqsgZHAKV6s2WUU3NYUGoaC0qNYkGp3mybo5+qyRocAZTqzZZRTs1hQalpLCg1igWlerNtjn6qDnv4AIuy+FPPxXgAC0r1Zg9HMzWHBaWmsaDUQBaU6soejmaqCHv48NnDJ9X++zNtH8aCUr3Ze5isd0CQBaWmsaDUNBaUaszew2S9A99i16/iXq/Xw29qbNu2Lvadff+6/lwWlOrNglJzWFBqGgtKjWJBqd4sKFWBLSsfHx/tv88JX15eivlr+X7u2NP391etP+5ZLCg1igWlGrOg1DQWlBrFglK92bEZkarD7vxLB/fz4mQ9toxyag4LSk1jQalRLCjVm21z9FM1WYMjgFK92TLKqTksKDWNBaVGsaBUb7bN0U/VZA2OAEr1Zssop+awoNQ0FpQaxYJSvdk2Rz9VkzU4AijVmy2jnJrDglLTWFBqFAtK9WbbHP1UHXZcvzdm3F+lLH4245K/Nu/NUtalWFCqDVtGOTWHBaWeLCvVlQWlerNjMyJVhy3C6+vrtm2H8rrYd/b96/pzWVCqNwtKzWFBqWksKDWKBaV6s6BUBdbjF9Tzn8CCbBnl1BwWlHqyrFRXFpTqzZ6f3f0Fu/P/uLyfl6/osWWUU3NYUGoaC0qNYkGp3mybo5+qyRocAZTqzZZRTs1hQalpLCg1igWlerNtjn6qJmtwBFCqN1tGOTWHBaWmsaDUKBaU6s22OfqpmqzBEUCp3mwZ5dQcFpSaxoJSo1hQqjfb5uinSrG3eX9/H4s/+9SzR7Kg1CgWlGrMglLTWFBqFAtK9Wa/+JxZhVQRdnxt9vd5e3sr5pht29bFvvN6va7rz2VBqd4sKDWHBaWmsaDUKBaU6s2CUhXYy+XSlukvXxf7y9fFLqyLfZ7LglK92XuYrHdAkAWlprGg1DQWlGrM3sNkvQPfYvf5IV5ZHJ+C3mbcX2XcROU2/YX7/Cvwuv4sFpTqzR6OZmoOC0pNY0GpgSwo1ZU9HM1UHXa3uHSQmOrNllFOzWFBqWksKDWKBaV6s22Ofqoma3AEUKo3W0Y5NYcFpaaxoNQoFpTqzbY5+qmarMERQKnebBnl1BwWlJrGglKjWFCqN9vm6KdqsgZHAKV6s2WUU3NYUGoaC0qNYkGp3mybo58qxd7mdveVMod3X7n9rHFR3x/mkSwoNYoFpdqzoNQcFpQaxYJSvdmxGZEqy14ul/XeKZ9N39n3f2Xn01lQqisLSjVmQakneyfzZL/FglK9WVCqAltWDH5BBaVGsaBUexaUmsOCUqNYUKo3e35293eswR+XianebBnl1BwWlJrGglKjWFCqN9vm6KdqsgZHAKV6s2WUU3NYUGoaC0qNYkGp3mybo5+qyRocAZTqzZZRTs1hQalpLCg1igWlerNtjn6qDnv4AIuy+FPPxXgAC0r1Zg9HMzWHBaWmsaDUQBaU6soejmaqCHv48NnDJ9X++zNtH8aCUr3Ze5isd0CQBaWmsaDUNBaUaszew2S9A99i16/iXq/Xw29qbNu2Lvadff+6/lwWlOrNglJzWFBqGgtKjWJBqd4sKFWBLSsfHx/tv88JX15eivlr+X7u2NP391etP+5ZLCg1igWlGrOg1DQWlBrFglK92bEZkarD7vxLB/fz4mQ9toxyag4LSk1jQalRLCjVm21z9FM1WYMjgFK92TLKqTksKDWNBaVGsaBUb7bN0U/VZA2OAEr1Zssop+awoNQ0FpQaxYJSvdk2Rz9VkzU4AijVmy2jnJrDglLTWFBqFAtK9WbbHP1UHXZcvzdm3F+lLH4245K/Nu/NUtalWFCqDVtGOTWHBaWeLCvVlQWlerNjMyJVhy3C6+vrtm2H8rrYd/b96/pzWVCqNwtKzWFBqWksKDWKBaV6s6BUBdbjF9Tzn8CCbBnl1BwWlHqyrFRXFpTqzZ6f3f0Fu/P/uLyfl6/osWWUU3NYUGoaC0qNYkGp3mybo5+qyRocAZTqzZZRTs1hQalpLCg1igWlerNtjn6qJmtwBFCqN1tGOTWHBaWmsaDUKBaU6s22OfqpmqzBEUCp3mwZ5dQcFpSaxoJSo1hQqjfb5uinSrG3eX9/H4s/+9SzR7Kg1CgWlGrMglLTWFBqFAtK9Wa/+JxZhVQRdnxt9vd5e3sr5pht29bFvvN6va7rz2VBqd4sKDWHBaWmsaDUKBaU6s2CUhXYy+XSlukvXxf7y9fFLqyLfZ7LglK92XuYrHdAkAWlprGg1DQWlGrM3sNkvQPfYvf5IV5ZHJ+C3mbcX2XcROU2/YX7/Cvwuv4sFpTqzR6OZmoOC0pNY0GpgSwo1ZU9HM1UHXa3uHSQmOrNllFOzWFBqWksKDWKBaV6s22Ofqoma3AEUKo3W0Y5NYcFpaaxoNQoFpTqzbY5+qmarMERQKnebBnl1BwWlJrGglKjWFCqN9vm6KdqsgZHAKV6s2WUU3NYUGoaC0qNYkGp3mybo5+qyRocAZTqzZZRTs1hQalpLCg1igWlerNtjn6qJmtwBFCqN1tGOTWHBaWmsaDUKBaU6s22OfqpmqzBEUCp3mwZ5dQcFpSaxoJSo1hQqjfb5uinarIGRwClerNllFNzWFBqGgtKjWJBqd5sm6OfqskaHAGU6s2WUU7NYUGpaSwoNYoFpXqzbY5+qg57eIvjsvhTd05+AAtK9WYPRzM1hwWlprGg1EAWlOrKHo5mqgh7+Hiyw2eZ/ftTzx7GglK92XuYrHdAkAWlprGg1DQWlGrM3sNkvQPfYruw/79zvV7/97//7cts27Yu9p19/7r+XBaU6s2CUnNYUGoaC0qNYkGp3iwoVYEtK+NRtv1/vLy8FPPXr1+lYezp+/ur1h/3LBaUGsWCUo1ZUGoaC0qNYkGp3uzYjEjVYXf+pYP7eXGyHltGOTWHBaWmsaDUKBaU6s22OfqpmqzBEUCp3mwZ5dQcFpSaxoJSo1hQqjfb5uinarIGRwClerNllFNzWFBqGgtKjWJBqd5sm6OfqskaHAGU6s2WUU7NYUGpaSwoNYoFpXqzbY5+qg47rt8bM+6vUhY/m3HJX5v3ZinrUiwo1YYto5yaw4JST5aV6sqCUr3ZsRmRqsMW4fX1ddu2Q3ld7Dv7/nX9uSwo1ZsFpeawoNQ0FpQaxYJSvVlQqgLr8Qvq+U9gQbaMcmoOC0o9WVaqKwtK9WbPz+7+gt35f1zez8tX9Ngyyqk5LCg1jQWlRrGgVG+2zdFP1WQNjgBK9WbLKKfmsKDUNBaUGsWCUr3ZNkc/VZM1OAIo1Zsto5yaw4JS01hQahQLSvVm2xz9VE3W4AigVG+2jHJqDgtKTWNBqVEsKNWbbXP0U6XY27y/v4/Fn33q2SNZUGoUC0o1ZkGpaSwoNYoFpXqzX3zOrEKqCDu+Nvv7vL29FXPMtm3rYt95vV7X9eeyoFRvFpSaw4JS01hQahQLSvVmQakK7OVyacv0l6+L/eXrYhfWxT7PZUGp3uw9TNY7IMiCUtNYUGoaC0o1Zu9hst6Bb7H7/BCvLI5PQW8z7q8ybqJym/7Cff4VeF1/FgtK9WYPRzM1hwWlprGg1EAWlOrKHo5mqg67W1w6SEz1Zssop+awoNQ0FpQaxYJSvdk2Rz9VkzU4AijVmy2jnJrDglLTWFBqFAtK9WbbHP1UTdbgCKBUb7aMcmoOC0pNY0GpUSwo1Zttc/RTNVmDI4BSvdkyyqk5LCg1jQWlRrGgVG+2zdFPlWJvc7v7SpnDu6/cfta4qO8P80gWlBrFglLtWVBqDgtKjWJBqd7s2IxIlWUvl8t675TPpu/s+7+y8+ksKNWVBaUas6DUk72TebLfYkGp3iwoVYEtKwa/oIJSo1hQqj0LSs1hQalRLCjVmz0/u/s71uCPy8RUb7aMcmoOC0pNY0GpUSwo1Zttc/RTNVmDI4BSvdkyyqk5LCg1jQWlRrGgVG+2zdFP1WQNjgBK9WbLKKfmsKDUNBaUGsWCUr3ZNkc/VYc9fIBFWfyp52I8gAWlerOHo5maw4JS01hQaiALSnVlD0czVYQ9fPjs4ZNq//2Ztg9jQane7D1M1jsgyIJS01hQahoLSjVm72Gy3oFvsetXca/X6+E3NbZtWxf7zr5/XX8uC0r1ZkGpOSwoNY0FpUaxoFRvFpSqwJaVj4+P9t/nhC8vL8X8tXw/d+zp+/ur1h/3LBaUGsWCUo1ZUGoaC0qNYkGp3uzYjEjVYXf+pYP7eXGyHltGOTWHBaWmsaDUKBaU6s22OfqpmqzBEUCp3mwZ5dQcFpSaxoJSo1hQqjfb5uinarIGRwClerNllFNzWFBqGgtKjWJBqd5sm6OfqskaHAGU6s2WUU7NYUGpaSwoNYoFpXqzbY5+qg47rt8bM+6vUhY/m3HJX5v3ZinrUiwo1YYto5yaw4JST5aV6sqCUr3ZsRmRqsMW4fX1ddu2Q3ld7Dv7/nX9uSwo1ZsFpeawoNQ0FpQaxYJSvVlQqgLr8Qvq+U9gQbaMcmoOC0o9WVaqKwtK9WbPz+7+gt35f1zez8tX9Ngyyqk5LCg1jQWlRrGgVG+2zdFP1WQNjgBK9WbLKKfmsKDUNBaUGsWCUr3ZNkc/VZM1OAIo1Zsto5yaw4JS01hQahQLSvVm2xz9VE3W4AigVG+2jHJqDgtKTWNBqVEsKNWbbXP0U6XY27y/v4/Fn33q2SNZUGoUC0o1ZkGpaSwoNYoFpXqzX3zOrEKqCDu+Nvv7vL29FXPMtm3rYt95vV7X9eeyoFRvFpSaw4JS01hQahQLSvVmQakK7OVyacv0l6+L/eXrYhfWxT7PZUGp3uw9TNY7IMiCUtNYUGoaC0o1Zu9hst6Bb7H7/BCvLI5PQW8z7q8ybqJym/7Cff4VeF1/FgtK9WYPRzM1hwWlprGg1EAWlOrKHo5mqg67W1w6SEz1Zssop+awoNQ0FpQaxYJSvdk2Rz9VkzU4AijVmy2jnJrDglLTWFBqFAtK9WbbHP1UTdbgCKBUb7aMcmoOC0pNY0GpUSwo1Zttc/RTNVmDI4BSvdkyyqk5LCg1jQWlRrGgVG+2zdFPlWJvc7v7SpnDu6/cfta4qO8P80gWlBrFglLtWVBqDgtKjWJBqd7s2IxIlWUvl8t675TPpu/s+7+y8+ksKNWVBaUas6DUk72TebLfYkGp3iwoVYEtKwa/oIJSo1hQqj0LSs1hQalRLCjVmz0/u/s71uCPy8RUb7aMcmoOC0pNY0GpUSwo1Zttc/RTNVmDI4BSvdkyyqk5LCg1jQWlRrGgVG+2zdFP1WQNjgBK9WbLKKfmsKDUNBaUGsWCUr3ZNkc/VYc9fIBFWfyp52I8gAWlerOHo5maw4JS01hQaiALSnVlD0czVYQ9fPjs4ZNq//2Ztg9jQane7D1M1jsgyIJS01hQahoLSjVm72Gy3oFvsetXca/X6+E3NbZtWxf7zr5/XX8uC0r1ZkGpOSwoNY0FpUaxoFRvFpSqwJaVj4+P9t/nhC8vL8X8tXw/d+zp+/ur1h/3LBaUGsWCUo1ZUGoaC0qNYkGp3uzYjEjVYXf+pYP7eXGyHltGOTWHBaWmsaDUKBaU6s22OfqpmqzBEUCp3mwZ5dQcFpSaxoJSo1hQqjfb5uinarIGRwClerNllFNzWFBqGgtKjWJBqd5sm6OfqskaHAGU6s2WUU7NYUGpaSwoNYoFpXqzbY5+qg47rt8bM+6vUhY/m3HJX5v3ZinrUiwo1YYto5yaw4JST5aV6sqCUr3ZsRmRqsMW4fX1ddu2Q3ld7Dv7/nX9uSwo1ZsFpeawoNQ0FpQaxYJSvVlQqgLr8Qvq+U9gQbaMcmoOC0o9WVaqKwtK9WbPz+7+gt35f1zez8tX9Ngyyqk5LCg1jQWlRrGgVG+2zdFP1WQNjgBK9WbLKKfmsKDUNBaUGsWCUr3ZNkc/VZM1OAIo1Zsto5yaw4JS01hQahQLSvVm2xz9VE3W4AigVG+2jHJqDgtKTWNBqVEsKNWbbXP0U6XY27y/v4/Fn33q2SNZUGoUC0o1ZkGpaSwoNYoFpXqzX3zOrEKqCDu+Nvv7vL29FXPMtm3rYt95vV7X9eeyoFRvFpSaw4JS01hQahQLSvVmQakK7OVyacv0l6+L/eXrYhfWxT7PZUGp3uw9TNY7IMiCUtNYUGoaC0o1Zu9hst6Bb7H7/BCvLI5PQW8z7q8ybqJym/7Cff4VeF1/FgtK9WYPRzM1hwWlprGg1EAWlOrKHo5mqg67W1w6SEz1Zssop+awoNQ0FpQaxYJSvdk2Rz9VkzU4AijVmy2jnJrDglLTWFBqFAtK9WbbHP1UTdbgCKBUb7aMcmoOC0pNY0GpUSwo1Zttc/RTNVmDI4BSvdkyyqk5LCg1jQWlRrGgVG+2zdFPlWJvc7v7SpnDu6/cfta4qO8P80gWlBrFglLtWVBqDgtKjWJBqd7s2IxIlWUvl8t675TPpu/s+7+y8+ksKNWVBaUas6DUk72TebLfYkGp3iwoVYEtKwa/oIJSo1hQqj0LSs1hQalRLCjVmz0/u/s71uCPy8RUb7aMcmoOC0pNY0GpUSwo1Zttc/RTNVmDI4BSvdkyyqk5LCg1jQWlRrGgVG+2zdFP1WQNjgBK9WbLKKfmsKDUNBaUGsWCUr3ZNkc/VYc9fIBFWfyp52I8gAWlerOHo5maw4JS01hQaiALSnVlD0czVYQ9fPjs4ZNq//2Ztg9jQane7D1M1jsgyIJS01hQahoLSjVm72Gy3oFvsetXca/X6+E3NbZtWxf7zr5/XX8uC0r1ZkGpOSwoNY0FpUaxoFRvFpSqwJaVj4+P9t/nhC8vL8X8tXw/d+zp+/ur1h/3LBaUGsWCUo1ZUGoaC0qNYkGp3uzYjEjVYXf+pYP7eXGyHltGOTWHBaWmsaDUKBaU6s22OfqpmqzBEUCp3mwZ5dQcFpSaxoJSo1hQqjfb5uinarIGRwClerNllFNzWFBqGgtKjWJBqd5sm6OfqskaHAGU6s2WUU7NYUGpaSwoNYoFpXqzbY5+qg47rt8bM+6vUhY/m3HJX5v3ZinrUiwo1YYto5yaw4JST5aV6sqCUr3ZsRmRqsMW4fX1ddu2Q3ld7Dv7/nX9uSwo1ZsFpeawoNQ0FpQaxYJSvVlQqgLr8Qvq+U9gQbaMcmoOC0o9WVaqKwtK9WbPz+7+gt35f1zez8tX9Ngyyqk5LCg1jQWlRrGgVG+2zdFP1WQNjgBK9WbLKKfmsKDUNBaUGsWCUr3ZNkc/VZM1OAIo1Zsto5yaw4JS01hQahQLSvVm2xz9VE3W4AigVG+2jHJqDgtKTWNBqVEsKNWbbXP0U6XY27y/v4/Fn33q2SNZUGoUC0o1ZkGpaSwoNYoFpXqzX3zOrEKqCDu+Nvv7vL29FXPMtm3rYt95vV7X9eeyoFRvFpSaw4JS01hQahQLSvVmQakK7OVyacv0l6+L/eXrYhfWxT7PZUGp3uw9TNY7IMiCUtNYUGoaC0o1Zu9hst6Bb7H7/BCvLI5PQW8z7q8ybqJym/7Cff4VeF1/FgtK9WYPRzM1hwWlprGg1EAWlOrKHo5mqg67W1w6SEz1Zssop+awoNQ0FpQaxYJSvdk2Rz9VkzU4AijVmy2jnJrDglLTWFBqFAtK9WbbHP1UTdbgCKBUb7aMcmoOC0pNY0GpUSwo1Zttc/RTNVmDI4BSvdkyyqk5LCg1jQWlRrGgVG+2zdFPlWJvc7v7SpnDu6/cfta4qO8P80gWlBrFglLtWVBqDgtKjWJBqd7s2IxIlWUvl8t675TPpu/s+7+y8+ksKNWVBaUas6DUk72TebLfYkGp3iwoVYEtKwa/oIJSo1hQqj0LSs1hQalRLCjVmz0/u/s71uCPy8RUb7aMcmoOC0pNY0GpUSwo1Zttc/RTNVmDI4BSvdkyyqk5LCg1jQWlRrGgVG+2zdFP1WQNjgBK9WbLKKfmsKDUNBaUGsWCUr3ZNkc/VYc9fIBFWfyp52I8gAWlerOHo5maw4JS01hQaiALSnVlD0czVYQ9fPjs4ZNq//2Ztg9jQane7D1M1jsgyIJS01hQahoLSjVm72Gy3oFvsetXca/X6+E3NbZtWxf7zr5/XX8uC0r1ZkGpOSwoNY0FpUaxoFRvFpSqwJaVj4+P9t/nhC8vL8X8tXw/d+zp+/ur1h/3LBaUGsWCUo1ZUGoaC0qNYkGp3uzYjEjVYXf+pYP7eXGyHltGOTWHBaWmsaDUKBaU6s22OfqpmqzBEUCp3mwZ5dQcFpSaxoJSo1hQqjfb5uinarIGRwClerNllFNzWFBqGgtKjWJBqd5sm6OfqskaHAGU6s2WUU7NYUGpaSwoNYoFpXqzbY5+qg47rt8bM+6vUhY/m3HJX5v3ZinrUiwo1YYto5yaw4JST5aV6sqCUr3ZsRmRqsMW4fX1ddu2Q3ld7Dv7/nX9uSwo1ZsFpeawoNQ0FpQaxYJSvVlQqgLr8Qvq+U9gQbaMcmoOC0o9WVaqKwtK9WbPz+7+gt35f1zez8tX9Ngyyqk5LCg1jQWlRrGgVG+2zdFP1WQNjgBK9WbLKKfmsKDUNBaUGsWCUr3ZNkc/VZM1OAIo1Zsto5yaw4JS01hQahQLSvVm2xz9VCn2Nu/v72PxZ5+L8UgWlBrFglKNWVBqGgtKjWJBqd7sF59EppAqwq4Pn317eyvmmH98pu0jWVCqNwtKzWFBqWksKDWKBaV6s6BUBfZyubRl+svXxf7ydbEL62Kf57KgVG/2HibrHRBkQalpLCg1jQWlGrP3MFnvwLfY/x8oXHZNCmVuZHN0cmVhbQplbmRvYmoKCjExIDAgb2JqCjw8Ci9UeXBlIC9YT2JqZWN0Ci9TdWJ0eXBlIC9JbWFnZQovV2lkdGggODQyCi9IZWlnaHQgNTk5Ci9Db2xvclNwYWNlIC9EZXZpY2VHcmF5Ci9CaXRzUGVyQ29tcG9uZW50IDgKL0ZpbHRlciAvRmxhdGVEZWNvZGUKL0xlbmd0aCA1MDk2Cj4+CnN0cmVhbQp4nO3cMW5c1xKEYadKnSq0QocOlb1tMOICmGgx2q4hzcMNCMIg2ERX97mfkgkKQgH68c/pAex6+uPXny9ff3/88e3x8fXL4/Pp3eGH/+LnhYHKt8LkP8E0JE+hytdhS+XPp19/nl9+fzz9eHy8PD8+3x9++C9+XhiofCtM/hNMQ/IzVPk6bKk85wswUOlN8iZd4TnYApVMYhKTmNQU5pEwiUmVcAASJq3EFqhkEpOu8PnLrz9/fvv98eXvx8e3Px+f7w8//Bc/LwxUvhUm/wmmIXkOVb4OWypfvv7689c/vz++fn98/PPX4/P94Yf/4ueFgcq3wuQ/wTQkL6HK12FL5TmnRKDSdee68zuJSU1hHgmTmFQJByBh0kpsgUomMYlJTGoK80iYxKRKOADJrUz68e3Xn7+///749r/Hx/e/H5/vDz/8Fz8vDFS+FSb/CaYh+RGqfB22VJ7zBRio9CZ5k1x3TGoK80iYxKRKOAAJk1ZiC1QyiUlMYlJTmEfCJCZVwgFIbmXS4z9k/fZf/5Xre8IP/8XPCwOVb4XJf4JpSF5Cla/Dlsr//88Vf/3X/3nxjvDDf/HzwkDlW2Hyn2AakudQ5euwpfKcUyJQ6bpz3fmdxKSmMI+ESUyqhAOQMGkltkAlk5jEJCY1hXkkTGJSJRyA5FYmnTPnHqi0sG9h38K+N6kpzCNx3TGpEg5AwqSV2AKVTGISk5jUFOaRMIlJlXAAkluZdM6ce6DSwr6FfQv7FvabwjwSC/uuu0o4AMmtrrtzsAUqmcQkJjGpKcwjYRKTKuEAJExaiS1QySQmMYlJTWEeiYV9C/uVcAASC/srvwADld4kb5LrjklNYR4Jk5hUCQcgYdJKbIFKJjGJSUxqCvNImMSkSjgAya1MOmfOPVBpYd/CvoV9C/tNYR6JhX3XXSUcgORW19052AKVTGISk5jUFOaRMIlJlXAAEiatxBaoZBKTrvCcEepApV1wu+B2wb1JTWEeieuOSZVwABImrcQWqGQSk5jEpKYwj4RJTKqEA5DcyqRzRqgDlXbB7YLbBbcL3hTmkdgFd91VwgFIbnXdnYMtUMkkJjGJSU1hHgmTmFQJByBh0kpsgUomMYlJTGoK80jsgtsFr4QDkNgFX/kFGKj0JnmTXHdMagrzSJjEpEo4AAmTVmILVDKJSUxiUlOYR8IkJlXCAUhuZdI5I9SBSrvgdsHtgtsFbwrzSOyCu+4q4QAkt7ruzsEWqGQSk5jEpKYwj4RJTKqEA5AwaSW2QCWTmMQkJjWFeSQW9i3sV8IBSCzsr/wCDFR6k7xJrjsmNYV5JExiUiUcgIRJK7EFKpnEJCYxqSnMI7Gwb2G/Eg5AYmF/5Zx7oNLCvoV9C/uuu6Ywj8TvJCZVwgFImLQSW6CSSUxiEpOawjwSJjGpEg5AwqSV2AKVTGLSFZ4z5x6otLBvYd/CvjepKcwjcd0xqRIOQMKkldgClUxiEpOY1BTmkTCJSZVwABImrcQWqGQSk67wnDn3QKWFfQv7FvYt7DeFeSQW9l13lXAAkltdd+dgC1QyiUlMYlJTmEfCJCZVwgFImLQSW6CSSUxiEpOawjwSC/sW9ivhACQW9ld+AQYqvUneJNcdk5rCPBImMakSDkDCpJXYApVMYhKTmNQU5pFY2LewXwkHILGwv3LOPVBpYd/CvoV9111TmEfidxKTKuEAJExaiS1QySQmMYlJTWEeCZOYVAkHIGHSSmyBSiYx6QrPmXMPVFrYt7BvYd+b1BTmkbjumFQJByBh0kpsgUomMYlJTGoK80iYxKRKOAAJk1ZiC1QyiUlXeM6ce6DSwr6FfQv7FvabwjwSC/uuu0o4AMmtrrtzsAUqmcQkJjGpKcwjYRKTKuEAJExaiS1QySQmMYlJTWEeiYV9C/uVcAASC/srvwADld4kb5LrjklNYR4Jk5hUCQcgYdJKbIFKJjGJSUxqCvNILOxb2K+EA5BY2F855x6otLBvYd/CvuuuKcwj8TuJSZVwABImrcQWqGQSk5jEpKYwj4RJTKqEA5AwaSW2QCWTmHSF58y5Byot7FvYt7DvTWoK80hcd0yqhAOQMGkltkAlk5jEJCY1hXkkTGJSJRyAhEkrsQUqmcSkKzxnzj1QaWHfwr6FfQv7TWEeiYV9110lHIDkVtfdOdgClUxiEpOY1BTmkTCJSZVwABImrcQWqGQSk5jEpKYwj8TCvoX9SjgAiYX9lV+AgUpvkjfJdcekpjCPhElMqoQDkDBpJbZAJZOYxCQmNYV5JBb2LexXwgFILOyvnHMPVFrYt7BvYd911xTmkfidxKRKOAAJk1ZiC1QyiUlMYlJTmEfCJCZVwgFImLQSW6CSSUy6wnPm3AOVFvYt7FvY9yY1hXkkrjsmVcIBSJi0ElugkklMYhKTmsI8EiYxqRIOQHIrk84ZoQ5U2gW3C24X3C54U5hHYhfcdVcJByC51XV3DrZAJZOYxCQmNYV5JExiUiUcgIRJK7EFKpnEJCYxqSnMI7ELbhe8Eg5AYhd85RdgoNKb5E1y3TGpKcwjYRKTKuEAJExaiS1QySQmMYlJTWEeiV1wu+CVcAASu+ArR6gDlXbB7YLbBXfdNYV5JH4nMakSDkDCpJXYApVMYhKTmNQU5pEwiUmVcAASJq3EFqhkEpOu8JwR6kClXXC74HbBvUlNYR6J645JlXAAEiatxBaoZBKTmMSkpjCPhElMqoQDkDBpJbZAJZOYdIXnzLkHKi3sW9i3sG9hvynMI7Gw77qrhAOQ3Oq6OwdboJJJTGISk5rCPBImMakSDkDCpJXYApVMYhKTmNQU5pFY2LewXwkHILGwv/ILMFDpTfImue6Y1BTmkTCJSZVwABImrcQWqGQSk5jEpKYwj8TCvoX9SjgAiYX9lXPugUoL+xb2Ley77prCPBK/k5hUCQcgYdJKbIFKJjGJSUxqCvNImMSkSjgACZNWYgtUMolJV3jOnHug0sK+hX0L+96kpjCPxHXHpEo4AAmTVmILVDKJSUxiUlOYR8IkJlXCAUiYtBJboJJJTLrCc+bcA5UW9i3sW9i3sN8U5pFY2HfdVcIBSG513Z2DLVDJJCYxiUlNYR4Jk5hUCQcgYdJKbIFKJjGJSUxqCvNILOxb2K+EA5BY2F/5BRio9CZ5k1x3TGoK80iYxKRKOAAJk1ZiC1QyiUlMYlJTmEdiYd/CfiUcgMTC/so590ClhX0L+xb2XXdNYR6J30lMqoQDkDBpJbZAJZOYxCQmNYV5JExiUiUcgIRJK7EFKpnEpCs8Z849UGlh38K+hX1vUlOYR+K6Y1IlHICESSuxBSqZxCQmMakpzCNhEpMq4QAkTFqJLVDJJCZd4Tlz7oFKC/sW9i3sW9hvCvNILOy77irhACS3uu7OwRaoZBKTmMSkpjCPhElMqoQDkDBpJbZAJZOYxCQmNYV5JBb2LexXwgFILOyv/AIMVHqTvEmuOyY1hXkkTGJSJRyAhEkrsQUqmcQkJjGpKcwjsbBvYb8SDkBiYX/lnHug0sK+hX0L+667pjCPxO8kJlXCAUiYtBJboJJJTGISk5rCPBImMakSDkDCpJXYApVMYtIVnjPnHqi0sG9h38K+N6kpzCNx3TGpEg5AwqSV2AKVTGISk5jUFOaRMIlJlXAAEiatxBaoZBKTrvCcOfdApYV9C/sW9i3sN4V5JBb2XXeVcACSW11352ALVDKJSUxiUlOYR8IkJlXCAUiYtBJboJJJTGISk5rCPBIL+xb2K+EAJBb2V34BBiq9Sd4k1x2TmsI8EiYxqRIOQMKkldgClUxiEpOY1BTmkVjYt7BfCQcgsbC/cs49UGlh38K+hX3XXVOYR+J3EpMq4QAkTFqJLVDJJCYxiUlNYR4Jk5hUCQcguZVJ54xQByrtgtsFtwvuTWoK80hcd0yqhAOQMGkltkAlk5jEJCY1hXkkTGJSJRyAhEkrsQUqmcSkKzxnhDpQaRfcLrhdcLvgTWEeiV1w110lHIDkVtfdOdgClUxiEpOY1BTmkTCJSZVwABImrcQWqGQSk5jEpKYwj8QuuF3wSjgAiV3wlV+AgUpvkjfJdcekpjCPhElMqoQDkDBpJbZAJZOYxCQmNYV5JHbB7YJXwgFI7IKvHKEOVNoFtwtuF9x11xTmkfidxKRKOAAJk1ZiC1QyiUlMYlJTmEfCJCZVwgFImLQSW6CSSUy6wnPm3AOVFvYt7FvY9yY1hXkkrjsmVcIBSJi0ElugkklMYhKTmsI8EiYxqRIOQMKkldgClUxi0hWeM+ceqLSwb2Hfwr6F/aYwj8TCvuuuEg5Acqvr7hxsgUomMYlJTGoK80iYxKRKOAAJk1ZiC1QyiUlMYlJTmEdiYd/CfiUcgMTC/sovwEClN8mb5LpjUlOYR8IkJlXCAUiYtBJboJJJTGISk5rCPBIL+xb2K+EAJBb2V865Byot7FvYt7DvumsK80j8TmJSJRyAhEkrsQUqmcQkJjGpKcwjYRKTKuEAJExaiS1QySQmXeE5c+6BSgv7FvYt7HuTmsI8EtcdkyrhACRMWoktUMkkJjGJSU1hHgmTmFQJByBh0kpsgUomMekKz5lzD1Ra2Lewb2Hfwn5TmEdiYd91VwkHILnVdXcOtkAlk5jEJCY1hXkkTGJSJRyAhEkrsQUqmcQkJjGpKcwjsbBvYb8SDkBiYX/lF2Cg0pvkTXLdMakpzCNhEpMq4QAkTFqJLVDJJCYxiUlNYR6JhX0L+5VwABIL+yvn3AOVFvYt7FvYd901hXkkficxqRIOQMKkldgClUxiEpOY1BTmkTCJSZVwABImrcQWqGQSk67wnDn3QKWFfQv7Fva9SU1hHonrjkmVcAASJq3EFqhkEpOYxKSmMI+ESUyqhAOQMGkltkAlk5h0hefMuQcqLexb2Lewb2G/KcwjsbDvuquEA5Dc6ro7B1ugkklMYhKTmsI8EiYxqRIOQMKkldgClUxiEpOY1BTmkVjYt7BfCQcgsbC/8gswUOlN8ia57pjUFOaRMIlJlXAAEiatxBaoZBKTmMSkpjCPxMK+hf1KOACJhf2Vc+6BSgv7FvYt7LvumsI8Er+TmFQJByBh0kpsgUomMYlJTGoK80iYxKRKOAAJk1ZiC1QyiUlXeM6ce6DSwr6FfQv73qSmMI/EdcekSjgACZNWYgtUMolJTGJSU5hHwiQmVcIBSJi0ElugkklMusJz5twDlRb2Lexb2Lew3xTmkVjYd91VwgFIbnXdnYMtUMkkJjGJSU1hHgmTmFQJByBh0kpsgUomMYlJTGoK80iYxKRKOAAJk1ZiC1QyiUlMYlJTmEfCJCZVwgFImLQSW6CSSUy6wnNGqAOVdsHtgtsFtwveFOaR2AV33VXCAUhudd2dgy1QySQmMYlJTWEeCZOYVAkHIGHSSmyBSiYxiUlMagrzSOyC2wWvhAOQ2AVf+QUYqPQmeZNcd0xqCvNImMSkSjgACZNWYgtUMolJTGJSU5hHwiQmVcIBSG5l0jkj1IFKu+B2we2C2wVvCvNI7IK77irhACS3uu7OwRaoZBKTmMSkpjCPhElMqoQDkDBpJbZAJZOYxCQmNYV5JD0m/Xz69ef55ffH04/Hx8vz4/P94Yf/4ueFgcq3wuQ/wTQkP0OVr8OWynO+AAOV3iRvkuuOSU1hHgmTmFQJByBh0kpsgUomMYlJTGoK80gs7FvYr4QDkFjYXznnHqi0sG9h38K+664pzCPxO4lJlXAAEiatxBaoZBKTmMSkpjCPhElMqoQDkDBpJbZAJZOYdIXnzLkHKi3sW9i3sO9NagrzSFx3TKqEA5AwaSW2QCWTmMQkJjWFeSRMYlIlHICESSuxBSqZxKQrPGfOPVBpYd/CvoV9C/tNYR6JhX3XXSUcgORW19052AKVTGISk5jUFOaRMIlJlXAAEiatxBaoZBKTmMSkpjCPxMK+hf1KOACJhf2VX4CBSm+SN8l1x6SmMI+ESUyqhAOQMGkltkAlk5jEJCY1hXkkFvYt7FfCAUgs7K+ccw9UWti3sG9h33XXFOaR+J3EpEo4AAmTVmILVDKJSUxiUlOYR8IkJlXCAUiYtBJboJJJTLrCc+bcA5UW9i3sW9j3JjWFeSSuOyZVwgFImLQSW6CSSUxiEpOawjwSJjGpEg5AwqSV2AKVTGLSFZ4z5x6otLBvYd/CvoX9pjCPxMK+664SDkByq+vuHGyBSiYxiUlMagrzSJjEpEo4AAmTVmILVDKJSUxiUlOYR2Jh38J+JRyAxML+yi/AQKU3yZvkumNSU5hHwiQmVcIBSJi0ElugkklMYhKTmsI8Egv7FvYr4QAkFvZXzrkHKi3sW9i3sO+6awrzSPxOYlIlHICESSuxBSqZxCQmMakpzCNhEpMq4QAkTFqJLVDJJCZd4Tlz7oFKC/sW9i3se5OawjwS1x2TKuEAJExaiS1QySQmMYlJTWEeCZOYVAkHIGHSSmyBSiYx6QrPmXMPVFrYt7BvYd/CflOYR2Jh33VXCQcgudV1dw62QCWTmMQkJjWFeSRMYlIlHICESSuxBSqZxCQmMakpzCOxsG9hvxIOQGJhf+UXYKDSm+RNct0xqSnMI2ESkyrhACRMWoktUMkkJjGJSU1hHomFfQv7lXAAEgv7K+fcA5UW9i3sW9h33TWFeSR+JzGpEg5AwqSV2AKVTGISk5jUFOaRMIlJlXAAEiatxBaoZBKTrvCcOfdApYV9C/sW9r1JTWEeieuOSZVwABImrcQWqGQSk5jEpKYwj4RJTKqEA5DcyqRzRqgDlXbB7YLbBbcL3hTmkfTsgv8LdKhiTgplbmRzdHJlYW0KZW5kb2JqCgoxNSAwIG9iago8PAovTGVuZ3RoMSA0MTQ5NgovRmlsdGVyIC9GbGF0ZURlY29kZQovTGVuZ3RoIDIzNDA5Cj4+CnN0cmVhbQp4nOy9CXyU1dU4fO599lmfmUxmT2YmkwTIAIEkEAKRDLsagbCFBIkEAWUTCJtrJVQRjFaprdStgktbRK2TBQhLK1XrTqFqbbVVUXGtKLWUKpLM/9z7zCSDYF/f7/t93/d7v9/7PLnnnnufu5x77rnnnrsMAAEAHYEIMHlaccnSj37bBEA6MbaxduzEupo7Fv8LYMggAMdP510xd4VypXwEgHrx+2fz1q4OP/7kO7cBaHUA8rLLVlx+xbBfuGMA9ucBzInL565aAT6IYHkWVsvlS6++bNm+TxcAjH8G4OKpC+dfcVX5DAfifbYDWDctXDB3/t+ra1/G9M2YfuhCjHCWajMxPBvD+QuvWH3Va5bsB5DYfKRh2NLl8+a6Z5ErAASknuReMfeqFfKN2hOIBzF9eNncKxaMODXrANKG+empFctXrU4WwRb8Xsm+r1i5YMUDbR9/ChC4CsBSDAQEUMEEDpCSSbAD481tdCdUwougAAUd4nATgOSRPgMJwwLwJ9mHlXmOB/MrI7snwRgdTj1x6hqdx5zx3MZjFOTWY2/9c4698l9qQOUfHny/TxHzX7/x6Gennui6XAd1Cga1nhIEYRPZjFSo0j1SKRYcMHzhj3AZdaoSNcsiZY/I0mZWOX3imDC2IwyfSK92TyGlykjSFgeSxBaDWCjtY5yBbIQ0ldOFkHBfhL+gX4LfRXAijEI/GAiDYSSMgvFwAVTDJKiBqTAdamEOXAaLYAWshWtgGzwOn7DyeZ4+EINBPM8YOB/zTMzIMxcWwhJYCVen8yTf/97vPHw3nsXh7/cM7X1JUeqtIw+QLtJFR9ObaQf9K/2raBV3fOfbzV55vjxfKVZVdYvmwvcPph+afmh+3vy89Se2HbYd9iX2Jfp7+nuOZkezc/9Z71vOt1y/y/7aU+u93XfY/5D/ocAjwd8Ff5e7IFQSyc0bEm3Mvzb/2oKcPqv7Tuk3vWgre/uXDBj3vd7G/8vvIzh6MphKK3qZJq7ictIr7hthFt0B1zHHvz8GKzH9DgyPQn9vKs8MdO/8dzsIy1qRxqXaZBf3n4PL0N0v1cKD4vuwPRX3MNb1pJHOGJfyDrgL4+9Lxd2fSvcAL/d9lEUjXvsvaViVfDfVhgvR3YRDqwb98eiqsc6s1LeN5DnYxHGATYjfgPVvZPHoxjKf83EHbMDvVZgvH+NuQNzfUw9ABF3f/y6PvptuHGX/Lz/YvreBabZZTHuIyFuaCz9M4QR17FUpnIINFqdwAcZCYQoXM9JI4MVUBi4jBqg7VqJ2mQtLUXswzbEAw6swZjksQx1TjlppEL4TeXg5rEZ9sgLTDM/IF0adswAuhzWIz8XYMPJ7In6bh/hyLGs56q/VqN/OTNWb/xHMUYJ1DMbawkjDQkwXPqvGMOq45ZhnBYdzMd6gcSB+GYWlGHQswhoW4rdVKapW8fasRTifp7QiL5g7H2MuxS8L4EqMncxrWIZ1p+u6CGu4Gstfg2WFsezlWC5rURjdckxzNafeqCvc04JBUIpYYU+oHPpzOlgrV2DaMNY7F+thZcxD7WykvRBDCzm3z8f65nOOGe1ivFjE27L0O+m5jPMjDKMxfCl+YbFGr5zZRqOc5amWhnkta/DrPN7edC9dyfuGxazBVPM598IYn+6TC5Amxp1FPN8yzt8RPP8CnmIBXIF1Mm7P5zCcoiidNszjV3HZYHPa6h5JS7eDfV+NVCzCnKuQCyDtBR86v/Qr8ImFKL+Q/Ajdx8zvXpT8mH1nPkXrAzpTDlCHPU4W4cz3JDxFjmOuJ2APdMDz4MGRcR9q1Z+i9pBxTD0PN2MPTcWRMRZ+SnzJDihGfSagO4hpZ8L1qG3dxJv8BNbBBuFVzLUBJSgPZa4GKf4RuSi5BmbDO+IN2NsXYUtWkOZkXfK25B3Jh+EXsEd4HjWsGTXSPHwPJj+X/pL8GwzAHHfC3fAOuUPbiRbETGjGlD/H9t8jNIgkeXnyFFIQwd44iKN3IhwkB2gMS18AHxEvuU4Yg6U8lEwkn8FUQWjA3rkH9pIhZAKNSLOTE5MHwY11XIWl3g1tsAvfTvgNvEks0vHkw8njaEn2x55ch/z4AzkgdHet765CjjHd0A8q8Mty+C08B4dJlPyOLpcsUokUl65JvoZ2y2CYgdT+CnN+SP5Nr8d3nfCsOD45GnXJBvgx4zb8Ht4lflJMJpNa2o8up/cLK9EW7I95B2PvLkJ+34Wlv01iZBe10EPCQ+Kj4jdyTveRpA17pBDuhZ/D74gVWxomq8gPyevkfTqGzqH30veEn4qPiK8oc7HVl6Ck/QgehX8TJxlGppCLyUJyHdlIfkzuJgfJYfIxHUWn0yX0C2Gh0CT8RhyN7zRxlXiDdJN0i/xxd133M91/7P53siR5E0xBeViP1N+JM1oHyskheAPfd+A9IhEzseEbJhEyg1yL7/XkR+RBsp08QjqwlsPkPfIJ+ZL8i3xDUQFTmQZohObhG6Ur6ZX0p/Q+egjfw/Qz+rXgEfKEmDBEqBTqheVI1UZhM747hXdFv3hITCKfS6Qt0lZpu/So9JR0XLYoP1RBffn0Q11FXW93Q/em7i3dbd0dOHdmYx/6kQshtKin4GiZi5r/Kpyjf4Fy/iqxIO/8aHeNJBchZ+aQxaSJXIWcvJHcQ37Baf812Y9c+jP5Amm20iCneSAdghbaZHwvoQtoE91M70Br7XV6SlAEs2AXsoUiYYLQICwQVgtXC1uEhPCy8JbwnnBSOI1vUjSJITFPLBRj4gRxjrhGvF/8SPxImi29JH0gm+Qr5JvkTvkfylBlpFKjTFEalNuVXcpraiNK59OwE3ZnznnkiLBeGCfsxDVDqeijf6B/QHmeA/OFiRQllW4nm+gPSAfNl66SR9ARZBIcFwuR18/SrfQkHSFMJNVkGiymg43SZJe4A71K8Wk4Ju7Htv0BS75KtpDr6ReyBdoIt8XI74VBYkx4Cd4U3iGK+AD8VTQRDzlGfyXUoBT8Rhwp1UFEuA9+LTSRH8BOOg7A9I16K8rxJIJ2CUwnJeQrIQkCnYRSVC68DzfAEvoXOIbjeBP8jMwXL8dVSim5Dj6CX+Ko6Cctk4vkbPICXSS20CzSAVR8hNmFJJ8IkgtuJA3CPfIX9A3UxYdEE7wtPIbUH6K/FiaKx6WpZCGOgB/gKqopuR6ulurEV8jlIJBaKBCPoHa7TigRI+ivQ60yG3XaLhzde1EPjBImYowXJecilIsZqCHuwfcu1BMiStAiHOMzUYv9ATrk6bQTLpdsBLUOWj4vdU+FWclfwt3Jy2FZ8g4YgPpgY/I6LHE7fAC3w3ayofta1Oi5OHLeJhdJ4+khaXxyAG2hb9BpdMuZ/YvcLiBe+BTfX2NgJK6VWsQ/wzSoSt6a/BNKd1/UsHfjTHIhHMVWfo41nC8cgNLuSbQ1OV7A+Vd6B6Ykf5UMERMsTC7FGXw//EKRYK4Swz5OkFewvdfCAjo1uVpY0L0I+XA7coGtOdeg/rlZbBJvEL+GW3HMb0F9sw3HzQ4cOWzsQ/ziDatXrWxasXzZFUuXLF608PLLFlzaUDezdsb0yZNGxatGnlc5YnjFsPIhZaUlgwcVDxzQP1bUr2+fwoL8aF4kHMrNCQb8Pq/Hne3Kcjp0u81qMZs0VZElUaAE+o+Ljm8MJwobE2Jh9PzzB7BwdC5GzM2IaEyEMWr8mWkS4UaeLHxmyjimvOxbKeNGynhPSqKHK6FyQP/wuGg4cXBsNNxJZk2pQ/xHY6P14cQxjk/k+GaOWxGPRDBDeJx34dhwgjSGxyXGr13YMq5xLBbXajaNiY5ZYBrQH1pNZkTNiCU80RWtxDOScIR6xg1vpaBakaiEPzp2XMIXHcsoSAgF4+bOT9RMqRs3NhCJ1A/onyBj5kUvTUB0dMIe40lgDK8mIY9JKLya8CLWGrgl3Nr/QMutnTpc2hizzI/Onzu7LiHMrWd1OGJY79iE55qj3t4gFu4cU7cx82tAaBnnXRRmwZaWjeHEtil1mV8jDNbXYxmYlxaMb2wZj1XfikysnhbG2uiG+roE2YBVhllLWKuM9i2IjmMxjYvDCS06OrqwZXEjdo2/JQFTr460+f3xPckj4B8XbpleF40kqgLR+rljg60uaJl6dbsvHvad+WVA/1bdYTC21WZPIRZrJrKg5xvHeHKGVU/t4SxhFEUvQIFIhOeFkZK6KLZpGAMLhkHLvGGYDJ96grkS87FHFiW0MY0t+nAWz/InpAI9Gm75F6AERI99dmbM3FSMXKD/CxjK5KRH1PB7Gk/EYomiIiYiyhjsU6RxJA8PGdB/bSeNRlfoYfSQfVCDvJ1bP7wY2R+JsA6+pTMOl2Ig0TylzgiH4dJAG8SLY/UJ2si+HEh/yZ7BvjSnv/Rkb4yiJHfwlXd2Qi3s+bPr7qxxC4cniPs/fF5gfK+eFq2eMqsuPK6lMcXb6ulnhIzvw3q+pbBE1pg6IUBTGA0I/CsK5eyexCxQZ0mIBfgnc6Ge36moKJU8hoTHJ/TG8w1Yb4pEvmemzuRxlot7vdlSZCaGx84MjzgjfAZ5lhYBCcbptXr6rJYW0xnfUNSMCi9IeSjxML0uEh6TgBk4MgvwrzN5YBhz9YFEHFk2hiVA+TOiUsEzEgZSeD0+TDoH9B+Piq6lZXw0PL6lsWVuZ7L50mhYj7bsoU/Rp1pWjGtMC05ncu8tgcT4W+uRVwvJ8AH9o+xLS8v8VhAKsJp4oJVwpHzMLfWJybH6aOLSWDQSrVuAbWkdDpbI9MYxiFEY3Rolm6a0xsmmabPq9ugA4U3T69oooWMaR9e35uO3uj1hnCp4LGWxLJIFwiwA1QRZ00ZVnj6wJw7QzL+KPIKH53US4HFqOo7AvE5qxOlGRYW8ojgalvM6ReNLPJ1axDjViGs2UvdNpVbxi86+7AWccYB/NJ5WDEyvi5vK48PjI+IjaRVFjrCoNozZi2lHEGgfSapIoBXLnMqjO0lz64h4YA8vaWoqZTOmZHHNPXFIOUuWURDWZzR8Rm8LZsyqax8JWD6HmGI0e5imRSIyxxBXTEzOZ8bqLLSlehpKIPtoGhYwZXwOs4wJEk3MiV4VYa1L1EavjmBkNBFGbY2JWmFCsL6lJYxvFLkyr7bOgOwT6R/EkuoTzZem0waCKBO9QQtm5XLVHmQ6pKe2a9O1rcTaGNKSri4x75y1IfUJcjGD/I+T3zoUokb9OEsblbbMbpmF8hhJ5LCKU3Rg0Bas5yUgJXdxSgifnOahTXAZG0thpuRQTUYvbKWTYtwn3G+5MDpuPqZgDifdIdhZkfD8epYqygYNE/zvTEQyErGJhBfeoo9Ih0gqZAzflsTlZwYX9gTHM4c2SsFAQ01gW/iQjSQWBxJL62M9SeayNrfg2B7OBvhwnnkCc4047UxINM+biyTifHPBvChGXIgR4bpLDQ6yibqFWU7z5mI2xuVUTYllsTOKRJ1AUEVhQaw5ieaacGN9uBF1CJmCzA6EExL64cvQfIrOZXqjxmhPDSp/9Oa2TMO8wLotkFBQn102d0GUKdcEk3eD+4xGEamDaXUJCLS0RFGGkMSC8ZgYiy9MyIUXMA//VsSicxcwy+4yZtgtMEwOJJdzh5UWGBeN1GMSWsB5iYzDgXYpA/NamN3Y0BhDTjhanC3hihYc8A06O3qYV9uIei2sh8eHeVfPDWAImXABC9VjQUZCrYAlxPz8rzBxRay1QSnojeF/y2NGYpWXyo2IRE06icL/EGmKJahnGH5kjSdTZ/F5ATuKMU8quADZG0epCrDcOIqmp6YNI/8FLGsg3WFGNoypT08AKO+tBWRTTaYmnJ1wVk+9OICMHdA6fcMos9CfvTQPciCES+wiXBaHhKI2OSfUKfRtL/SGDu8X+sERdFTo1xbLCe0R+gg5bSNC8U4h2u7MLrGPGiCEUQUXcxhGuBzdE+ieFNghzRwhF+N1hOvQNaN7At2T6A6jkwEQsq9hdMvRbUV3hH0RcoRgWzikj+oj+DCvD5tgFzzwBbokOgHp9GCtHpiMbg6629FtRSfzdCxmObp16J5Ed5x/iQuetjtKkXZP2y3ca1+8tIQH5xrB2Q082D6z3vAnTjH8sRcYyYYbyQaXGdEDRxt+n/6G7ywoaWa+yVpyYJRbcGMj3Uj4CoSEPgN2QnD9uE3IhgQ6KsipmLjgbM8vLNn6pCACEahAYD6EkgcE0mZ1lIwy0ST9ApwQop/TY8YXeqzd5ijZOupC+h48ge5JdAJ9D9936buwjh5hPEdYhW4ruifRHUL3BTqZHsH3HXzfpm+Dnb4Fxeiq0M1BtxXdk+i+QKfQtxDq9G/MyOOQ4VXoKP0bQp3+FZv1V4R2+iZib9I3kbRX28orSvZwJFacQkIFKcQTSCFOd0knfaXt634oUYXY0yhR+4Q8GAmlQl5bwWAUP29b5aJQJ32/PRwLbRs1iL4GCXQUKXkNa34Nwuhq0DWiW4FORux1xF6HZnSb0W1Dl0CHUoZQRxemL6J7Gd3rMAhdHF0NOpUebsNqOumhtsLRoVFu+gf6HHiQ4wfp89x/mT7L/Zfo77n/Avq56L9In23LDcEoM34HzKOjr6NfjN8l+rv2fGcoOcpBn0TehRAWo6tCNxndHHS3o5PpkzSvbX7IiYXsgxdVwJRt8An3fwkPqhBfHIoXjkEBDDNQOPw8xBBsDW8tpPHCLXdjkIHC2+5AjIHCG29FjIHCa9YjxkDh0rWIMVA4fzFiDBTOmoMYA4WTpyOGoJPevzu/T6h88hISHmWnVyKXrkQuXYlcuhJEeiV74WuR0XZvW1ERcuyeeKxfUagZbZv9pHkqaX6QNC8gzdeT5vWkuZI0X0KaY6Q5SJpzSXOcNO8jw5AVzSTecUawIu4lzS+S5sdJ8yrSXEiaC0hzPmkOk/J4J420XVDKvXHcax/FBh36541E7WOnEeRoBGU+gjrhSYSH0CV5KI6JwnlGYl8u8/Pai6qM8MDhJctx+DyNGZ/Gbnga3kEnYgc9jWL0NBbyNBZgR1iFbg66A+i+QJdEJ2PqPCT8dg7tCIvRVaGbg24dui/QyZycL9BRWJ4i8QlOGCO6OEX4ZHQifRpftvsZoZF4jh7UY/r5wu1BYs8lk3OTubQc3G5cZzkdqqOTWHf92/rVv62gjdLobfR2prrp5pR/e9vXqLrJXW2F+0KjssnPIFdEySMVUEgK0B8Gq3h4CARV5pdBkD6KfklbsBaz2dsK+4f2EhvLtSv0dfBo6JNgJ0X04+C+0J/DnSJpC/0JYx7dFXoteHPoheJOFWP2F3YS9PaGedI9wWGhx1/kSdfjh3vaQtczb1foB8EJoSVB/mGB8eGSVRiK20NTC2eFzsfyxgYvDcVXYZm7QlXBS0KVRqohLM+u0CAkIWagRUhsvyCvNJqLMR2hITNmlHeShfH+yhalTpmsDFVKlP5KRAkpOUpAcalOVVdtqkU1qaoqq6JKVVBdnckj8Ri7EOGS+b0ImV3hAJHjOmWQ3T9gqo+oFC6ERJZQTaunjSbViQPzoPrScOLktGgnMeHCT4qOJjizQvX00YlhsepOJTk1UR6rTig1F9e1EnJbPcYm6CZcukyv6yRJFrUhwLZY9gAhjg0/CjC/74Yf1deD1722ylvlHOmoGD/2HKAxBWO9j/cMPGd0Ykv1tLq2ITt25IyuT5RwPJlEvDrxE7YVs4d8SY6PG7uH/IN59XV7hJHky3FTWbwwcmx9fXUnqeXpIEz+gelQdP7B06k4S7N0EFZzjXT3GOkKMD+my2ceptM0KODpCjSNpxMJS9e6Kn/c2Nb8fJ7GE4ZVPM0qTzgzzYsFmKaggKdxN8OLPM2L7maWJjGSJwkGMUlukCchfgjyJEHi50lqe5MUp5Lc3JPkZl6TQHrTBI001iPpNNYjmCb2fZ8Fo2Mx0j6ift5sto3VGB23AF1j4pa1C73MIg+3zqtP7W8VNl46byHz0Satjy4Ym5gXHRtuHTH7HJ9ns88jomNbYfa46XWts+MLxraNiI8YF507tr59Qk1Z+Rl13dxTV1nNOQqrYYWVsbomlJ/jczn7PIHVVc7qKmd1TYhP4HUBF/WaulYVRtePmW347dRsQrFtRDt+tFtfMZLL8IiI9/rAXjRdtoM5Vp+wREcnrOjYpwGjBoxin3BosU82tleZ+uS9fkQksJdsT33SMdoRHQ2x1WtWrQHvuEVjjb9V+GDU6jWM4QaMrfquB7+NS8Tnjl21GqA6UTStOlGFi99WRcHYRtakxPB0nNk8rjN5wIgciJHDWaQg9CRkcZUsTtNSCc/u/zUpfwwbBc10XzuJ55LVsKpeSORWT6eoEaanNoX2omHF5opV9djAVSRGVqXLSJEdi4ERBtbmtFu9JoWleLE65Rs5McuqNEt6HsasWA/HVvNiOTtjs+tG2YShQjGMQtt5EPoD0B+Afgn6JUJx3FkYEmh5SFPLQ2bT2JAijw2lS62PscMHdudus1lV+a0smd2xEEW01EUBZDnzkAIDKigKRioUFFAVjGFO7U0gswczUzSTVERBlAVWyJkF9RT33Y9oMWucHiVFj8LoUZTMNAr70zSkQ2PX61BBIcAopTcBUqsomA+bIpgVzC4qgiIBSNLZVSpnR2XQYzWb+AWaND2qyIg6I4/KrtFpSBCjRwNsgMbp6bn/w+hRUvQoaXpERo9yjsr/Mz12q5nTw5gvYHM0UUKi1Mw0Gvszm00amAQwATYAAaeph2CVPZiP0WNFFCScRhlf1bNqhHNE9T6SbrVwerRMerQzrj5hwAwWC9JhFhDDBpg5PebeBMg8TWPMRZKsiPbQcw5m/MdrVZLDamVn+AY9KH4mSZa+RY+plx7pO+nBhzWG0YMooJmhIS3aOZjxH+mRs3Qbp4cVLiI9ZkaP2ZyZBgNWsNmQkVYZMbuVBQFDvQlMZpPZjI1B1oo6oiCbJBPr53NUbj47KoOebIfOhyC7QCsiey2yIiMzMtNYGD12uw2pYJejHDYE9kx6LGAxm80W1hgkSTdbzKCYZdYo8znosZwd1fsoXpeTizwrXEJBtCnY71ZrZhpkoB0cDh2BDDpkORA4OE2pBxlms9isCtgkbI/LZrWBalFsSI/lHJVbz47qfdSAx8VFnhUuIXt1Ffvcbs9Mgwx0gsvldECWipgnC6lxcZpSj51xz25XwI78k912zK7ZVOxXsJ2jcvvZUb2PluNzc3qwUux0EzjQ6gVdz0yD9WZBdnaWE7IVxDzZLIguq5dgXbfrOuZDFik+HbOb7KqOtFhtZ1epnx3V+5jCAS8XeSejB7s8S8M+dzoz02C92eDxZLvAoyEW8LAgpyn1OFlvOhwmcCpIUsDpcIBZ15zICPs5mOE4O6r3MUcCvu9Bjxu8XrcLvBpi2AAMIjXuDHqc+PbS4wSzw6DnHMz4z/QUhIJcw7DGKih+bpPFhJ2TmQbr9UEg4PNAQEMsFGBB5JAvnSAbXNlZ2S4T708llI3ZLU5TNlbscJ5VI4ref3gsRflhPgQ9GFBtNvBZbBbsnMw0WG8QcnODfsi1IBbNZUF+ryb1eFhvejxW8CBJpnwPZre5LKyQMxuWTv0fHtvAwigfguxyqobdHbDiuPD7M9MEAEIQiSAjIxbECiIsyG/5pB4/ZvD4/Tbwm5CkQj9mt3usfqzYc47K/WdH9T72kn6FXMOwxppQEHNsqO+Cwcw0OYDV5+dHQpBvQ6xfPgtymlJPEDP4gkHMZ0H+9g1idofPFkS++nxn1QjBs6N6H8fQAf24Sshl9KAch+0oh7m5mWmwQ/OhT5/8CPSxIzagDwtymlJPLmYI5ObaIceK/B2Qg9mdAXsO8jVwDmbknh3V+ziHD+7PVQJWCuasLMjTs3QIhzPT5AFWX1TUJwpFdsSKi1iQ09RDcDicEw5jPivkWgeHMXtWjh5GvgbOwYzw2VG9T9aYihI+ogswYHW7oU+WOwsKCjLTYL0DYNAgZOSgLMTKB7Eg9EOYegowQ15BAeazQ569ogCzu/OyUM5Q6s6usuDsqN7HXV01jA929uMKG3Z3/2xfNjIjM01/9hOHoUNLBsLQbMTOG8qCSE1JOkERZigsKsJ8Dih0VBVhdl9hdhFWXHCOyovOjup9fNMmjORDcCAGdBTEQZ6gBwYOzEwzCKAcKivLS6HSg9i4ShaEMoSpZyBmKBo40AsDnRBzThiI2YNFnoEomH3OcYd84NlRvU9w9sRxfAiWYsAZCsFQf8gPpaWZaYYCnAejR583DEb7EasezYJQgTD1lGKGgaWlASh1QbFrYilmDw30l2J/DhhwVo1QenZU7xOaP72aD0HsNcjC7h4ejARh2LDMNMOB/ZDk/DHnwflBxKadz39XMhJh6hmGGUqGDcuBYW4ocU8fhtkjJcFhgwEGDz67ymFnR/U+TN4EEAh7JEEglBDwSp+ZD8BXapIZ6sluZo4mu3BOMfE7tGaEaIAhRLMHoY1DO9gQ6mBH6EB4mk1qCLPAidAFWQjRJkh+g7OPCyHOyQhxFkyeQv3vQdwPPsQD4EcY5DAHAghxNkh+jdqOwTDkIER9jDAPwgijCL/CsR5BWAB5CAsR/hvHYBRhX8hH2A8KERZxGIM+yZM4IvoiHMDhQChCWAwxhDhSEQ5G+C8cHQMRlkIxwjIYlDwBQzgcCoMRlkMpwmFQlvwnSgqDw2EIwhEcVsJQhOdBOcKRMAxhFVQkv4Q4DEc4CkYgHA2VCMcg/AeMhfMQjoORCMdDVfI4TIA4wvNhFMILYDTCCzmshjEIL4KxCCfC+OQXMInDyTABYQ2cj3AKXJD8HKZyOA0uRDgdqpPHYAZMRFjL4UyYhLAOJic/g3qoQTgL4TG4GKYgPhumIWyA6Qgv4XAOzEj+HRqhFuFcmInwUoSfwjyoRzgfZiFcABcjvAxmJz+ByzlcCA0IF8ElyY9hMTQivoTDpTAX4RVwKcYvg3kIl3O4AuYnP4ImWIBwJVyOcBWHq2Fh8kNYA4sQroXFCK9E+AFcBUsQXg1XILwGliG8lsPrYDnCH8AKhNdDU/IorOOwGVYhXA+rEf4Q1iTZ3dC1CG/kcANcmXwPboKrEG6EqxFugmsQ3gzXJt+FFrgO4S3wA4y5FeG78CO4HuFtsA7h7bAe4WaER+DH8EOEd8ANCH8CNybfgZ9yeCdsQLgFNiL8GWzCr3chfAfuhpsR3gMtybfhXrgF4X1wK8Kfc3g/3IZwK9yOcBtsRvgAwrfgQfgxwofgDoQPw08Q/gJ+mvwb/BLuTP4VfgVbEG6HnyF8hMMdcBfCR+FuhI/BvQgf5/DXcB/CJ+DnCBNwP8JWhG9CG2xF2A7bEHbAg8k3YCc8lPwL7OJwNzyMsBN+gXAP/BLhXg73wXaE++GR5J/hN7AD4W85fBIeRXgAHkP4O3gc4VPwa4RPwxPJ1+EZSCD8PbQm/wTPcvgctCF8HtqTr8EL0IHwRdiJ8CXYhfBl2I3wIHQi/APsQXiIw8OwF+EfYT/CV+A3yVfhVYSvwGvwW4R/gicRvg4Hkn+EP3P4F3gK4RvwNMI34RmEf+Xwb/B7hG/BswjfhueSh+EdDo/AC8lD8C68iPA9eAnh+xwehZcRfgAHEX4If0D4ERxO/gE+5vAT+CPCT+GV5EH4O7yK8DMOj8FrCD+H15MvwxfwZ4THOfwH/AXhl/AGwn/CmwhPcPgv+FvyJTgJbyH8N7yN8CuEL8LX8A7CU3AE4TfwLsLTHHbB+8kXoBuOIkzCBwj/V6f/P6/T//E/XKf//Xvr9E++Q6d/cpZO//g7dPpHZ+n0D7+HTj/ao9NXnqHT3/8Onf4+1+nvn6XT3+M6/b0Mnf4e1+nvcZ3+XoZOf/csnX6E6/QjXKcf+R+o09/4/0inv/a/Ov1/dfr/OJ3+P91O/5+r07/LTv9fnf6/Ov3cOv35/x/odPaDAZDYsZ0ACozuoOSorHTSu+NZIIlHBTAp4lECPlWWjlJhPx0MGrmbDARvTD9Z2VU5ST9RObGrEqoQ108jGDwo4og4ChAQEOF0WDhwOi4hCWHxAPtXUbKTH4n10quo00NkbWJDrC6+sW/OsByqiVoOnWnfnbU7+FzWc8GvcmRCs0ETBRdokuwATVV00MyKHjBZFN1rtSu6x+aUHR5bluDy2Nw022Pz0Wyv1U+zA6ag4AqYcgSX15orO7zWkOwImEyBQAFoLgDN6vUWeGwuj8eWTQtcggC6UuCQO8mu+DCbzWo1mTQIeL0eD5iyXS6HPtKmyLJAR4L3p1bPT60FtrijYrJtq43a1kRMPw1oP8VyO5MHdjoq2D3iTvpAe/iRhYw9DbFjR/WjPf6Jykq90oDILkQrDah3IdscFcUIN0oDYz/Qn9k40Ms8+7eewYNIQ0NTYKfbnxUUaKdQHDcvReo1Z8huVmQWNi1VFM2LLdQIeKtKq0qdFcWx0tKSEkcaGTS43pMVHVKaFRkSySoVmCvNjgqR7IgQzYoIWZGsyOUzH3nuwu4vSPHMLTPJiJk/m/n4S9XE3f3yzC213c/OXEOGV3f/3kd23EmW3Eke757G3J3dd97ZXUt2dNfSKrKE3TybJbSTPtJeFKtK3svZIAlE+pyCsD5MNhNKFstNv+JMOgZVxwjSVzF4UGCnSCBOAWn3H6yoQFqzhCGl2cKmgQcHYXnOf/2r+3Ms+7ruKbQRZUiHSbxsUx87Ad2pqLreSUrbYatNRT/uULbaLgFBF8KCIDzm+PmtvLquk8f0k1gnMp/xM9AOdoUxqwprI4XUUVY+tLxUVvDN1gl5584/TJy1f/3Vfc6Lxkise8p+8hWxff5m1zeH61u27PtNd6g7DGdQZMi0pS/tq1PNpBNwaowm01aBoN8BW4VLbJ3J4x26Tmcg8lWH3c6Rox1WK0c+i9tNJjrDbguhgD3mTFHNLrKcRTmxa2nKs6LgKOtTiG+p2+PO1mnXehKL5Z3X55r1+2dNPNQ9hRwh7+7fs6Vl1ivfdL35efeX3SqjeyUcE4eLu9CCq+d0h2CZRr9WhWWSImvLTKLpa4ksq6KTKaU+y8xZ3hgO94aJJyqPVepHKyuh+ATK7Anst91MgZgUJpSlrUsF8KKwlZSUFhcjaQUOFDVHqQNFzEFJdxO5fQe5vbvpGLljO/O3dy9jlOzofpvcgNrbBPMZJTtNqIwexTFZEy8kQiWlxEQqwUQFDIA8TBk+Ga2P5TiDb8Oat5kfuAu5dKLhxFH9GB9dDOrH9C4uWEyuFJmwX0kxuSo+iESVoli5ZKXP0KHluw7WzCypGCocPNh0S+FE39yLkZpRpJMuplegRjyP88W3gq4Q6EQyEQmJAvVLKzCRT1zxI8aRow36h1A88djgQdCE3dIGceyVYj+rJmtIJHsU7Uc6d+7EDHv5v/JzEEst56V6KWtSpdGQJ0Dchmm2ibwtJxv4uEDS23sIT5G99+DBg0yTzkBN6pAOoMzlkG5WXis1furlzxUlV67V6tE6kx9z+WJI3McETHOAhcWA22JBaGFxUIzCdRDBQayR19kqn13SCSxJZiV9iJLKkc/jPrNZZkXqLAZ0i4VBFtdTZG+Z8UmivJFuMm+yv2CTNMXspeOyLsq+0DcmMD1rdvZs39TAEmWJeV7W0uwlvsbA1fRKea35GvtG+S5li/6C9036uvy6+a92fw9Jo3S0tXHNgeypxbXCl2wVksK/YqsQEo87aj2rtHgkWjYIx4mma1QbZcJM6YQampU84e5abXPIYbFYOkm8o9ZhM5sNRLVaEWmvdaxi+j1uwZLYP/5FIZ0U1FRSMJLuqoXNuc/dwvoPm45qHyFDG5o4mmIFaWiChgQdk4jX1HXIYZ8eRIXQRsPm36L150bnRGdHN4w9BF19fX2g1epCDd+x1GoV/Yi0LRUllIpYVYyJme4cWlridjtx4MvRvD6FWbq7tGSoQy+M5inyjCWvblvbtnr04lcfeO3qH+955LrrHnnk+usubKCvEpGc99ic9u7km93d3U8/ftdu8vPun31xnCwkiz9fdBNK4zsoaN+gjJmIjUlYu6mn5WnElOYWpBGTwYsepsQjtULc6ihbIq6jt9O7VfExkWggS1TQJGKh5EUT566J9RMQPoUmj3D9iMincQcX1yAXVxsXV+RW3MeEMS1xXPr8FilutZdJrCwbK0siYSkuUcln3ksqyQYwhmqT0SP8wYBhu1R5KoijgvUMNKCa508gjrRpclySNGLRGK+rcA71H0SFghyPRB2yrAxB9VFKv+kY9er0n71XvFq8duR1oV9PeHEOtmEFvCeOENl9++uMGaGZ3i5SkRJBkeg+Ootd16az2qQ42UtqQEI9lw2Pyo/iVFUpg18NS0RaozCNq3/YMAktrYnHwFfsP4aP14+ajSk2D1IMDYG4md1hlCghIhpaTPGUFB9Ec+Igo5OQIexPHHF6iEBOJ4WX6Pruue2kilS2d1+Gncv+LTCpHudpBWy0hVE6KgcIjqD0yDLhGj2NaxnxUgYupvGOWlVNyYUsphAFY36bynLKGHuYTDabf5vKeyIdSS3pSNIbKZtSYqW404JmSSFmOS2DphQipRHNliYjHaMYMbtric2OokU7k192pJCvuEJD5ES8ngmUZmFQ4rBYH6Rfri7UGvVNwmb9BelZ+YB+XDerUj2ppTX6QnNC/6fln9Z/2jTRIlpFm2A2aZIoWqw2VVYUlBtRlS1oX6DQfhW3cyEOKxYXfqKCwOKyWZwQFi0uzKXlSpKaKwtyJ10R10C1fBKnhNK9xAyEmONOSxgWKMLUGvGQ+I4obBaJ2ElI3FxjOaC8YxE2W4iFhXW7ckih65RmhSo/sb/+Zz41NvnQ4Z8XZcfv048dQ4Gu9B+rOlrJpsxjzPBMW57M5waZo6Jio/7MM7ZnntkoGT4OkeqEeVp1InfKLEODzarrEO2CquxNHgdIfsU0Vj1Z2dTwn+6eB1pVtFYHxy1LVRWIqGJDCeX2ahW3U1Fuo6SUoFWK9qhQ2EdGw6L0j7TurUe77n3gDfKPu8fnBUulvafGk/3dY+kssmXPlT+6BQfUZcmPpLVoheWQYm5DzKOLcyhhkyCfk9gkOIdhYSixzmP/ElVOM9yYsxnukR4VfmHdI3RYn7MehqM5/8xx2Jw5jpwcoUju6ygKhkMTrLWumdm1voXSkpxrnbc47xHutt0T3E4eptsdf7JlgQv8ukv3iyhEb7f1rSBMCYX7Vuh2bF4gK9ciBHJFTS+0XwiFYUKIP+ShKbn0pNWmx2Th2tJU6ykMqwRHDQ9aa1ULo1n15c6bze0v1FsT2WyCWgGRE8f4rOJgygA1VwObW2IxsjIQN7F/l9Su6xYx0CmUdCwVNUsWIm1LLYIxcSCrS1FPlDI14ZHFaF4+HVLmzC8tET1KIc4cMs12Odk8InY8dV730x8c6/7zvU+QMU/9jfQf8WTpUz955P3ZV3x400PvUTr4i29+R5a98gGZ0XrkpQHb7niw+4sf7+v+pGU/s1PuRw0zCzWMHfvFsNed4RAZowZzclG4HXquHVQ2m3d/x2x+kt3GRE6EGGM0EopzOybMJgjNxK0bL49h45ePWc0fytHTbNVNqdlIN2asuK1WD/NZJpyaYk5yE4kjqenlVAcfqJ3Jf3fwCYaNUxOfZBpyR8z29kwgDZVdCCtTwQZjikeLuIovg8dcHR8qBBRVVtn9XlH2ef1eKptNFpPVJMjZbpc7yy3IAcETIU4bAq8ajBC3yRGBGJuDivBZj+ZkK+hoVHcsBZXkINK2lA8VY95Ho7rEg/a+M9tFbTRaECkZWj506JAyXAdEI/eTrx+ddX396lWTrvnxwQ3draTix78YPG7iz5ZOerz7ZWlvds5Fl3YfeuZX3d2PzC15fOjgcZ/88sN/F+UyW/xBFBz2b6yZ4ZixdpOlXFVVFBBE1mUmLdcMqsJk3KU7y5TpwoVhU9hKTX6rqNEeDZzqAC0l17Za7Xvz/VSHpvXEyMaMn+oAy4iLU6Mg1QUTeR/wwXDiaC//UbjZwpoZs5KKfNu5VJLQCEyzUjyDlQ5D6RhrFMM9KOafvl+Inf6TcKO09/Huqse6rY8z3mxH3mxA3mjwKudNHufN7QrpYQ+y5r4wWnOU+s3/N/kRNxtWekp9dZ/FDdOI2d/JjaNo1xiMaDiDE7s5J77FAue3ObBdeOv0BzTRVcNaP/zxrsuQ0odxJOcxuSDjWdv3gBVFwJ2VXSYKuZppm+mwiZokSs0qSvwZA1rNGNBqekDvrFXDiiLjOoI3HJEv42bWcllnrZbZb9yyWctlwpotNzRbiZWa0ww1pxlqNhi6u9YcTlmPaEwiUd+DsWqKsRnj3J0Ss7CVhK011kbrCqs4ot6LtmKP2dgz7huMGOQug3xhXtFQzAc/wUlOMCGH41a2RUNwolMlypld1TvLlbJlMboowoefoqeeeqpLlvZ2/ZLOOjWetndNxNY8iUK3HnkukBpugdN0+4U0QpUUIwRERllTBtTXPQyHNI5JJYuhDAVEepJ+Y/QHT5rCd9UyOabMmG4fdh43qttLywx/wCDD79vP8KMFhp+Ta/hev2GEF1n1srC0WXpCEoQwzkW341o9AWIxrqBqcGFxHCRnGCM3g8CT864Hb6rPPkv32efpPjsZ1w3ziffZg+Lr9RmKeMzsurZmtJEa6ptWVnb1GB/MtOfTYo/l0Y6CT1N7Joz7Tz7F7Ajk8xaU7alMtul0Pq5zhbzyClUb3sc0RB5qmmCaKdwk/FlQ1preEN5A9c0mGz7t9JVuFVukHeKnqmQSyRDxdZFqTHI1Z6RMCDOAJkG7pcLJYtsxrKZ8kfk53D/Q7nSz+LfjY3xYZ0HBearm850nFnm9o2fgMkMzaapJEkQxLJlckoQhHDkyGpHsjrxERYIigPJlEqgZVxWddHjcjqufbVJCOiAdkUTpQpXFmQcpJIxGYUIRlE56U/t3jiS0Oczh762pUyPny14FvZ0ZnLHeObGroekYWp7H2F5nJRsmlZXM4RhgVqeNWZ0Smp0iIoqqV6qVaGN60cYM9NqYe3Cd8Jdh9ca+BAscb7c4GGuPxz2IyLrNUabqNr1MY5hJR9GD9K+/egUApSTu0PKQx/19FSJzeYEKFL63d7kRdVfIrAvMzgo1z1Uhxl0VrEt2FiCaXZFhvdazkknTyoYYMDM3gEXKsihgV/BRLp4xykudFY7SlKyRCME/xbHlKfoXonTdTX+YhK6Tx3HA96N/7vr16bvoh592i8j3uwBkO8qiLhhjXi0yG8OWIrKHjVRjq2cPU6aGKlNtVgdfzOB4QURiuzN9GWZxss+S3SJoQKiqmW2gatRkllnfmnXWn2bsxl0slVkHtr2T6vWv0r1+uuOMXSK2pVN14IB++PABtgaNpRgM6V2jkMKHqMyhwKHIocShymQlyjDK5zVBZhJEbb0rLxOHSnphpjK1HGJYoUQsYZOzzM6BhHYssaElgiPaxBrOSuMIL2QfrQUn6LQ2bk1NoHJayfNigbC2nCg+wY02FEijMQ0Z+gJSGwHrgNpVFw2o4lrLTZbnkZWWCywX2IV+YoG1v61OuFhca73KttGqmqmkVliH2ibTamGsElcnWkfbTHfRu4UtyhZ1u/ArRXZSu802SKI4jKlqsVoHSSqiqmWqfSqJ41JPVTVc8FqtNpvO+qnR2eykzr10OyrlwW1SWO0kg3daNFN6UZxa+ca1WlM4bllnJua92GwbMWNa2omencAoE864vZPBSWNW3l0LYfsKneidtHZ3WGqUmiXUw3R7u4PNdj62mdpQ6e1isxtfL2LInxE82sBkvNI4v0i9flxVshG98Qd8GYne4EHQs1ys+w1YcHpRk68DTb7Ol4nVCQt+65s5zK3Jr1ptJvaR/zDVmnxtV6TC1j9SYe1EtLzCVlLO0Z0DMHZAaljW43oTxyJqfzY2A3Er04YS+9E8tacWluw1dD7a2J6h5SSCky6JEsddJJ9cPMjtG0LmEGlfd+0T3XXS3m++/PH5NfcKp0+NF1/6Zoh45BumDe/DGSLELD9K+agUvOmNDTX5scHUtlqnOW1+qF6LG1f2bPWZQk7Eow7H6BmqhUNc/4cVFZW4ShVBUDWRUk1RRQENp296DCchw3AS0vE7a4WwLEvpSVLqMZwkY6yjPRP38wHXEDaTsLnG3GheYW42S2Y10wpN2aVhw2KyIsnfzxoVzzaaeqzRjDk51hCr5PLS0HTi21aSs4Ltt1VsFLmwpLW6kDyyG5W5GkYATHOjZmFLIZSEDjU+vgJZeGDX+Ao1XmKgJRUK6nK25N7lQ7TEQFlslKNxc7RCsbnQZbHwiV1ZiOYYaA6i2Qz9qrVHuZOMUW8IkkVQgSjfVuoVhj4nzHAjjvueE+je5053o9SsF9ehxDR/02ysesUulBYreMlAw6JY4FjiotV6teti/WKXaLbkoioAj9dYMzjPMJidGf3uTO9nt9c6C9V9OICN3W1brWpiXaPqKbV6Iu5kPaL6w36Cf36vNT3DW9Pdbu1ZfFj/u4uPs5divsy1cNoonqQ3GWbxRGM5nF6LcaO4AXA9a7PwRYjNxhYh3nMvQko8uRTXtJGIA/GeBS3td8fEpXfUf979Qvcmcu3++xsuGnxj983SXptzwa4r9nV3dT0mkFvXzb4h28r2HR7A8fo49oAX8ug63gMRp9lGnEODs0KXqVeERI1vHKscKhzmo1hxy8bKzjsYYkkj5jTi7Ey+1+70l6F/vD2vT5mDhXP6lOkp357y8ftf2nMKje+YXk/57Hv8AkQKbBcGLwxPM88OXhFcqV1lu9q+wbTJ/jPrI/ZO+8e2j+w6Tolhh93lcNgddovmDNCI322SnQ7dapG8mub2+H25nt8mD2TslRwwVkweD0TyuFx5vXa7Tc09Q7hyM4Qrt3c1lltou09OnxjJaUngyzAfX5DJjEVyQzh/RX5zvpCf502LlzctXt4e8fJ+X/GSv1ObRJkhefbaNrXq8h31pvZbjIN0LmVoa2KgotjJ9vM9FRttA2MSWpVM8mKZD6TWDHGTGrdX2PXhDudwNuhJE591bKg7/L4KB2oXJzpbPFiho0mo54XQ9aiL+kCb5vN0CiVx81KfD4gd9QTJ4ztsKXk21nkVKZF2u9mJo9vj9mRFhYEUJTrKpZuJdzTyAG155uVrXnx1Yt8ZFyVPPDVj2cwBkep3yQMbtkz62UPdg6S9k5+/+r7XcwryJ63pbiKDb7x1mFnpWiOUll89YSE7qRmE+mYv28cnHj47yenOUdKInF4nKv/lOlFOrxOV/2KdiD0t0VxRYJsesiRqnXRVe9jYlt4thwktFoiA+E6SWpl/HDdziVBT4vBleh3xXlouTqfloNuw0liJ6q67Mzfd0DbByeRow4c6P+utSi24exd5HaDK/Ci6banAe6KETf0Rdg7NzqCzunPElu6AZH388VP/ZHs6GmqK8cg7E5ohjHdS/xSnZG8KEREZFUpN9pn7Gqd6cMg4WVTO2O/4Ms1WIT1OqK2nB7Tkp4Y+50lTOBp2Lqv1t6lyP0xHkvzUXiZNIyZ/2gZhyVJnMCQ/vTOASMZyIe5k+z58tsFlo6ZKhErFbx3U3zroKC0FY25jB7X5xRIpgr5CganYMsjSaLlZvVnbbDlgOW4xhy01FipSs0qNSXu3RixmvqSuquJHBpjbpGlhVXKpqoQL8jCVXJRKGlb1SdiEJu0ClSygKl/w962oUUmzulnFMCFxK433rZhDye10K6WUxTjCUo1EB6FxuhlXssclCQ3UTe3mxu2GgdrETvOY87IDMdQEft8xb9W37tCkzitcvUZmG9hxlfCPNs1JmIeGPa4Z+FErN0n7YuqhU5gtCvxfpOXntThx1ZPYtx+mRgK7JFyBpM0DttSLkFLDxCwldFTX86+QHwwM5Q0gtz7b9RTaCH9uXnHVVWI/tueQfLd7EQri30GAfsYZIalidwvAJ44ZxU8r0/cKAq3ArhSw0gWU4ZD4SPeiH/4Q57gLkx+LQXEk9IVyIY+X0V+zakU+q7+on7WoCNci2eWB4UUXFDVYG4oWWxcVNQ5qsd7U7x73vf5HrNl900cjffj9AIb90rej7y7fvr7P+A71fSX7rb7qWDfJZaaFgw1Lp7P3ZGwImxgmMyzkCXlj/YvKKsSK/heI5/evVetjl6mLYmstGy0vWL62fh1zlJfZiKgX55d5SiIu75x+y/vRfsFiW5XtdttWW9ImbbU9YfvCJtj2pY8Id9faLKmbMZ+m78qciLt0XZ5hszDFYJPZCbCtMDUQbF4u8ztrbbag4OmkO9q9xiBmc1F/k2n0DO+drmBQgZ62wLg+ppKgYO43V58LOD9mrpG+yhjVp1PmlrkWZK6jCiL5zPRmRDHEML3zRabI8tk9HrOZIyc4ZxH5G9N5iHGC89MaLr+TXhy39YlDoV4YLhxU+EShVMGsD5uNzijsTL5uIPtQqaRsv8LBFdxOz42WDao4UEG3VZAKD1azmxXuUdPrQE+BN684fQJfnD6lLzY0T9xRW5z/pHxIpiG5SqayK63nXKkMcqqcgbWyjZsB/IKI7OXzv4W1TOb2oGzjtgA/f5cHD+vdGmWH6mxePoEALf8YvwdxLD2H8xVBLPbBB+zM6mis6hgGj/JJsjdzE4YdfIGQOuDmpjnbaYGmwG4QYjGLxdavUxjATMhgH5NQwnHB7PV4gi5+MwK7mSn94lKcg9nWfgVa6vzUvkCWo3mFQ8qGDi3n75CyPuycS+kzkrLrEx53drbL7YkWCrJiQ/uTnX1hIqFy/p7FT+yfsOr8IUvevJyUjtu07uqchHfZ4Zs37ajRNU/e/qDn0meWzy65YtHCBwtzbpgx/tENk9ZPctms/vwC07IB59U3eZtuqY7PvXDgVce/2XDeMPJW36Ded2Lx+Y0XTz7vSmar3oTjmK0tdcihTj6OryWSxZ4vDZHGSVJVKBGioVBesDQ4OrgitDkkD8+qdFf6L3Jf5G9QG6x19gb3Jf7F6lLrQvsy9zL/gdAbljc9b/rey/rM85nv/ZwjoWTIF5aK7cWuQVKVPS5dZK+RLpPezPmXeEq36Nk2UaYQCMoKMWUHbWYvjoaveiYlb8Y1G296Lovn1XrzD5uJbo7j4rLZLBqncmY+Zs3e1K7SybTlfJyPBXP6EpGZXfBgosNi2PhBbDVx0JQQOgwh3FXrKAVn+tBfNO6SZCFmrEK5dVAqpCVcSF028dUKBZQeIGQz2UYS5DgRQ6SKTCYCYSYFG7SInI7nsOFFuHQTvq9MnEy6CZduwvaI2LDiSd2MZOJl9BIXq5X4cieUZ5qmXHBXVk5kK1wedxSFv+vMAcEkHv8cFXyShQacVFaiQHcQk27LRqndudRmFuUAv+IjK/wKZFWsIm26RFGCh5aW4KJIh2heH8HlYbLJDMc8mQz4VcfK1kufaIp3f/mb/Uto2Ywfr33sF2vWPibt7frX7ZNvf3FV9xfdr/+cbHlyxi0HXzr87EGcS2qSHwvHcN7w07lM2vbj0uF42nwwpa9waGnEnkb0NMK6KNOyKLOtsxM7U581sALnM9EZNCveoGgmtmxFZbxWOK8VC+O1ojNeK3zUH3ztWX6ArT/TUMIcM0AmaBYSCo7JGuOZljXN05jV6LmX3ivcY31Yf9hvUa0+02K6SFgsrbGssDZbf2nZqe0y7bRY3JabLO9TwZY3x77cvs4u2AlOA/HCQfy8oRHJ2gzb4AgcR3PPbmf/rlSaxiCSzi+GpcXc3iPm9lp7vk3l801eAPhe2omMueHznmSQb46FCEGLh8RtMc4jtGisKSTFNTLU0MJhjOJyFudCdj4XLT8XrQuC2WnlnZ0W7eyU8o7UZucfUkhIqVKoYmMFKCZWgMJnZcZgw2a3pIaPMjhQ9kyP4WyIYcYh1srUP76+By0RNHTw68oT7JraSt4fqJRRdeoNR/GPyWsTCmx9z9UodrfAiTOEU/RyiRXNZidXvWal50Q1424Bal1wlPE7aqmrBYZyFSpbc7749Zvd/175yc2P/y30hG/drE07Hr5x8W1kg2f3IZJDTI8Ruv6JBwJLlj796utPMYtnPEruO6gpHagps7imvM5ERWuBtcw61ioNcQ0JzqTTTVNd04KX0/nSAm2eqzF4IPSa9Kest3wfZH3g+sLzd98HXCO6Q6GYn6nRaj/TqcpAtKoHuofTIdZqOs463nVBcKap1nq59QP5I/cpcsKmk2w04HU7akqz4gBUlTjnoEBkqsqee1DeUgL7ei1/KHDYz9Cq9nOKW36tvUDXDzuI7og7Gh3NDtSrbKgY2tXhZOrLwS0YpmcdMhtYDq5tHXwTkMmEw8ZkwpHeB3ek97sd+9LUoWJd7UxLmTMtZU5DynbVOvMVPb121A2lOqL2SeWQ8o6SVEQmfZMVQcnlQ5gbBkquMbS5RHLjTPFzifTlltVk6El2947vCvWoRh5ZqXPB7IpVHjXUZCVzvYqS7e0GWoVs4367gCrFBiazoSnNit3QlOymO78SERnCpnic4w1pY8curl5dKQxb8My6P61Z/NoNjVuK27vCj61Z+4vt1171wE333/rNQ1uJ0DJlFLWdGk+dL7/4u2fffPkZNjdX49yci7oyGyXOzSXOE4JgNp0hNEgN2gzzAmGJtFxbYFazjVvcnOdH41MZlhNksI/zDemU66RfHOwc7hscHOWc6B8VnOKc7ZsanOu8wj83eJV8VfZJetKrg5vYrR5PjbvRvcItuIP2zfo2neq6GAiaFNhLd7Cxmp7FDsR5V+uoc+7MQj3GLtEc/89XYttrPXErmqR8tW01TldlhnzKhcXKCtX6FJUlrMTqD7GTyYLCMubvZmZniITc+9IG8a5ad2nPfNB73UZNz9N6vhLPLypLy0tazFJqKh6rZcdEPSIU5CJkKLUgFx5+EM9E6MyptiHGt4GOYhyK08kmFpfaajzGDn6PctXVUNnVVMkXpM70tU5+ZheI5wCfoppxNpAGpZADcJj9K3Gi7mYyZl2qgz5Ip1mCbhKzUurNFODqzaSkr07NuaShOOYoLW5oylBxOpSWgMOlRNxM5EikkJuXwiV7+3++55PuL4jrb38iNnL6Y1Pbhnm3dr1Jp1iG1d583SOk1vNQBwmhjWIhfbvf7v5aDz+xdyG586YxC3/J9ieyUAybpVfBQy4xdpJdGrH7in2DfHHfCt+9lvusj1hVv7WvNeE74BN9rBND/lBZjmoVLPagiWTTmCtLFGQwbXURVzLL6KzdtVlxsff6WVoheFL3pMy4lBBBoHcQfkDQPnhYGT8oiAVDZZuB+OJMBfniVlRB4OKbOn35pk4eU0rQP7Wd82Vqm8+V2ub7lNtV/JiR3+DtTJ7azVdjD3l9+8leiMBJYgJvLHYyU0ewbb8TlXolVxTHYsca2K5PJbvpc6yC3dsdczUuDR2ypsgqrmp0zRkAh2wPkBiJFa1fT2KoQlYGdoLJncW2hQZ0LBVkk53v1JmI0aGlJcbpUHRI6ZCy8qGoO3CiYvNUdml21NG2dWuW/4a1F80ODCuZOvbQIeGeW5uWlI2f6fy5aXzjpbeevoz10kYAgd2acpEXjNsxbuRatoedUh+J8/VSgThEGCfstYo8KtvjK/OoDovDJUgE7EFJcZlNljNmCUvGGLakZ4x4n1pLgRYvHVqW1MgBjbj5FOGO8wtxfTl0sT7Q2OLUwa/GcZNZ87N0GrtJwScKja+mNbbjyk1wdpmOh0/u4mexk9ysuz1lQ8sS7uNuusK9zZ1wJ92im7rSsuJKj2pXWoxcBcZxko7kHWf/AHUY2C/kRH6AkNoMPhX3cBkR03dwMg6VThnmNlAuFJQb+ZOyJ9R4My2Xplj6Ak5TLMMGz7hnX2mY2hXEaUiHTbYpBTbZEiBWFeUC2FnPeoixy96BXezfDBUklIdBHUsldlfXML3TV0T4zfpsR9TBZxA527Gx4/oDa39d3bFmSc2PKtHI/vKOhofv65pDH9h47bTbftC1D+eMTex/SWe3dkChJuPeTvrIVkgjvTebERnlS22yns7YhujFpQxcTOMdtdScXv2kETmNKIj0FNqVYbN2ZVzh7sq4wt2VNl2omOpdIY3IaURBJINSa892cC8uZeBiz+ZJea02lPXzZG2ztk1LaAe0d7TjmgJaSFuhNWtbU1FHtKRmCmloRisiFTRZ2Jc8kCqhqFa4noAsyaJJVgokELeK28SEeEA8IsoHxOMiBTEsHsaQKBqrNzpD7BE1kYuaaGIkiFwViWlVJKZ3mkW21jMxsRMnqd8WuJWV/GcCKFYx42Y0/7kaaVjZFPuuJ7BbNEky+y0Q//GO8Sst9mM2FKlNHR0d4t8PHfomWyz85k0cJigvwlfs9pHgNM6W2QZxVmqD+Bx7yZy5PdZlz+QqpxEppcSDtbJhkMm18ixNsFv/KZ2UBc3C2COnT7RMaURLI+zUOs5PxGYIV5qoUw5n8YtLx9udfco0tp5H3ynxiAiPiN+IMbIoSqJcrk0QpQJ5gKnOdKWwxvSm8L6s/FImUblQKVAr5GFalXWytV6sl+uUeu0H4tXS3dqz8ivi6/JR+RPl3/LXarbTZJIEQaTs6pOmYkBT1QLjwpMgigXGJSgTiofIdp5FSVZU1CJgEjuJPa5JIt+kzFNZKDvMV0t8o0rxb0azpve2U1qLmS2pnwaYC4D2bNGnv9Kee8O0gBCc+apgMo5wFJv4YK7G+B0aMC6ncQljmxaotviqDPjiEXwW67uRCZfhvDap5zyrqXKinprQ2GXuppPsXjeuwHqOtNAI9lSw3WwxfUWK3ZVSdLVSrRQ4TN24sVZrJKTdKFDNa2VH57hSQ+Hk51ta/5wKTc3JqWR3m9py2BWn19rC3GuNGCdZ9fzuRBOk/i1wOXmgLcIP2NvczHu7TecXo9DjIQv3Ws3puxdsTciqcr4lEtXlxtpcrkoO2Blim5dl/qw1YCQnDfXGhh5iqaHDD9rtJhztIogqqmJRNlQwO4/wVKTvTpUSEiUKjhyy45PuxeTJt7sfWCftPb2fJLrXds2noWu62e/2bkC9W85vS64/W+v2HGSdQ8d+S5f2JD2H5vyWhswo9Sx9uLtW4mqP34ssH2bcjywbYviDBht+nnF/Ml6AtoJdCklbpXckcTKC45IQklZIzVJSEpElJioYkysriU+y2WirbAVyAI6z/+6hd6b9qnemzcmYaQ3hNCwxNWWGpU/Zksn0uVtKCcIk8UwlyLQg28BN3ankobN0XjuYjM5LddsNHfx6pWEdyYW4iooKy/mvjO6ArAxlpp9x36EXd2TgORkcDmbggQzcn4HnZPxyKZiBBzJwfwZuyTjYs2bgtgzcnoEz+tO4noE7M3BHBp6VYdhlGnnODNyRgVtRGafuv51I/+TyL/GJZmtZgXhUPKq96/kgLP1JOhmmHjUc1byBsCYI0dygnB3ELlaIHPX7dNPhArK5YFsBLfB4/LaCzQ7iEPkugpfvIPDzC76L4GIi4mB638PExEH5XoKF7yXwkwtH+gpI745CJ2lo96pnXQJIbdVaa70FmwMkwGsK9NQU4DUF2AVFB6spwE2/AN/JCjCtyo3RgIXVGUiflgSwql1AS6PpSqJp9RxNqWdXbbSAHAbCNvloCJiSFriS/j91XQ2UE1WWfu9VJal6VUlVKkmlKkk36XQ6CR0E7G7oTYt2wYKgKC3C9NrYrYyCbjeN/IowoMIsiP8/uB51588fVmecOctPN9LquLIc9Yx/O+yO7hxnF3GPyHBGmcOZZT3ruuned18l6Wpk+kDlppNOJ6++uve797v3dd23nDTXMZBZYZz/V81IzjlRTj1d+Idcv51tGsGbhxrgUhh33ZVyL89DPUVg3uzqrQmXF81bOffUuvVuy2sn+HsdJnWAQlSJqRqN5KJqOImNYKxKTKv56p+lFg7VaYK5SuxXYoy2vjyoBGTBX8/Mg4N+V/xogf6D6nUYm8mLIXBwiSxPbbyU9tmWFwY2PTnprnd//NJQY+9la/92+LoVV+3oEHNPLLrxpute3fdyOU9+NHhjxxN7y0+Sg5s3X/N3j5U/rmY9p9h1beJTPDeN+AR/hPxUH9E/E34fOSt8FfGLwA8yDLdbdPyUfsz61BqzxLQUDUVNg2U92G8GKexpPiH1CXmu/FAt9Ul1h7IWz3QsnvUoPN9ReL6j1PIdhfs7JcOfwSUGLj/wfIfd/7oiOdCKFvGV2zel8JRKweyfssgC/5qA3Mc6a5G11jPWfuuIJVoCaY2ZVeyZVTSaVd5lcg/91XA4XOmOvmDKQ89LecKelEes+OMjjnF+CrUorn/V5yGcbhJ0jqdBEx5gXwBFd5+Jzs4z43mQ6Q/LVKIBKvj1XNgfSmKNGhXYwbTROiAPSUcOUpOBS/AZHFI+F1IeOFXUMg+Wdj93+/Hlz16j0+HmVQs2vCjmntw3b+3VLXeWN5B7bls9e8/75V+yIDV37LSYZ2gJIhuPAV5ejlnwgSOgRIOhgQdaCZbNHzAC1Fbn+xdI3f4e6VZ/vyS16R1GhznDmqcvNBaa86xeX698rd5n9JnXWqt9q+UV+mpjtbnCugPHZL8veL2w1LeUXq8OCit9K+mgSuMpMRBmHjI62xt0op56bLQ2QK53R7NJXntNcrgFagPJAV51rQgZVYGLG5xugwEnlRuVbuYjTijb1DadJZgBPZAOCIGauAul+hPMU/KuCCi0MTtUBVmoiq1QRQaYza4BpIag1mJwr8Y1FZTioOIVtIrz4s4bBv3Z0WG/GrwiQVWZYHyIXa0UftHFCSi2VWbXvUjS1xX7GD3tm4iv6jg7FGiBAcpLfEvkm3w3ySLQPO6oDihht06riHF3aD3gGVpvZzhCsSivnUU8Vdq5e+9769+xufWLB06Mnnnl4O57Dg7t2n2QRHD+4U2j/1n+4Ivv43ocfP+99//lrffeZR9p92i/2MBQZaB6/BH3QhtV/SL9Un2hLnam96fJpPRktbGuJdZSN6dubfrRtNQR70heGb8y2SNdr/bGe5MD0iq1X18dX5U8kv5N9Lh1PPGb+pPRk/WfpsfSZqNY1IuxGWKHfrl4pb5M/1z5om5UV8IhwUyBaOo3UyEFhewJgLI9gLJrgEp129ljFOvUocvpdiqmOazSHGIsDTvlKAAualXu/281P6s1t7sCKoWrRONt7htxpJW0jpfzqy6pUtd37G6jCaEL66FVGVT3yKD6BBn0q/NlUN76wWIVl0EnzW+38AQdtCaDFs+d/LYCyiXQcGmiAIpC4RDUXQ8PhhTmcvypEeGiWhTjhRjASjWGmbEo7HCQy4cFD2B27+3Y89f3Hhu4/cTWZY9MDb+wafPPX9y44cBov+/1+xcvfnDsqedHv3ngqo7yN8LeD95876P33v0t86u7ECJvM9SEcYBj5pJpEayLuFFsE/9SXCLeIm4U/XJYkiU5GAnLQSRIWOGnG1G58KiEpUw6giMkc/5+EcyobSXx56thNY7+P07YExr8/CqewErcgpjfk00uMua/eaGC2Em979x6GPuDVYbpbV6rQPo7u0O8F79vPe5LHgbawNiCMiLM9LAFL1NwS58B5tV3PXdZf+f1N1w2Z84lN0Trxdyz6xZ0vJif37l8fflDiP6dY6eFA2wNp4v1PN+qlZNrbNCGSkY7vwwKnksi77FzHrvJY2c9dqPHznjsBo+drtGEbd1iJprpkK+U52a7Mysz2+SH5Z3ZFyI/n3JUCMrxhBWfvnDKv8V9SfIdQvQWTK1eqVfupb1Kr9obHJAG5AE6oAyoA8Hh3HBey+ey+ezkmdlltEdZkVtR2Ni4Mbs9+zj9obqn8OSUJ6bvpT9Tn8/vLQzl3sqZhSpdz1SNxqqRrRoFt9BSeQ4YjVUjWzXqoIPdqC8tk/JNKhUT6VxMVKbWJUDUzthTuCxod9pd9o32PvvXtl+zJ9lr7BO2OMl+xCb26wxGMYZwrhg5UXi6DhMmOj6GCcI6hsH4I0NRs40rSTA2hfHU3rrBOlKXigVEt4GJF9FOVQtlp5wIYFFMTVUmJXAiazsRq60FfryFiwGWewRvYvP9Zew0/KSdhp+yeQ3G5rIOPDpbdn0juX68XXKoO5Bthq20UqVjzbgZfjW8THO1K5kb8DLNUL6DV2p+rXrSh7qbE/y9NOSb25a3HGkhnS3bW0gLyGNZZLn8n18+afc0ML8LBrxDMA7Dm0xXYqzZnc5q3BVq/INoaXi+BmQtCm9E4+NKGq+tae42FE64W8ucqJaH7IsrulXfuqvPeWImiyTFM+sXVVujisV1oF55koYzIL+z284z63hfFOTZzJXyG7czqtIYxdick7+ovtEXnZIL64Ye0QV/JphOIrkQSGLfRexQH2V3G0KNSZRpDKrSZJrEhbxM/UUxiSbpdcD7ilBqcg883Wgu7tixA3n8OdQ4+8a/gd30A2Fcp+RydVNF7rmnKnYiEavjET423nwVhsYrtwkg0m667jqfy08lM9pmtrvuvNYOAGPsvOmft2h1HtTu27pt84ymx99+umv2XzQ/tuTO15eF96sb+rcNmOa05M43nuzuf/vOX3+ML02tWr9y7qWNVlPLFTsWzd9SmFRcsPVW69rea9sbU3URmm2dva132U/+6hfMW2XH/kSafU+jOL6N1yDSE3J+ZUJj77gd8Nh+j01h9jUH1c8jTpYZ222MsBqkWECmLhc1yniBoGh6BmVw8AIBujK6lWEBWsVjAWmePG95YG1ge+DRgIgYQXwmsD9wJHAs4A9A/IdoEXDjPzf+xBsEK0NyFYMrqW7W4VJPoBNQ/K0wUJdiB14lA8jCMw/ccl55h++e5QorJ8/N4ko87EsHE4yt+jueJvrkAcHkW0oICotvQosjD2IaDIZDVObBm/oBAq0tLdMqVK8p7oryIK+F28MgqUUBD0RPXDXrpsEpO3cOHToUKRbqn/2JftnK58jND+LA4OhDD5Yfv3pKAuLM37A486mYY2/7sKutJUCojsXbSDpiwkjFWcc2om3FCM5KEVPFERP+gFiYrT9qNSfklaaHo5mevNJssuKQACZ4dhnneWXcgDWO15o84zxGx2sZZZxnlPGaghbnRYs4ZJRBWPKxOD4Sx/FFCYCICclk4myCrE08k9ifGEuI0MvkgkKtgkJ1mcMQKHw14gCbV6XlY/KnsihXiYNcIw4VcY9ySQ9+NecLMs8mZS6gyYvsCaW8ikr27bTRJRG8U22WSx64m0mIeiioBYnf3cuCpY6imkRBKZxEkDg2N+9gbK7I++4Z+MO8ICEopp/DoLPawub2ZeQZCFrD7GoHbzATbKFz20c3PN+lK8NK+LbFix++ZPiHwwtWd83YQPaUhx66eP7iJY/cS0pcJUmAwspQQMnNbteap7fe01KPLtxST8xasRZ5WIM03vlG9IldbXGfhKjkx/5au3yWD9xNK3q75nnT/OEZPowy4RKFqB0Ml2TTSLVJcCAsVA2xW1y5pVDFk+sb2lCBHTiTlzNNbchkB3bvd85dhaltKM0OmjoZFeQcLaEZdAGaT7txN+mRrpNvwbeQfqlf3ozuwHeQLdJm+Q66G+8m9wj3Be6V7pd/hJ6SH6O/QM/R19HhwAH6DnqL/g59RL9En9Fv0Dk6hX0caiGTFlCOttMu5FDZ5xhmm4/BuK2iKcgwK+AHsgtw1wBHFPF4B2vBh814cZKtCv8u8flUBVp5jxfZ2rD/HxQ/KKJptaGCdhqQpCaZRmWZIoEQxoyjGLM3QhHMsxOC/QEqCwj7pqlYzUiO48jbZSKP4OQhx7fdR3zMcuQ0cXBG+cO/ApzPJOxyX7kvYZ052ee2epRq2km4NHEStYfR30ob8fiXt6kf+vj5ufb28Uegjz/SivE/jA7+48mmSVbxy1dGbxNz5Z23rlm6idzLUdkwulj4I0NlgrzFObBm1dTxWidftWBUNTSxOt5hVIsAkOlXHg1WDbX2/FoRoGoEqwa4jOpL1a4GcCheJNfRqCYoQsrWDL/ijziGllYcNa1xxqbZ04qJ4wnrg4Stww1PIDjHSA5pKawBpDekSoVot7aPCk7Q0YiWLkxv0+EQUGXDDFpGXsmr+eBMdWZwRujpsFIwCpEFZo/RE+mJ9Rv9kf7YFv+m4Jbw96Lfi+0K3h9+0Hgwcl/0KfpT5Zf6a+FXo3+gv4/+d7Csfx0dS9UbESsUmvOdChLNiJJKitpcbacmaHbtQ7hpjlHqq8ydtGuaqocNg6HLjkYiTQaNsjuaqoXVJoUyAkwjML6g+OEFUEpPkWmpN1IkNUI6D2lsRZzoCFnqKJ2GY5AbjTcMYozgOS9rOIPmJSk8xNfMSavT1S5VuEYdUwk7AXOGpmlshUjncDK9jQVUtoRl2GaLgRLGpC393Ekbdp07k7D0M9xi+DrjohQQKnmlPcQ+ye6QPmuW9ObC/aElC/db41MrrzGucppxlNMYtgMsuvreKyg69snL7SWaaS+FmCc5FCuFKwNqPeDZYYMC3HfeX/9FLH7bAmxNQgdtTaOUryZHvVuXybt97+0wwlK9Alg2yPz33dFLpsxaEA/nfMro6qPHi5lJxc+GRwdnZ6dv624bvfVneiGbXKXViYXy07fv2LaJrPrmV/vm9CyBCF5gvvtDdpWE8B/5VYK/PT3thLqNEfKORAzcYsRBb/5nR2YGvqyeq89HnSuZMZkU5Gl6CZfoFfhycrl0hdyl9+KlZKm0TL5GH8Q3k5tZ/rYVb5S2yg/gXdJ98tf4HEnaUg5PlopySfp76bc4oENPmx5rI1OMEouaHzqNjFiTDpkSidImTJhvIhg2cSPf9RXZZ6ffZRcpeD0Z4mywGKJkBGvDkhTw+V9jKQxiNJGl6rwKmAk+E8Io5ISWh7aHzoZ8fHQlCw+FNiJ6F8b7EO5Ca9AYEpDF63W2pm9s2PamqzG4wrBeBuNkkfc96WVICmbpnzNG9jnvjKx4Nz30ZmX7hQpJZ6A4NBnnJMju3NWTYC3ZvaOHYRVhKfkT8boe3MchJI19clCDRajcnD6cLMmSmbwUdP2D8RKnGtQskSj7nzBrW2HwEekhipHKIv6hQfCePp4B+F36B2UFvmUp9jfC5B0OzGxtiBXI3g3XjXYJK8r/tGbLAP5ijyD599xRvmGr/IOxMbfX0neU5NACBpoAegj9F1vapBMinzacbSANFC0oEtzwCsmgycA9+mYAtj4RXyJdvqNsOTe57BCP/WoobkPoPQK3IGY7OWbcjbeTE1hYI9yN7haENWgNJl34GkIQ7BJMhN1YxCNk+UEWSUfIkkPIFj9+kSdxV5fPsTNQ7uMzzH28Dpo8iLaPb/MaaRU+2fXlf4gvYWv0NEL/D30gkJUKZW5kc3RyZWFtCmVuZG9iagoKMTYgMCBvYmoKPDwKL0ZpbHRlciAvRmxhdGVEZWNvZGUKL0xlbmd0aCAzNjAKPj4Kc3RyZWFtCnicXZLLaoQwFIb3PkWW08Wg0agdEGGu4KIXOu0DOMlxKtQYorPw7Rvz2xmooPAl+Q9fjifcV4dKtyML320vzzSyptXK0tDfrCR2oWurAx4z1cpxIf+VXW2C0IXP0zBSV+mmD4qCsfDD7Q6jndhqq/oLPQXhm1VkW31lq6/92fH5ZswPdaRHFgVlyRQ1rtJLbV7rjljoY+tKuf12nNYu8zjxORlisWcOG9krGkwtydb6SkERuadkxck9ZUBa/dvnS+zSyO/a+uOJOx5FcVR6ykCJp5h7So4g4Ulw0BG085SgSooqSQqKQTlIgDagzJOIQSdPeeTpuPHqi+ND+XHFrT8X7SGbQx1CHM4xvDi8ONQT6MXLJWEilrvusIia4hmyEEpQUxzgvPQB8QztEIgLxDPEBZRSSGRQSpfmIJ6jRyly6QGLfw3AjeffOI/bfUbkzVo3Hn4m/VzME9Fquo+t6c2cmt9fv+fBZgplbmRzdHJlYW0KZW5kb2JqCgoyMCAwIG9iago8PAovTGVuZ3RoMSAyNjg4OAovRmlsdGVyIC9GbGF0ZURlY29kZQovTGVuZ3RoIDE0OTcxCj4+CnN0cmVhbQp4nO28B3hcxfU3fGbuvXu3N21T3ZXW6pYlSyvLRbaubFkYFGO5YCSDQK7YFFtutATbVINNMSR0iAUEcGheSwYk2wQBaSQhmEBoKTjBhBL82iRgCFi7329mVy5E4cs/7/t9z/N9T2Y1v5k7c87MmTNnzszclUSMiNwAlWjG7Mrq5d5n7yVifSjtnNs0vW2u1rWeaEQTked7Cy+Y36XVaZuJeAj13QsvXBNJvvD4SUSuM4n0ziVd51ywq9jzEJElh8g06Zz5q7vIQxa0Zxe9nHP+JUuWLF31GtFJe4nyxy5ddMHF82asu58osIfIce3SxfMX/fXW8x4E/QbQj1mKAu86y+l4Rvs0YukFay7e8oQD9MqbkGHs+SsWzp9b0vod5CEvy7tg/sVd5o2mM5BH/xRZPv+CxQ0b2w9AFjd47F0rVq9JltEbqK8X9V2rFncpM8Y8QVSL9jyfoUwhM3GyEksmkRe6uZH/hurpe2RCuZsqaS5G2sKfJw3PCsmQLBZtDhPAr09KnEpT3PTll19e6pYlJ4QbZYlOdFZTyxtnu+o/M2eaZcX979bnivT1q97L/vLLI4NuMq8CreVoC4ryGt8DKczaXVoNGs5OpcortIR7zRq36SoXQZWjOi7MmT4lQuLzofZqYiar0SexHkMMOAkjKNJ2Cc2QH8jTnL60JnywkeuR5kEPCjlBNYqm0Ml0KrXSHDqbFtMyWkuXUDd9KNo6Wt+Srl9I59D5sv4DdPbuv/gspH/W0vFBjGcldQn7+L/9nPZvf/527MPGsDE8m5+srFZX4fN26qMVDvtp0FaKj8ll2qjfoN9g/rb5K8u35OcK65nWV2wn235mn2bf5exwHnDNT33ckX/z0+w+7z/83AOLP06JfNw36PMbAvi++59x/uug/Yzm/4u+rk/X36m+S/eaHqGbkb9Dls2lW4+nRf3If7c/dXXyAH+Eyo4902ngn4O0Md3WHMRbjh+ryOu5tA7lNyPOQtyMeIaSSxvBV4X2wni+4cR+sCL+DwYh35CM/28FjGs3CW80T6x4FX6b58HzpfIMXnFTOs/hJa9I5xWaRE3pvAofUZXOaxTCJ5U3kdgvGmkVPMR8+IAKmkwrkC6i6fAMc+E5VtFq1K2g5fAadfAbVfgco48cRy9oVtAa+JEu8I0flipCJaBcBo+zCiWrEZeAo/Ro/TGeH4K2Gn2NRq8RyLIUbUb+qZcI/NgK8HRJnI/ylKyjUNOIVkTfs1B2DvjXoD/xtBipGNeFwEWS0gENijgNJQtQs5guQukM2cNy9D3U17fQwyVofy3aiqDtFWhXjCWCuAI0l0jpU31Fjo6gimqQKzr6VIc1IuQQo+wCbQT9zkc/oo2FdF6a9hQ8LZVan4b+FkldpcYldLFMjuX8fynPEqkPofdlGNH5sjQ1EyeOMdXOivRII7KXtahdKMc7ND8XgXeVLFkLqkVSexGUD83JyZBJaGeZ5Fsu9TtB8i+WFIvpAvQptL1IYiQt0RBtRJavllaxDLKsOWpxQ+MQ9WsgxTJwrqZRxuTT5hgNkybWTxg/bmxdbaymenRV5aiKkeVlpSXFRYUjogX5kXBebk52VmYoGPD7Mrwet8vpsNusFrNu0lSFMxo5NdrcGYkXdcbVoui0aRXiOTofBfOPK+iMR1DUfCJNPNIpySInUhqgXPI1SiNFaRylZO5IPdVXjIxMjUbiLzVFI31s3sw25G9oirZH4gdkfrrMb5F5B/L5+WCITA0tbYrEWWdkarz5wqWbpnY2obkdNuuU6JTF1oqRtMNqQ9aGXDwY7drBgpOYzPDg1PE74BgcECqeFW2aGs+MNgkJ4krh1PmL4q0z26Y2Zefnt1eMjLMpC6ML4hSdHHeVSxKaIruJm6bEddlNZJkYDW2O7Bg5sOn6Pjct6Cy3L4oumn9mW1yZ3y768JSj36Z48NL9oWOPaNw7pW3j8bXZyqapoWUR8bhp08ZIfGBm2/G1+QLb29EGeHlhc+emZnR9PZTYMjuC3vjV7W1xdjW6jIiRiFGlxrc4OlWUdJ4biVuik6NLN53bianJ2hSnWZfk92RlGf3JfZQ1NbJpTls0P96QHW2f35Szw0ebZl3Sm2lEMk+sqRi5w+1JKXaH05XO2B3HZxYfrZM5SS5yLbOOapYJiaInwyDikYURSNIWxZjGClg8ljYtHAsyhHYGrvgizMiyuGVK5yb3eFEu+ONaoTsa2fQZwQKiBz4+sWR+usRU6P6MRFbYyVFTQ/1QPl5eHi8rEyaiT8GcQsZJ8rm2YuSFfXxMtMsdQQL1USt0O799fCXUn58vJnhzn0EL8BDfMLMt9RyhBdk9ZFSWt8d5p6gZGKrxnyZqNgzVHGXvjMKSd8oDkD9uLjr643IHMqYuHR9ngW+oXpyqb5kdbZk5ry0ydVNnWrctc054StWPPVqXzsUzprQp2Tyd49mKrIVRnnmUWDy02eNqIX5M0qgXxRUYpSxgkea4u3NaCtut+fn/kqdPNx/H1Jc8JLhkcowtLWV8fPmJzxNOeD5BOvsmBfKqRbxlzrxNm6wn1DXDAW3a1ByNNG/q3DS/L7lhQTTijm7q5w/zhzd1Te0cmtC+5K7N2fHm69sxiKVsPIyV0+QdUXbtzB0Gu3b2vLZ+XIUi185p6+GMT+mc3L5jBOra+iNEhizlolQUioeIeKAWBjvv4WZJn91vEG2QtaoskM8L+xjJMvNQGaOFfTxV5k51VCQ7MnCEWdinpmqMIWoVZeZU2YYUdUma2owat6jZRfDpJCtTQTiNKXPajjcHucbaK3Bu3UU5Mj5MOWoR4U6a3D8UE8uS+0WdSPlHuPLkpmI69NBj9AYrYRHqZV9SkL5gmWw0dkCVPseZajsN4kTsw354G/PSCArgBnMyU0FTTtezu5MXJj+kiXQL3Z98ml2RfAT1N9FP6QtI8EeV4WRwqrzzLKYPlfeoPXkXhreRbNhLZ7EAdr/X8RF34e/i7Pcj9p3kF/JcdwXaq8dppzH5XPIIztPXq1u0Ny1P0s20m5mSC5PLcC8soE28PPl68h2cLdrpAXoMMpWzAXUa5ePEcTXdwTKVnyJ3K/2AEszOO5Qp2rPo6WScAZdj/99Ej9AvmJe1am9qh5LfTr6Pk2MGznJiR/6Q1bLp/EHVnpyUfJvOoH76OcYrPgPqGerD2hmJhuS9yedxc32aWdke9pxWrd04eHnyvuQTZIc8o6GRU9HPArqSnqMX6RP6G1+fXI+Tymz0/BOWyyKsCBp/nWfydXyd8ipOQY3UAWnX0laKY0Z24XT8DHTzO9pH7zEfy2ansAXsZvY3bueL+MvK3cpO5TWVqT+EvqNUCB2toQfpKfoVvUQvMw3tV7FWdi5bwW5n97J9PM4/5p+rZvVK9St1UCtK7Et8lTw1+RnOylk45VxK66HbB6iXdtKv6be4mf6dDjM3G8uWsvtYnO1jH3MLL+AzeBe/jT/IH1dOVW5WnlNr1cnqeepLuLFeo23W5+uJIw8lvpt4PPFK8unkK/LeHoI2mqHRy2EVD9Kz9Cpaf4v+QH8W9oP2J7B57Cz0sppdy77HHmc/Ya+wjzBKkp8CPoE3odcVfBX0dAX/Lv8een8Zn738bf4H/lf+maIpBcoYZaVynxJX+pS9yl9Ut1qkjlJHqzPUeWoSM1OtnaTN1rZpj2rPa4dM9aZFpi7TB/oV+lXmXw2WDf4xQYmliXiiF7ZrhiVdCk18n+6H3e/EHPwCGv01JN5Hn2IWslg+K4bc41gza2HT2ensTLaYXcE2slvYHexudj97AiPAGLgO2ct5I5/N5/PF/Cq+kd/Ad+Kzi7/IX+dv8gOQPKhElXJltHKyMk85Q1mOMaxR1ilXQbM3K48oLyuvKu8rHygHMGtBNU9dq16q3qk+rO5UX9G+pV2Az/3as9qA9op2RDti4qYsU46p0nSuaZvpz7pJH6O36tfpr+l/N3exHFYGySMn3L4ysQbz+CPcp65nB1CQy1RyYeTlmIfZWBV/pwYlgXlxinrI5ueZaobgNBlqHPxr2G6qZT+h9SauiBd6+6iH/Z7vU1/gE+m32Kgz1YeV5doveD49Cm+0he/hu9lk2snr+Vx+Dy5q77Ft9B7s/WL6HjuPraZH2QE2nl3G6th6eo0HlNnsKqpP3s9VZmEns0MECehydRGd9c23SjaOfk8fJr6vOtTvwD/10W2Y0cfoHfZD+pJpyY/h3RR4o/ny7dID8BLC63Vgna3HesyEBznf9DLtZCZcTOtMk9RL6RD9gz7UdsGiJsOTvp9Ypn5ffTdZl6zACsMqo23yznASVsx7sJJn8CyezsRKt8KXVGNVt+KGu4gug9e7ORlP3pO8MnlJcgX9ErxfspHsS9aNFdEHjnr6OT430VtsM9bhSf/ZrTqxiAboIxZihawa6+GAdqG2RXtE26n9SHvJNBravoruhkX/GdZsxQgW0iv0EX3OzJibTNzhYpB3LGRvo/N5u/IMTWFZuLu8ipHU4d6VGslqtHIFtHcP1vMzWBuH4CfOpB/Rm4yzIEa0EP2b0U4L9Hw2qB/CDF7JelGyCF67jP6KcTvZWL4G/Rlo6TZ4rQHI9Hv6C7SdlHKNhF9oYnPR1ud0Oi1CD2Oole3ADDxF4+BZm5RfQd8jmJsmswL2A/B1YoU6KZfGae8yTiMTpybH8mXKM9hjkijvxu6VTRPZSkjhwjgGyc9mUG1iFmR4lSlqnP1GSnEnX5zcqFyUOJ9+ibvumWSoF+pN6ir1avUrKFe8V9his5m/9o7za0/pYE5X6bpVF+9cZUwHk4qoo1gHq2LTETRdFQSmYVrS9WEKh4Jqt1n+R/KYdatZPhzXqq6KXv7PyOOwW1PvTY8rG47Qkq6ymDEAy1EBj8ljhphmVYzQjKCZ1K8JfWxk5mEKj/btctj+LXls6SqbBQwYgoxDPWiIFohpkfJYEExmzfIv5LFYvkEeze20/1vy2NNVdqvDLoU7Th4L5LFYLWS1CnmcVgSTRRMEw3X9zfJ4nA7giWX/Y3lM/ySPbjH9R/KYMjzOf0seZ7rKafc4CEOQMR1skMdmt5HdrokR2hHMNpMYgW2YlmzDFR6Vx5/h/voyGG5RwK2k5HE5MADnifLYYSZ2qM3hEPJkOBDMdt3xL+Sx279BHj3k937d7IZdj550lcfl95D7qIAyOLBiHC4HuVxg1f0uBIvD7DpR6GPUwxUOBXN2lu+EtUtff0oHX7rK5/H7CEOQMR1csAiXx0UeD1jNWR4Em8viOVHoY9TDFQ4FS25W4N+Sx5+u8nsz/ZRxojxumK7b6yavV8rjRbC5rYLAPUxL7uEKh4I1khP6+jIY1v6DaXmCvuyAVJbvWJ0XZuLN8FJGBgSz5mQgOLw2IbRnmJa83mEKh4ItPzfz35InlK4K+XKDUln+r8nj85LPZxEa9yFAHiFwxv9YnsL8nBN8CX39KR2y0/JkB8PZOKsMKUwGP1aMP+inYFDoJz+I4PTbBYFvmJb8/mEKh4K9rDAy5OyOlg1HmJeuysuK5onbdlpAGYJY/8GsIGVlgdVemIXgDjqzThT6GPVwhUPBOaok+vVlOex6zE/Lk5+DAYSRPXa/pyysmKycLMrJEfKU5CB4M11C6MxhWsrK+gZ5XNUji+hr3z4N+13UiLSoI8KlI6Rwx90/cmC2OeEcCueB1TkyLxwOZ+R4hEazh2kpJ+cb5PGMqSz9upsY1j8Up6uK8yuKpXDHyZMHC83Lz6P8fLC6KsUrFX+eVwidO0xLeXnfII93fGzk193EsP6hLF1VFh1dJoWLHquLYBlFohGKRsHqjkURgpEMQTBc15HIMIVDIWNKffXXl+Vwi5Sq0lVVpeOqqALZkmN1hXCphaWFVFoK1oz6UoSswgD0TgXDtFRY+A3yBFqmjD3Bl9DXn9JhTLpqzKiGMbhHEY06VlcGsy0bVUajRoHVP2UUQm5ZpiAoGqalsrJhCodC5uxTJn19WQ67HuvTVfU1J9XjNkS4Kx0No2Cho2pGUU0NWIOn1CBERuXUoKZimJZGjRqmcCjknDlrKpbgCWXDrsfJ6arJY6dPponI1h2rq8H6rxlbQ2PHgjVr1liEETVh6J1GD9NSTc03yBNe1N5CdOIKHHY9TktXTZs4expNQXbisbqxWEpjJ46liRPBmtM+EaF4bL4gqB2mpbFjv0EesSgVUpgImqLgzskopH1sG6AvzElsn+ZkApuEBWglK9BGtuQg3KIdiHMi0CnRRc7kESw/F9Aj0UseYAZ5gT7KSH4F4xMYID8wSAFgiILJL+E0Q8AsidiLkv/AsLOAuZQNxG4ADFMuMEJ5wHwKAwsokvwCqzyS/Bz+pwBYSFFgEY0AFkssoUJgKRUB4RWSh6mcSpKf4ZYqsILKgKOoHFhJI4FYqcDREqupMvkp1VAVMEajgbXAv2MhVQPrqAY4lmLAcVQLHA/8G02gOmA9jQVOpHHAScBPqIHGAw2qBzbSxOQhGNwk4BSJTdQAnEoGsJkagSdJxMwnD9LJ1JT8X3QKTQW2UDPwWxKn00nAU+lk4Aw6BdhKLcCZwI9pFn0reYBm03TgHDoVeJrEudQKPJ1mAttoFijbaTZwnsQzaA7wTJqb/Ct10OnAsySeTW3ATmpPfkTzaR5wAZ0BXChxEXUAF9NZwCV0dvJDOkfiUupMfiC+rQeeSwuB59Ei4PkSL6DFwOW0BLiCzkm+L77rBq6kZcBVdG7yL7SazgOuofOBayVeSBcAL6LlyffoYuoCXkIrgZdK/DatAn6HVif302W0BrhO4nq6MPkubaCLgJfTxcAr6BLglRKvokuBV9O3k3+ma+gy4Ebgn+haWge8jtYDN9EG4Ga6HHi9xBvoSuCNdFVyH91EVwO30DXAmyXeQhuT79B36Vrg92gT8FbgH+k22gy8na5HyR10A/BOuhF4l8S7aQvwHroZeC/dkvwDfV/iVvousJu+B7yPbgPeT7ejnQck/oDuQMmDdCfwIboL+DDw97SN7kn+jn5I9yL/CH0f+ChtBT4G/B09Tt3AJ+g+4HZ6ABinHwB3SOyhB5NvUy89BNxJDyffoiclPkU/BD5NjwD76FFgPz0G3AV8k3bT48A99ATwGYon36AfSXyWdgAHqAf4HPUCn6edwBeAr9OP6SngT+hp4E+pD/gziT+n/uRv6UXaBfwF7Qb+kp5Jvka/kvgS/Qj4a3oW+DINAPfSc8BX6Pnkq/QbegH4Kv04+Rt6jX4C/K1E9AB8g34GfJNeBL5FvwC+DXyFfke/BP6efgX8A72U3Et/lPgOvQzcR3uBf6JXgH+m3yRfpncl7qdXge/Ra8C/0OvA9yV+QG8kf00f0pvAj+it5Ev0V3ob+DH9DniAfg/8X/QH4EH6I/AQvQP8BPgr+hvtA/6d/pT8JX1K7wI/k3iY9gM/p/eAX9BfgP+g95O/oC/pA+BX9CHwCH0EHKS/AhPAFylJHwP/69OH8+mfSp/+qfTpn/6TT/+79Ol//yef/jfp0/8mffrfpE//RPr0T6RP/0T69E+kT//kn3z6IenTD0qfflD69IPSpx+UPv2g9OkHpU8/KH36QenTD/zXp/9HPv3d/22f/ifp0/8kffo+6dP3SZ++T/r0d6RPf+e/Pv0/8Ol7/j/s01/6r0//f9SnH5Y+/bD06YelTz8sffph6dMP/9en///Op7/7X5/+X5/+X5/eaKc5ynbx4bXwrmHlCeVx+Kqw8nivKTe8odGhPEbbETm5gRHEbkSFDOWxXt1RbfQh9fpk2hMor+5PDiAzvkaWV3yvesMe5VE4ihoUP9pzmih+tNdoqpZpzYRUWjlapj3mVLXuqw43ZoGtEpGTK52bgXgT4lbEZxFNEOhRegcxiago25T7e5rDaOFBNORq9CkPEoOUD9LLiElEBdI/iLE8SAfTJSqkeqDXYhfdPyC5spUHwOUCuhE3IG5HfBlRoxXArYhJRAW5+1F3P3HlfuW+HnfY3WhVvk/rEblyF7kYw4Y0oNzR65a6ubPXlVFtNLqVW6kVkVNcmU4DiBzN3gy2m4mDvKWnYrRUYUuv1VntBv1mCL0ZgmxGl91AJp8NREG/uTcjIJq/ssflkXzf7qmKpTK97lB1K7RwMTFlsbIcm2JYWYc0D+lCpGKqFyiLsGELOY1el7t6A/prAHmD4sf+GFYalQB2vLDSpGRhDxZka3ucqX7W9pSUVWPEU5SQJHEpDmyIYcWs6D3V4chuxZDKv7bXYhPyXdvj9lc/o1yt6Nj2w8oGUAXDrmcUK2bWKkcyp9fiqN7SaFfmYJhzoJYwZGTQ8nLZ0PIeNNToUaYqOTgshJXzlFwcHcJKs5In04eV+7BJhpV7e4tywgO7le9KrltEo+h+Usq0JvU6nNUDjRZlEmrjyo2YgBtl51t6i8ZWU2ORUkJViBw6Xo/cemn0m5DbhFnbhJnahJnaBKE2ie+RletQcx1oKpVLqUu5iLYgbkVemJW/Bwrtl5kRJdX9SqYSgmLcu6FKhtKsXotTSBbq8WZIslCv3Vnd8IyyGna+Gm0aypreYKh6xW6lTA5lZG8oWzB09cBcn1GCqakBY0BMyTNKDhQhFJOr5PX4w/HGMJ6FIYeJ8V/wvUJJ/FX+WzHd4jfwZPrLdPpSOv11Kk0O8L2pRcF/I9J9jTn8PTR2NseWgxznu/kLOBaF+du8T0jB3+L9OMyE+Zt4XoS0H2kN0l09+T8P9/G+XiSQ/e4eR0AMlr/QU16ZzoQL05lgdjrjDVQ3FvLn+XM48YX5G0hHIH2OD+B0F+bPIg0hHeBrsBOE+ZPwWhOQ7kynP+Z7hInzp/lTOImFeW+PU4gQ79FFsr3HJJIneij11FoZ3sOf4I/ioBnmj/cUZaF0W2/RiLBrN9pj/EG+pic37G208vtYG/sURN30pkjJy+/vqRONbOnZEwn38y18ixGqMwqNCuMhpaqwqqLqISVSGKmI1EUeijS6+Y1wIFs51i/fDKyjCIf1IBqIW/h1PWpdvHEQYxLj4rQB2C1zncAumSOg+2jtIZlr4FfTDESONtYhrkfcgHg5qcBLEb+N+B3Ey2TJGsS1iBfBm3SBowscXeDokhxd4OgCRxc4uiRHl+x9LaLg6ARHJzg6wdEpOTrB0QmOTnB0Sg4hbyc4OiVHKzhawdEKjlbJ0QqOVnC0gqNVcrSCoxUcrZLDAIcBDgMchuQwwGGAwwCHITkMcBjgMCRHFTiqwFEFjirJUQWOKnBUgaNKclSBowocVZIjAo4IOCLgiEiOCDgi4IiAIyI5IuCIgCMiOdzgcIPDDQ635HCDww0ONzjcksMt52ctouDYB4594NgHjn2SYx849oFjHzj2SY594NgHjn38oh3K3safgGUvWPaCZa9k2QuWvWDZC5a9kmUvWPaCZW966GukMjjMZh3iesQNiIJ3ALwD4B0A74DkHZDmtRZR8MbBEQdHHBxxyREHRxwccXDEJUccHHFwxCVHNzi6wdENjm7J0Q2ObnB0g6NbcnRLw12LKDj+50b5P54afjlrM2Ov5RtYqUzX08cyXUdvyvQy2iHT79BDMv02XSHTS6lOphdRkUzRnkzXUNjMesJ1rsYAXMAMxLMRVyBuRRSHpGcRdZl7GfEdxCSvNQpUlz5D36pv15/Vte36Pp27TDNMW03bTc+atO2mfSYeaczmDulH4VroJonrgQcRsYkAG2SugcfQbwx+thafGI8ZngORg2Xs5TL2bBnbXsZuKmONFn4SU6Wni1Adh+CszbAXTQq/iVhXVDwJnunGpz4OhnuKxoT72J5UUmqUI/0YcQfiQ4hXINYhViNWIBYihmVZGejbjIJ0k3sQixHzESOiCwoEiMjrMRv93MEe6v2Jgyyin+IS8O3uKa5C0tdTPAPJ0z3FC8KNFvYUFYtTEXsSM/co0u094f2ofjyVPNYT3o1kW084hqSjp3gUkjN6il8KNzrYaRRWBeucdDob4xbprJ7wXJDN7AmXIinvKS4S1LjVs0LUlrI2nMLDIi+5RqR6ivaEJyAp6AmPE9RmKhYTz0xUIcXTEEWq9EKgg/2sTWWGLXwg/N3wx2D/KxQL83gr0qciebmwj801rOE9Fd8HcWO4p9Eq6LE/7EincZE+GX6o8Lrw3WiLFT4VvjM8KnxjRZ8ZxTdA7utkFz3hKyJ9/FEjI7whXBVeU7E/vDp8Snh+eFa4oxDlPeEzw3uEmNTO2vijT4Vb0eDJGEVhT/ikwj4pYnP4krARLg6Pi+wR+qWxqXbrKvYIDVB1qveR0G9ZYZ+w8dPq+pjHKNMP6Vv0M/TJ+gQ9qhfoeXqu7jN7zW6z02w3W81ms8msmrmZzL6+5D6jXPzVvc8k/0WB+F1YRqrMu7lA8a8AxN+9MDOnUyieobTwltmTWUt8YCG1LIjED8+O9jHrzHlxLTqZxb0t1DJncnxseUufnpwVrytvieutZ7TtYOzGdpTG+bV9jOa09bGkKLo6W/zJ3g5GV9+Q3U+MZV59Q3s7hQIXNoQavJM845qbhoHONJYfC6Hjs7nx21pmt8UfyW2PV4tMMre9JX65+IO+fu7ijqlN/dwpkva2frWLu6bOEuVqV1M7yPZLMlizE2RULBKQmSdTRJDBn0wWZJijFF0R2EGXLxLQWR1UJOmKrA5JpzJBt+PNyNSmHZGIpCkkelPSvFlIx9HAYsDbtKOoSFJFI6xNULG2aEQKViobCodBUhGWJAznOtlQmMnO4pXHSArTJLVHSWplXwo7RhNO0fhKhmh8JaAp/98MiyeXs97Ra9e9IP5GsjM6dTFiZ3zzhUtD8Q0LIpEd69am/3iyqHPBwqUinb84vja6uCm+LtoU2TH6hWGqXxDVo6NNO+iFqXPadrxgLG7qGW2Mnhqd39Te21Df1nhCX9cd7autfpjG6kVjbaKvhsZhqhtFdYPoq1H01Sj6ajAaZF9Tlwm7b23bYabJ7VPOTKW93GaFDXdm57dPDri7JgmD7p+QH1qXvUslto1s5e1xe3Ry3IEoqioaKxpFFdaZqHKKP4RNV4XWTcjP3sW2pavcKPZEJ9OQakkQtcRrZ7bE82fPaxOmEjfmDz9nq0WQ1SGauqwJP3heIyM+x1PS6mHDmuHC2rVrVwtYW76aqCVeNrslPmYmJNF1dNXZ1I6yUUNliiLLdlgsU/uSA6gshxBsjehO5MpZOTRoWHHr0nm3qVvn4qqwpjcrt3rFM9jB1yPiHscv6qmU12d+UW9Bobi/rOmtrE2luK6KtCcrvxo99NaBVaSFqdTwVCCzpXBLxZa67sLuiu46E0qfegiF4YfEVtpT+ZBCa8pXDykC2TXtUDbEEv3d15OTKzvuFpny8vby1Uzq65+VzYaUflSxq9OtrpbNrxmakFT56nQjmIlU72uH2NammWTlWsmUaiT1dBSOhTVrRVNCn+K3ccTfJ+JSosk/dKDJOzlLmPQ+3mBkkKYmFLLqaoJRptmkJbiyhxWRhcVZiELl7sP1g/Wnuj+tnz5YTw3Iu48ARlfle/I9hQDsCHQkogwcMTT6iiLqgNgSvgt4jGWirxGGn48lKy9yYVOK4B6pUqZ6zoWhcjTZMX2QGqYfGF1Vg7a+K/5oL/G+4J6ffF87S3sV17TXjVOvsVznuy6wle4w/czymvKa7TPFUmgpsZc4Sn2lgbXaWss1mlnP0IPBjGCwlJcphZpeot2p3W55UfmJTWtgMxhns9zE9tEh7FfCCjyhmEytDqRsnhEMVahmp+H0xpwtZ7vYDBdzGf5QzNXHSowCb4VVcR10zqWDJJvKqsphOf7ibp259LBepStQ4vW92etmp0a0cvqBU90dhzumH/j0ADUMflresXJ/uUhFpmN0FXWwjo4OppnUaIQ8bsqPBANBragoWmDyuAM11WPUBhaenHjp48TvE9eyS1mMObYtqk78LuvBCx/45c+7L3yEZ59x6EN2E5vHlrNbt54Vb1511UeJLxMffXyb0Nz1gJ3aLuh9RT9pGGN1LKaJsUYLZWo0+IIx0gytVdug7dO0sNapdWmHNHWDhrFxhcxceQuWEqd9pAwIjYkpE289VVqujt6aHuSqtDE0wA4YHmFnYgqvZyXari+bIcedsLUXIIeN3WxkmU3M67VaNYUrqsmkW6wWs1WzmC1WM06LRrlu8um6SVHViGb1aZrValEUk1WxKGYbqDVVhWBks5l1s9rHF/Vo08xIDK+eFXFUObiD2yJMCIm55Zt77aMXpmQUEmaKqQilpqK+3l0vIdM7rpJ5vMFxhLhRGxUqVy9z/1hmzCJjdtebf6wIrN9hEn/D+6QlYnPElL7kL3rMxTGsqXZM45Q2I7PIVGzZot5h6lbj6oCqX2Xapn6gHtZUCw5OvXWzYhah8BHIFJomWtco1yh3Knda7rI+ouxSXlSszyl7lSNWZaJ1ssJXreyAp1jZIXaOfjIlP+j12hrgkz4wMly2BrXKEQDYfQ1qxOZtgCR7e12ZqdQZTKWgkCmIZJqm63FmNNDxnqiddYiZYvkMP7rnTlbC57IbB9/kzYnLExcc0nYNruWbB39y5HIe/ywxFTN5L5H6oPYEHMdEI6tVF1aiYo2RWdWydK4cr3vT6P5juj/VnRAWglzKSESv+f570d8+7YmvTv5cWOvNRKZMWImdhwybTSkyF9kUVWEQfINhyRkfs0bGT4hJbaZT4wc5o1AKMMGG3rV8bFVVi9WawXNUtyVsjfKRasRSaT2HL1UXW861XsQvVn9gecT6pGWX9bDlS2tgq7rFstX6U8uL1jf4m+rrlres7/MP1PcsH1kdF1kutl7Jr1evtFxv3cL1Nttifq56jmWp9UJ+iao38Ra1ydJiPd18uqXNqoeslc4YH6/GLBOsDU5d4XbVZLFY/TxLDVr0lNkYYSjKatHsul5tctqr4XjdCje3mh0xmwA5Sicsy2w4i2M2ASi6x3CLjM2swK8yrlvJLGy3oV5YbGoiO1jlAfdrB0RBdl9yglGBXiKq2WKpVlSfoqg4dFirFY4sRzOKXeXcjkVl0c1hJ3P2MUev+Ccku+CVhYM4oyPlGIKz58S0at3Q15uZ+Zn1mIVnbBGbnffxsYYXHsEAIRkgouqwndlFM47Ra7E9fLryQHm5u/5/ueuzMt2DKwdX1meF3IPl5Shw718J4d1y5aUWW/nGy368ESsNiVhGuClkzIbFm5P7dtgiY8e2C+eIID0KdsKVwmxgqSmL9dzMdjMr09mexIHEHxLvJv6o7ToSUj74slm94qt1IsKm7oDnicKmLOzXhtOimMyZStCseuHXoF0S60rpSw1bpEYZRqRU62a4ILNi5lxXLNAXdKWoYsSqGLFabXpZYxpM3Mg0bK22TpvSZdtg4922ARuP2Kps0LMl3ahc887Zs2OWarkyBuCKxdqwCl2l10Z5ef10txjk4fST9KTwSePgk8aN2zhKDB4aStlRPykwfAuswhxJ2cjA0xZhNQC5tKHHKZJqw1O2WvMGW60c2MSsUTHzbICmBJRqxVDUZuVq8xZzt7nHvF8x/Vh52fy2WYkoleaYMsE8w3yLstXcrWw3x5VnzTZdtGCpqY1xA6CLleeorI7xiADdV4uS2w1L/qgYnwOQ1M15ETwBzFzXQ1wJ6iN5sT6B1+inckM/k8/VLT6erU/nU/W79Ef1X/K3+Af8ff0f3FbMS/RT9Iv1a/XHuEnsJquOHUCHTKGdpCUIH8I8d7AIb2MZiTcGd8AAKpRXv2xW9hxpEv+Z7lZ4qy8w+y7KpouMQpPW7+sPKSdp7BztdY17PYUOp5Oy3YXwYi4yB4q360xI32uxxcQ+bgTCuVW5nblduRtytVy363jvljN69jHvNt298nA59no5c4P12FLkmYg6VkpPh0094Pdh9zJFo5kcu/qY2lhRcVH0VvY75py17pEFt5967ovP3b/9wilnTavt1nYF8v+wfWPfMo9/8A31+UTnqAWNrUsdVljzSIynH+PRaZURrbRUqVVaq6XLssGyxaKbmMYLVYXrZLYEg1nqemGjrMKwmvQIqyLxdYZ49CjOVt7FN/AtXOWZ5sHHUqNomdm2gxtj2+unY0SD9YCpi5v2p8dTL102lF2b78fSeycxXb0hcar6/BdffDWJWPJA4jz1smQ+TDvLsLPdxLM0HOomxkTL+91/oUpxplPAm6FuSZz31FPC15ep29hBnOkUOkladK/XL2x5n2HPGxFrZYyYG3tLH2s3rJzYe7TcLTYCPv9Jnqk+8KiUefpgh9jJD3SshHTY0KLwCQd3JD5mE9B2Ofo4LfmB2qBOokz6kzGzzdXubQ8sdS3zLgtcFrok83Z+u/2n7p+G3nC/HvrQ9KH5w4wP/V+YMsZmjPWf4j0l0Bxqty+z6+O9dYG6kHKRdpFro3aN67rMbd6HA/3epwIWp7CTUHZMpE96fTFnjUOUZObFZOryxBy7mIqT7hrD67GRAVIyQEc1WxhjuzBCFVWRoM5EKcunSofIOPJnwCtnZev5vsystsbUQHGGFEfI8k8PlItDZMf+8tQZEmnKyFbiCCkPjX6fODTWaSZTtECcJ2uqA+roxF+dC2csu2z9ea1L/MxX/ulLHyb+ygIHnn+Pf1w9e87NjzxzzxkrKn/0PCtiKrxp4cNi5cyB7ubLlZNDW4wKb7up3drunRuYG2rPuUO/0/KFxdKVtyGPj1di9vH+WOYpSpP9FH9T5p0Wi0/ctDRbFhJsaLrTJf4pXLDU6Shi4iWky0VZN+WxPHe+OTO3rf7oCFcerp9+YLD+L9LmGg40HJCn45UdOFo5lpmWWZd5lwSWhJblmDra8/Nr0wP01lQH4QN8QTFsLCqoQJ2f+Kpxx7ynE18lnu+5gmUOeiubLp1/7VXnLNp4zxntrJiZmZNlfo+7j3Q98q3lD/7g6fu2YryNGG8xbMVHOeyBfnInvzCabeNwPnPc5t6mPWzdbdnt6Msym31sGj/J1GydkbfN8ZTpqayfWX9uf936pv0L/XOHI8eV4zeyc2N+w+mJufzP+l/2K35pDXkNMsXxzN/HbzDsLqe31dnp5M6Ql4m7ZmZ2jNV45TUkN5K6jhSUptLyilQaypGp4XK6Yt3iNZsbYp/t9Yr7rWrzhoS6R9h0ymeV/pQRVeadnbcib2uemufKNxsOVwwKX5YyqfIT7iUHxP3aFzJKfA0hI88FyHYDcjwN0tk2DMpzqBdCgMIrhAGRTEEn0p4hUlwGpKeWDIQK7zghdE9QJPFei3WSfGzMb5AX2/b95djmOmT3TgNacopOnaJ7XMCCqbNqO5xpeTn8PvbEGnnBIByPhYlHiotqhY2Tkh8QBpAh1oBuCvIvWWjMh9sTf716GfO9eoB5TYOGcsX8yfOKlYvnnllfz9isyrvue/LmP8AWyhM/Szxz2eZp7PxL10+ZslrafmKm2glbiFIlO9VYcFHuxlzutTu6Rl/j2DBajbAojypVrIbXKAabwqcoZ7jafe2Fc0vnQtTzXF94vsjwTnDUBCaU1IxscTQFWkqaRh6yDwatN+KgZLM7bGV2R7EzEPRXOOzBgBoaISzgSWkBcqKdHqmkXps9lZaUpQwAdzaZjo6lDMHiz451im8UNLHgwq5ikTitFcIQbH49lGkqK7UVZYXEorNkZmZl3TSajcYS7DOsVDMi35tZdXT1fZpef+4D7kHp9LH84GHSO+/QwYOkcLLzHos9JqcvdXUSZxURddyTsGzhjjpWynXrWuZbVnhO6ZLyZZVYt9QR1AJiqdaNqRtTW4slnJ7AYG2+x+fk0UhRbSzDd2wtX8Iazbklc5fXFWY41g28ftkCxp79yQamT+rafVPib38+cmXnOTdeu3Txlc3FY/15+YHR0bPufuzJm37LbCzr8VuPnLRn17n1/Tc6+ZU/vPe+7z/YfS+UdQt20Hb4tQD1GOUuFmbjxES6J7PJnj+yfzCLrgW0EbzNs9SjMcYzfB5vhuLjzCWUmqvgsmr1+a0BIpu1yGwxIiNi2y0saWEWqBlTEigYEdsS6g7xrtChED8YYiHyFQX8ctmCttvPDvmZPzPYkFI8DjOpu5E41hxOP0n/J87IB6DT4DjFKa6ewuzhDT1jaqrzuB/nnph09yaRZY9e+8z8e2bkJt6PzJzYvLwm8T6ube9tndZ17U2DN/PRD8+rbbrumsGPxb/s5ak3MfKNgE4X9ZNFvAPwWBsMS6uFb7DELQOWvZaDFi1s6bSst3SjQFNMOmmqAi9uyJu/Qh2ckUkz6aqV69gzpC3mj4ipmeb0uI6NA6eHjpX1iuYWIxKjWNmxqjxDCJ16xZN4n2WqTzE1ceSrU9Sir94eelckJZwt31kYpUI+rVXjG7S4NqDt1Q6mXlSs17pRoEEYBdusUsRoSBKcPv5JknTf6VdL6fcS63DjvAMrvZhN6KdScHegL3gWu98UsMeUmDkWikWb+FTz1FBT1I7TcelsS2fphtKtpT8wPaw/ZH/S9KQ9Xrq3dF+pk0orS1tR8WzpO6WmUiMrJ9aA5w2yUtPzVT0rNyAWqFXPF7aUp+puj6c4OyenqNgKdbrcRV6PMa+208NWQDl9vNlwZWUX5eagbEUO68xhOSjbWVhUVCx20R6iYrmxWBpEaoyB3MUgLTYaEesRRxTHio3xE2OVxS8Xv1OsuIrDxRuKFSqOFFcVJ4vV4sySd+uHXt+kj9ep9V9/GD4ch77DKztEMmSO8toGtyDuJWK9Q5+rcCGDUZZn5Pthl4HgGIkBaZ7FR83zmKWuY8rmgSW3VTXff+ba+0tgr7nFMycsHZV4P69hTOPSisT7atHNP5xz2mlzzj6z6Y7Bdn7290fVT9t8W4Lz5rvnjWy+6s7BI6m3BGo75ixAW42QnhHMmGdealb7VIbZcjeZm1wfujWTXK4e3ekw2W02HD84KwqQXK44r6KRf7VcrbYiu1Po1+GwH121dnYInvvEVSs19U8LV15tj55c8k9YplJJWLxqe+L9ETPHnbymHMavbX61464ZYZ732OKxrVf1JMJq0T07pyy96ttirc7CmeQujNSBE+ztxrQP2PvmzzM+96s/4x/g8pKpZVp4u3tuxtxAe+h2fofpDvPt9j7Lb/nvtN9bfmt/X3vf9IHD/bD5l/xXphfMP7Vra83Xma4yKx5phbagUJFP1X3j9KzO7K5snu3MpxOOnCsPiwtN6iA25NEty9xLcA5bFlKZcOesIyPmxbDI76NowYiiwuN896xNg/d8wmKJFz++JfH5Jha5bfnyW29dvvw2XnA9M21K/OzgJ4kXrkpu+/62bd33bNsmxrs5cb56O8brxpnzLmPU2IxpGdwbU8Y5xmXEspuUkx0nZzRl/yPbMtc09+hZ9LD+j2wz1k+WPHTq4uxpBGw2t8sZzDdndeGc6Sl1Ol1Fbrc8fNq6aAN6ysxtSI0Td7Z6TKR7/9BwU1vfkL8Ve9gS05Ljz57UIcxdjBnH62hBUbE4fh4b9WZmqnni3H7GE0f6226agSkO3LhkwRXXLDznWkxt66LEHxODicOJt5pPG/xQ6e999N7eh+8X588zMPYFGLuHculeo85bz2OOmK8+5xTe5GjynZJj7gqzXLM/GGvX2q2nO+ZmtAfbs+bmPmR9KOcLy2HH5z67h5zZQgmqzS+UkGHTXW5TCIfsPG8pbhtFHo9LngRucjN3Vji19R8+bvyffm345SvTClimLbMuyVgWXJa5JBcKYB6T3LhTtwuxc7PYsauHcnLdD85+cu0mpgyce3c9UxKHrl605Lqr5s+/JXE+D5w0+9qtuNgRC887415c03c+sPX++Pa7nxA3wo1ESp2c/W1Gye0aszjZbG2JtlZTKr1tzqXOLq9qtbjsYTu/yZ608wb7DDu39/GLjFJdxwpXuMlaQha3pQoXYtWStd671cvP9q73bvfu9apeNxXh/igsgPMNrBt3y0xPQz/LoZQZHLegD3dkTt9PodQtBOt7XHXKGFZSSzw4W3ypNq9th7V6LCwhX65q2EJQl8vcw7rFmp5yXlNn++knTZwwq1Ituv28ptrPRjU+kvgEY6zCinZjjGX8eWPA5DFFzcVBTzB6h/cO3+3Ft5ZZdF+zj3t3O/qdP8t/L/qF43CBqdRxmmOx41bb7d6HC/rtemPUGNFUdE7BoqKN3o2+awquHGGpK5pqarad4pjhas6fXKAXjCguqrPX5tcW1EZrR+gmq+ax5IccxfaCgoKoPqLAGLnafrHvEv+FpWvLrvVfVXaX/9aynQU7o44N7Kbg9aE7y35YFh9pCuYHjPxoLGDkhGPhAHsnwAI15vzWwpsKeaERyo0VZo2Urwmx77SOZFUjWeVINjIvvwrGVYPLbHpvSn2/Ym1I7cziDVVm+cV9QuVHsN/g3LnyQNqHircnwrOWH6D0+9JaE2MmFmBFBWPym/PnsPbgIrYseJhZWZCrWfkFvCTDYeclWWerTG0usbVmsazmDL1hsAM/4lA6FDtWZvdTQfKX4hyd35dKC8RL5LwR4nlfb3hE6jkzSz4b2cic52BjCpoL7nB8r+DHBa8VmPIL7A5VzaL0SZ1qxJm9N1jRwNLXGvlcUBgTqZGL3Z9YFTNYK1M72QZ2iCnihUYr68QVW1BmBEDJmDGdVHa2ekjlYggBA00HaoIG2g0aaDRo1NbFgkb5KEBhKQDtuoLh4NnBFUE1eFqWgf3LlcVas5JZPD34leWfdqR2c/E9U8dK8Y3TqtRjShmpynZ5HKKVCB0d8rI2IvmiYbF5G1wlAOjh46cc4+w++ziR7bGPg4Y+2mEbR+mvDtqxI2QUBuRRvhabfTGMrjYm938tdQnz406uin93DWdRVMWyvMsXXlBX6POfnHjsjHVvv/f2ayWJzz1nt62oiuQUsefa2z49+NYgqyyfdVpJTmXE7/O0TJp756Y9N24ePWlyOBDN8+csOaXlmlt+Eyfxq9Uf8Ju1e7ErvmSURggXMmupa7zzFGe7S8/0U0gJ+CnozfCxoJf7WEix6FbdHhLqdlGwOxgPKp1IBoJKsI+pPX4mNo1e8ovvP9cYTrvNUmmtJNz9zpZvoFSjJKQUBb2n+Rt8W33bfUqnb4Nvi2+v75BPI5/bF/FV+VRfZtbF3UPHqZZ4HfzEBPiJfvIlB8RLtSOpd2ruTzOFazkgvzcF6X4cpDw14r84CR/D/FGPT+o0KJRWBJV6orU1tYUefumArTin+JTQgu9869JxNsvll7MstWhfYs4V5TnZb5fVzJw6+lb28r5Xf5C4Dvq5AV5mtlqEE9I9RvB0zzme2zTFYso01fN6Twtv8bzPdXmf8ai2AFn9Pp/VYsrwFfn9JBykMyDPSQGWxJr/hnOSxXz0gGRmh8zM/K+vNalN5mvno47US5wiDDI/NewxY0RWOXX8M8vOe+RbLDM8q2HaqjKWufW0BWc9chvvToT2LZ4wY+1+NoCLAsbpxD19FsaZwWI7vSUayxCrN2R3xcwBhyumCzAJ0AIo40LacNb4GI73qsPmNLk5ZZjUDK4qCrZHU0YnXFcf2254bS5HpbOEIv4qf6dfERc2ubaLYvIe583Ji/nF+9VxihHKjIlvRvpYsWHh8okzLp68bBwZOWNiqdfFmb4fp22jfPpgJhA/ocFTpy5u+kt5+cpV092f7hevMStT340wmIQ8YYs79TjdKW/U6a/rOlribpjWeJhWj+qmXclDOM4e2qG4mfhPIamvC7XkB4bT4WnIcGdkAryhBq0veagXDyLtwXP6q7+M/IyMfKY7FezmxfK1oZOVJ75g0cR1UwqnnL6+deapmZNrF5yVqRYNOvnfjvD+jgUTCzy/d6xup2Qy9cZMe5UXiX8gwnS6gT4gotGGh++LHIrwSGRGJJ0TarM5PbGIrWRaOWeRfl5LpXJIHStX1g7X1hTcNImqejlneUPUqW2hL/mXnXl5NptRnm3YXXnhvIY8Jc9mnQZFtotfqdytbsM9UbxXnmJksIjXH2MR8UZZYfL7NkW8UbYg/x65xVzx+U+z5bgu/uU7qWPvpwc63Me9UxYK2r2JTUgcEK+UE7+l/wvo0QC5CmVuZHN0cmVhbQplbmRvYmoKCjIxIDAgb2JqCjw8Ci9GaWx0ZXIgL0ZsYXRlRGVjb2RlCi9MZW5ndGggMzE1Cj4+CnN0cmVhbQp4nF2Sy26DMBBF9/4KL9NFhHkktBJCSmkisehDpf0AYg+ppWIs4yz4+9ozNJVqCdDxzPVcZpw07VNrtOfJm5tkB54P2igH83R1EvgZLtqwNONKS78SvuXYW5YEcbfMHsbWDBOrKs6T9xCdvVv45qCmM9yx5NUpcNpc+Oaz6QJ3V2u/YQTjuWB1zRUM4aTn3r70I/AEZdtWhbj2yzZo/jI+Fgs8Q07JjZwUzLaX4HpzAVaJsGpencKqGRj1L54Kkp0H+dU7TM9DuhCZqCOlKdERKdsjFTlRQ/SAlJNuR7q8JCqQiozohLQjXUm6UiAdV6J6x3s0u7oqfj3e/in4iWk5ZRePVGV1d4+fPZksDrRJNfclbZ7Iz5rZrMXo+NikOMzbBOTVudB8nDh2PfZbG7hdCjvZqIrPD3t3oekKZW5kc3RyZWFtCmVuZG9iagoKMjIgMCBvYmoKPDwKL0ZpbHRlciAvRmxhdGVEZWNvZGUKL0xlbmd0aCAyOTQzCj4+CnN0cmVhbQp4nO1b3W8cuQ1/379ingtUlkh9AkGA2IkPfbjirjbQ58DNXVHYQZukQP/8ktTHSLuzs+tb79lpfTljuRwNKfFHSiRnVgEm+W/S9O+PqvvqUlQ6ag3T3cPmXxu+jk5HhfTfBDZGFU3w05dPm7/+YfpMI0ClFF1wVmSN30jExU8fv3379OXzdHXTyLuvFz/56ebqz/zx9e7z5uIHnH79KsqMCXqKqFnDL5uf6d/CJEBF0I+YhJn4319+mDLx5deqEQ1pBD09CEXrus8ETKjjRDNBbfnjbmOcZ+KeCGDCOBkmH16uZ0n3NGstekldJkRdOJe6m0Y/CAUk4r5QceLbgbWSPP6827AKpkg1XWeKp8Bj86flMWZJes8t9ru8JYCnN28ufrz603ta6tu3l++vNhfXpNhOt7+Q4cXByOgpqKDR4GS0nm4fNm+0tl5rR67m+DPQH9CfJj7zHPPfTrf/2Hz48Wrz4XZLlelVwaiKlmowFiX6Awm8or+wXxgcEEY27ISlLDDPsMycFmVtnf1+RXhAkQ+9ousi9JFK7AEl0fRKfLF7zApEEa/sar8Cd0BB8r0Cy7bPfyzYVsBXwPXrCthnZwUOSehlWYXZNs1u5Cdb/ZkpiUEhYEooMZiwxGCIJQZDlBgMUYbJh5frR4T8OdTdNPpBqBzymSKZMYc8y8shzypyyLNOpngKPDZ/csjXeY7Se+5iyIf9IR+tVgQXuC7kBSRXPOKIMI/7PYGX97gwTweEDWG+NFP+lO9QInFFmdEHtI2xXrRIzPPmkn6j1pV9UbSOwV92k3ED6KX/vHK2GmVTghj4WJrJtdPWJlv8yvFcxK+IUo7PJP7qYlDaau/4mzLaWBrHTBoRhEcjredocJSJaEoCkrCdDpamxEzrEPL9Ifl8P+UsEJEFGGUC+6QISAo0WhS2I6loJmbaBIWZQjLJCdMnJ0xQ1idwtgiIKVor7OQSksGZyZkUM5HHOpotoUlf5Z6Uj+L7TTfQZQuAnzqRLlvCD+pdtoTxRX2ZqhNTcNx3i3JiCsTUG8AJZY0rFizGcvmukI1VzOpEPqVdHQIuTyXlCTSwXJ52xGmG0+X1RV4AuztvROIAnmG3KVvH9ANJHdsRfC+RmTTSxFG7TRkf7CfKTELShX5JzGTU7bh8OsfFQ1xvKmayL0FvVGay39kRAGaziw5g2QJr6GG1BXW5RzyBDDAPnB2lE1lcatZumvd5U7TTTDH1ntqtafbpbv29/3e2mmOls+ocVR0CfQR2aM3B2uFK8VwD/m7z9z1nZHrdF173hdd94f94X7hZTTJKAb+0dSxko2alknNsjmiR81RbK9BSXllKhjTm2i4nficnQUszppywNgEs73aCus3Z9RFG2N/FSIQ2IUohCyY3TnbVb1lqKEXjYClMsVmqJqmGrKOvOUU8o2VcqpaRCsSCcifbxgd2ufgo29j9tvFB73gRTVlsY+xKYj4XzUaAGgzurbJgIu2orsjEkpZz4h9MKQxyZXtx88+Pn0nuu7tv//54f/vpP9+mN9cfrmnAO/2WtEyshjN8bNOhb+C7EtmX6gJLwR/n6kPCoFQjla738V840H0wfm2hgTbaQEik863zugh8VyopO6/v5LX11S5tX2ODS7ZNwhBtOrLBJau/HFZAOoElhUgRitx6c/KF3Td779aU4v4pdYLmKR2okU3aL48OuFLQz/J0dZnVZlU37mD3rBtrl9pG45jd7g/xr8YOkAL+X/aGTO5EPKwU68aDygCQ91avxbICdjSXV8/O01aw5WjiYKWhIGNsV+r7WtaX72Ulcl91IDdbWb+bx9dunaDqytjQHAoMHcuUAUVaye3fJo6OvSbtTXZog4S17isneuwjVldrwd4WYF4VLxbMCTEvpvHFfKE1LyMog7T/p7b85jXvy2CcO6ANr+vO9t2MZdZrTWRY2Rzo1KD9nXY+207Uw93vukEMm0OwymdB8dDeALiyN8xywpFbA9i1rYYW6J3HTt65toYDLWtwTlFRAzugL3gIUuEAMWk/DB68A5Y9ZNk7HrMvbRnXrRjXUc7h+NmJjWG1kbrkMWioZHLc+LXxsMv4le2/E3S0z6ycmIhOWWQXjNsuo/3h+BBkrrIFmtWPatp2LvGotut4Mu02TrcRftrmKSVwkzecHDNFWrlYtD3lzf5nETnBPlbGzdbICPX6TO2OHLip3c+UFDlChUqRuSqFjfKNSpWKcHSBdGSVCLFPUbfOL+SqWxJ8l47L485TEMGIV7VtoWxFxtsdvHYs/yDW46nRfJU3ibZpEx0qw4/qbKDKPgBSPW+Jip6WfvSD9WMtnlYsDt4rLymDh9QlWPBhtOxpbwL8FuunNes3myakLZUKt9mkVG8q2icD5UlPaVNIcfIUKxYVysZplrZw1Gu2ZhEwFgOUgJ2WfJ1SrdEMkDZPDM+NtW9RlQYqZKxn7uwBQoVlX0gEkg4+UalkVCSw0hnDC1fycUHcNcSPyLFMKT4wCSaenHrMkTifJ2CkpQCX9ftLADCMsNVjpgEYRtiYqte3AATagpRGCwRgIAAt1X4ZQGce8eLRsQCu9C0FwNgAPJBMnxjKM+pORe29NS8f9YzgjHVNKSrqmTtjLRQuoy7t9WS4Q4Uqem3NOVFfeR2IUefKdU5AtkoXE5TRiU+BCtDz7eIn3tycDrWyzpgA34HT4ehqNXttToejqwnlB6fjh2chctveRMoXKBNDo0LipyX8DMgFIHCf3OdW3g4Tn3PtVZ1aT5WdpvWsFirirSMjRLJkpKvfAY5+RK/WHg1HP6InVNqDI9DCE7vv74Lkymt4gmRsSO7pVTzfhlH8xFG8e80dhZfvJ2n0jlqZNj9Jo3fUWnnRT9DzYxDrfh8/WXmbkv0kmj7it3tWT5VPMNTR9sfVM0K9t8fCCULO7YWSXkaMA2UP9ViOlXGzNTJ3PPj6TO2OHLjY7sfaWWEqd1aEwkb5RqWn7qdgWKk4Q3DlodFcd+626c7YQ9m1XaFCwyjs4LFj2TmOgUp8mg8tZi7ycg+FguacRd5a1yro1kNxL6qHMltyyfrNppR4q8R94NmmYmZLKp7WqIGkeAoGfrF5sX2y1qqSm90Tt09eUBekRkPv93VHeag7ThgxlB1LL6PZVdGJ5m0Q8Iz1lF175Rr7KvrY5wTP2BgLfCLmx5j81J0wx3Z0Il+M5fMqPzGB+AJ8J/vB7DH1DKq+k7mzxwiFe3yn1eJWWxVpT4Bz+s7ai/M41OKPfGZ0+u4wuwK/sec1vzL48l0BRweoSUhzBRwdQCi/xxU6KqiYCP8zesJKL048YX6XZs9TwOdsxLywwyQjOmNfE9CldApQkz7td7Kps6C80nsLOigEfm8qhIo11XgvI5nKdpyjpRYMi3FTLcqf0bl01rixBxKn2ZiPebT/P5FcSWEozx0oQ3/Y0LqEut9wCkUVEpdmulI3Ky+zJimoSIRPuvxMgAsspHgJk/AAIwovRLKz8EIwnu/zytiQ+B135nrDb5Ez1xnnZKDVQMktsyLyG+jMM2D4B4ohFIpu5h8jyHXm5nuYJ2KYlSUzyxCiRnh5DnxzlJkJM0+WWXkBwpNF8XuUIUS5gQRq2iWGq0EBVQowSKFZOxPDljpfnub3EyNDuO35OxWpxPBbK3XKpQCDTYiHtIDUmY5YABFxtDFxKWnRrkcj2l3UooyQO+artiy6l2LLont9yItOWPTVidVXGPoFYFl0v1QoVDZUNQrwPeim3njAsp0bzAw8CwgFpAoI8Hxl5jNwUACF4gEVbuFXf5hvnB0HykKz1xUPk7n47GHVEducO5ftVtc5d7NDFwPNXl20YFlnvrvGVcOgi7+GVYnOA792eg3i1yB+DeLvIYhvhqYuyZSYheHETk/cTLWrPxQh16R8jrgO139BUZrvtaNf3zM/+QcRnDf9FzgYVFAKZW5kc3RyZWFtCmVuZG9iagoKMjUgMCBvYmoKPDwKL1R5cGUgL1BhdHRlcm4KL1BhdHRlcm5UeXBlIDEKL1BhaW50VHlwZSAxCi9UaWxpbmdUeXBlIDEKL0JCb3ggWyAwIDAgODQyIDU5OSBdCi9YU3RlcCA4NDIKL1lTdGVwIDU5OQovUmVzb3VyY2VzIDw8Ci9Qcm9jU2V0IFsgL1BERiAvVGV4dCAvSW1hZ2VCIC9JbWFnZUMgL0ltYWdlSSBdCi9FeHRHU3RhdGUgPDwKL0czIDI0IDAgUgo+PgovWE9iamVjdCA8PAovWDQgMjYgMCBSCj4+Cj4+Ci9NYXRyaXggWyAxLjAwMDAwMDEyIDAgMCAtMSAwIDU5OSBdCi9MZW5ndGggNTgKPj4Kc3RyZWFtCnEKODQyIDAgMCAtNTk5IDAgNTk5IGNtCjAgMCAwIFJHIDAgMCAwIHJnCi9HMyBncwovWDQgRG8KUQoKZW5kc3RyZWFtCmVuZG9iagoKMjYgMCBvYmoKPDwKL1R5cGUgL1hPYmplY3QKL1N1YnR5cGUgL0ltYWdlCi9XaWR0aCA4NDIKL0hlaWdodCA1OTkKL0NvbG9yU3BhY2UgL0RldmljZVJHQgovU01hc2sgMjcgMCBSCi9CaXRzUGVyQ29tcG9uZW50IDgKL0ZpbHRlciAvRmxhdGVEZWNvZGUKL0xlbmd0aCAyMDU2Ngo+PgpzdHJlYW0KeJzt3dFu47rWddvz/s+m2lFg5EMCX/JFDrEIGvVPKoWkKrZHH0PzYmGDm27p9FXKkaV9/3/m7e2ttbYv8/Ly8uvXr/7f9f/q+/ur1vVnsaDUKBaUas+CUnNYUGoUC0r1ZsdmRKose7lcXl9f//za2/Sdff9Xdj6dBaW6sqBUYxaUerJ3Mk/2Wywo1ZsFpSqwZeX9/f3wV77//e9//TfJ/t/1/+r7+6v+/IMeyYJSo1hQqj0LSs1hQalRLCjVmx2bEalS7P83p/03ZbHPrzm/L95+Vp91/VksKNWbLaOcmsOCUtNYUGoUC0r1Ztsc/VRN1uAIoFRvtoxyag4LSk1jQalRLCjVm21z9FM1WYMjgFK92TLKqTksKDWNBaVGsaBUb7bN0U/VYcefaH+fdfH//u//+g/q//19cfzxty0z1p/FglK92cPRTM1hQalpLCg1kAWlurKHo5kqwl4ul3Xz+DptmdfX1y/ufDoLSvVm72Gy3gFBFpSaxoJS01hQqjF7D5P1DnyLXb+Ke71eD7+psW3buth39v3r+nNZUKo3C0rNYUGpaSwoNYoFpXqzoFQFtqx8fHy0/z4nLLfRO/x+7tjT9/dXrT/uWSwoNYoFpRqzoNQ0FpQaxYJSvdmxGZGqw+78Swf38+JkPbaMcmoOC0pNY0GpUSwo1Zttc/RTNVmDI4BSvdkyyqk5LCg1jQWlRrGgVG+2zdFP1WQNjgBK9WbLKKfmsKDUNBaUGsWCUr3ZNkc/VZM1OAIo1Zsto5yaw4JS01hQahQLSvVm2xz9VB12XL83ZtxfpSx+NuOSvzbvzVLWpVhQqg1bRjk1hwWlniwr1ZUFpXqzYzMiVYctwuvr67Zth/K62Hf2/ev6c1lQqjcLSs1hQalpLCg1igWlerOgVAXW4xfU85/AgmwZ5dQcFpR6sqxUVxaU6s2en939Bbvz/7i8n5ev6LFllFNzWFBqGgtKjWJBqd5sm6OfqskaHAGU6s2WUU7NYUGpaSwoNYoFpXqzbY5+qiZrcARQqjdbRjk1hwWlprGg1CgWlOrNtjn6qZqswRFAqd5sGeXUHBaUmsaCUqNYUKo32+bop0qxt3l/fx+LP/vUs0eyoNQoFpRqzIJS01hQahQLSvVmv/icWYVUEXZ8bfb3eXt7K+aYbdvWxb7zer2u689lQaneLCg1hwWlprGg1CgWlOrNglIV2Mvl0pbpL18X+8vXxS6si32ey4JSvdl7mKx3QJAFpaaxoNQ0FpRqzN7DZL0D32L3+SFeWRyfgt5m3F9l3ETlNv2F+/wr8Lr+LBaU6s0ejmZqDgtKTWNBqYEsKNWVPRzNVB12t7h0kJjqzZZRTs1hQalpLCg1igWlerNtjn6qJmtwBFCqN1tGOTWHBaWmsaDUKBaU6s22OfqpmqzBEUCp3mwZ5dQcFpSaxoJSo1hQqjfb5uinarIGRwClerNllFNzWFBqGgtKjWJBqd5sm6OfKsXe5nb3lTKHd1+5/axxUd8f5pEsKDWKBaXas6DUHBaUGsWCUr3ZsRmRKsteLpf13imfTd/Z939l59NZUKorC0o1ZkGpJ3sn82S/xYJSvVlQqgJbVgx+QQWlRrGgVHsWlJrDglKjWFCqN3t+dvd3rMEfl4mp3mwZ5dQcFpSaxoJSo1hQqjfb5uinarIGRwClerNllFNzWFBqGgtKjWJBqd5sm6OfqskaHAGU6s2WUU7NYUGpaSwoNYoFpXqzbY5+qg57+ACLsvhTz8V4AAtK9WYPRzM1hwWlprGg1EAWlOrKHo5mqgh7+PDZwyfV/vszbR/GglK92XuYrHdAkAWlprGg1DQWlGrM3sNkvQPfYtev4l6v18Nvamzbti72nX3/uv5cFpTqzYJSc1hQahoLSo1iQaneLChVgS0rHx8f7b/PCV9eXor5a/l+7tjT9/dXrT/uWSwoNYoFpRqzoNQ0FpQaxYJSvdmxGZGqw+78Swf38+JkPbaMcmoOC0pNY0GpUSwo1Zttc/RTNVmDI4BSvdkyyqk5LCg1jQWlRrGgVG+2zdFP1WQNjgBK9WbLKKfmsKDUNBaUGsWCUr3ZNkc/VZM1OAIo1Zsto5yaw4JS01hQahQLSvVm2xz9VB12XL83ZtxfpSx+NuOSvzbvzVLWpVhQqg1bRjk1hwWlniwr1ZUFpXqzYzMiVYctwuvr67Zth/K62Hf2/ev6c1lQqjcLSs1hQalpLCg1igWlerOgVAXW4xfU85/AgmwZ5dQcFpR6sqxUVxaU6s2en939Bbvz/7i8n5ev6LFllFNzWFBqGgtKjWJBqd5sm6OfqskaHAGU6s2WUU7NYUGpaSwoNYoFpXqzbY5+qiZrcARQqjdbRjk1hwWlprGg1CgWlOrNtjn6qZqswRFAqd5sGeXUHBaUmsaCUqNYUKo32+bop0qxt3l/fx+LP/vUs0eyoNQoFpRqzIJS01hQahQLSvVmv/icWYVUEXZ8bfb3eXt7K+aYbdvWxb7zer2u689lQaneLCg1hwWlprGg1CgWlOrNglIV2Mvl0pbpL18X+8vXxS6si32ey4JSvdl7mKx3QJAFpaaxoNQ0FpRqzN7DZL0D32L3+SFeWRyfgt5m3F9l3ETlNv2F+/wr8Lr+LBaU6s0ejmZqDgtKTWNBqYEsKNWVPRzNVB12t7h0kJjqzZZRTs1hQalpLCg1igWlerNtjn6qJmtwBFCqN1tGOTWHBaWmsaDUKBaU6s22OfqpmqzBEUCp3mwZ5dQcFpSaxoJSo1hQqjfb5uinSrG3uX0/t8zh93NvP2v82fcP80gWlBrFglLtWVBqDgtKjWJBqd7s2IxIlWUvl8v67drPpu/s+7+y8+ksKNWVBaUas6DUk72TebLfYkGp3iwoVYEtKwa/oIJSo1hQqj0LSs1hQalRLCjVmz0/u/s71uCPy8RUb7aMcmoOC0pNY0GpUSwo1Zttc/RTNVmDI4BSvdkyyqk5LCg1jQWlRrGgVG+2zdFP1WQNjgBK9WbLKKfmsKDUNBaUGsWCUr3ZNkc/VYc9vMVxWfypOyc/gAWlerOHo5maw4JS01hQaiALSnVlD0czVYQ9fDzZ4bPM/v2pZw9jQane7D1M1jsgyIJS01hQahoLSjVm72Gy3oFvsetXca/X6+E3NbZtWxf7zr5/XX8uC0r1ZkGpOSwoNY0FpUaxoFRvFpSqwJaV8Sjb/j9eXl6K+Wv5fu7Y0/f3V60/7lksKDWKBaUas6DUNBaUGsWCUr3ZsRmRqsPu/EsH9/PiZD22jHJqDgtKTWNBqVEsKNWbbXP0UzVZgyOAUr3ZMsqpOSwoNY0FpUaxoFRvts3RT9VkDY4ASvVmyyin5rCg1DQWlBrFglK92TZHP1WTNTgCKNWbLaOcmsOCUtNYUGoUC0r1Ztsc/VQddly/N2bcX6Usfjbjkr82781S1qVYUKoNW0Y5NYcFpZ4sK9WVBaV6s2MzIlWHLcLr6+u2bYfyuth39v3r+nNZUKo3C0rNYUGpaSwoNYoFpXqzoFQF1uMX1POfwIJsGeXUHBaUerKsVFcWlOrNnp/d/QW78/+4vJ+Xr+ixZZRTc1hQahoLSo1iQanebJujn6rJGhwBlOrNllFOzWFBqWksKDWKBaV6s22Ofqoma3AEUKo3W0Y5NYcFpaaxoNQoFpTqzbY5+qmarMERQKnebBnl1BwWlJrGglKjWFCqN9vm6KdKsbd5f38fiz/71LNHsqDUKBaUasyCUtNYUGoUC0r1Zr/4nFmFVBF2fG3293l7eyvmmG3b1sW+83q9ruvPZUGp3iwoNYcFpaaxoNQoFpTqzYJSFdjL5dKW6S9fF/vL18UurIt9nsuCUr3Ze5isd0CQBaWmsaDUNBaUaszew2S9A99i9/khXlkcn4LeZtxfZdxE5Tb9hfv8K/C6/iwWlOrNHo5mag4LSk1jQamBLCjVlT0czVQddre4dJCY6s2WUU7NYUGpaSwoNYoFpXqzbY5+qiZrcARQqjdbRjk1hwWlprGg1CgWlOrNtjn6qZqswRFAqd5sGeXUHBaUmsaCUqNYUKo32+bop2qyBkcApXqzZZRTc1hQahoLSo1iQanebJujnyrF3uZ295Uyh3dfuf2scVHfH+aRLCg1igWl2rOg1BwWlBrFglK92bEZkSrLXi6X9d4pn03f2fd/ZefTWVCqKwtKNWZBqSd7J/Nkv8WCUr1ZUKoCW1YMfkEFpUaxoFR7FpSaw4JSo1hQqjd7fnb3d6zBH5eJqd5sGeXUHBaUmsaCUqNYUKo32+bop2qyBkcApXqzZZRTc1hQahoLSo1iQanebJujn6rJGhwBlOrNllFOzWFBqWksKDWKBaV6s22OfqoOe/gAi7L4U8/FeAALSvVmD0czNYcFpaaxoNRAFpTqyh6OZqoIe/jw2cMn1f77M20fxoJSvdl7mKx3QJAFpaaxoNQ0FpRqzN7DZL0D32LXr+Jer9fDb2ps27Yu9p19/7r+XBaU6s2CUnNYUGoaC0qNYkGp3iwoVYEtKx8fH+2/zwlfXl6K+Wv5fu7Y0/f3V60/7lksKDWKBaUas6DUNBaUGsWCUr3ZsRmRqsPu/EsH9/PiZD22jHJqDgtKTWNBqVEsKNWbbXP0UzVZgyOAUr3ZMsqpOSwoNY0FpUaxoFRvts3RT9VkDY4ASvVmyyin5rCg1DQWlBrFglK92TZHP1WTNTgCKNWbLaOcmsOCUtNYUGoUC0r1Ztsc/VQddly/N2bcX6Usfjbjkr82781S1qVYUKoNW0Y5NYcFpZ4sK9WVBaV6s2MzIlWHLcLr6+u2bYfyuth39v3r+nNZUKo3C0rNYUGpaSwoNYoFpXqzoFQF1uMX1POfwIJsGeXUHBaUerKsVFcWlOrNnp/d/QW78/+4vJ+Xr+ixZZRTc1hQahoLSo1iQanebJujn6rJGhwBlOrNllFOzWFBqWksKDWKBaV6s22Ofqoma3AEUKo3W0Y5NYcFpaaxoNQoFpTqzbY5+qmarMERQKnebBnl1BwWlJrGglKjWFCqN9vm6KdKsbd5f38fiz/71LNHsqDUKBaUasyCUtNYUGoUC0r1Zr/4nFmFVBF2fG3293l7eyvmmG3b1sW+83q9ruvPZUGp3iwoNYcFpaaxoNQoFpTqzYJSFdjL5dKW6S9fF/vL18UurIt9nsuCUr3Ze5isd0CQBaWmsaDUNBaUaszew2S9A99i9/khXlkcn4LeZtxfZdxE5Tb9hfv8K/C6/iwWlOrNHo5mag4LSk1jQamBLCjVlT0czVQddre4dJCY6s2WUU7NYUGpaSwoNYoFpXqzbY5+qiZrcARQqjdbRjk1hwWlprGg1CgWlOrNtjn6qZqswRFAqd5sGeXUHBaUmsaCUqNYUKo32+bop2qyBkcApXqzZZRTc1hQahoLSo1iQanebJujnyrF3uZ295Uyh3dfuf2scVHfH+aRLCg1igWl2rOg1BwWlBrFglK92bEZkSrLXi6X9d4pn03f2fd/ZefTWVCqKwtKNWZBqSd7J/Nkv8WCUr1ZUKoCW1YMfkEFpUaxoFR7FpSaw4JSo1hQqjd7fnb3d6zBH5eJqd5sGeXUHBaUmsaCUqNYUKo32+bop2qyBkcApXqzZZRTc1hQahoLSo1iQanebJujn6rJGhwBlOrNllFOzWFBqWksKDWKBaV6s22OfqoOe/gAi7L4U8/FeAALSvVmD0czNYcFpaaxoNRAFpTqyh6OZqoIe/jw2cMn1f77M20fxoJSvdl7mKx3QJAFpaaxoNQ0FpRqzN7DZL0D32LXr+Jer9fDb2ps27Yu9p19/7r+XBaU6s2CUnNYUGoaC0qNYkGp3iwoVYEtKx8fH+2/zwlfXl6K+Wv5fu7Y0/f3V60/7lksKDWKBaUas6DUNBaUGsWCUr3ZsRmRqsPu/EsH9/PiZD22jHJqDgtKTWNBqVEsKNWbbXP0UzVZgyOAUr3ZMsqpOSwoNY0FpUaxoFRvts3RT9VkDY4ASvVmyyin5rCg1DQWlBrFglK92TZHP1WTNTgCKNWbLaOcmsOCUtNYUGoUC0r1Ztsc/VQddly/N2bcX6Usfjbjkr82781S1qVYUKoNW0Y5NYcFpZ4sK9WVBaV6s2MzIlWHLcLr6+u2bYfyuth39v3r+nNZUKo3C0rNYUGpaSwoNYoFpXqzoFQF1uMX1POfwIJsGeXUHBaUerKsVFcWlOrNnp/d/QW78/+4vJ+Xr+ixZZRTc1hQahoLSo1iQanebJujn6rJGhwBlOrNllFOzWFBqWksKDWKBaV6s22Ofqoma3AEUKo3W0Y5NYcFpaaxoNQoFpTqzbY5+qmarMERQKnebBnl1BwWlJrGglKjWFCqN9vm6KdKsbd5f38fiz/71LNHsqDUKBaUasyCUtNYUGoUC0r1Zr/4nFmFVBF2fG3293l7eyvmmG3b1sW+83q9ruvPZUGp3iwoNYcFpaaxoNQoFpTqzYJSFdjL5dKW6S9fF/vL18UurIt9nsuCUr3Ze5isd0CQBaWmsaDUNBaUaszew2S9A99i9/khXlkcn4LeZtxfZdxE5Tb9hfv8K/C6/iwWlOrNHo5mag4LSk1jQamBLCjVlT0czVQddre4dJCY6s2WUU7NYUGpaSwoNYoFpXqzbY5+qiZrcARQqjdbRjk1hwWlprGg1CgWlOrNtjn6qZqswRFAqd5sGeXUHBaUmsaCUqNYUKo32+bop2qyBkcApXqzZZRTc1hQahoLSo1iQanebJujnyrF3uZ295Uyh3dfuf2scVHfH+aRLCg1igWl2rOg1BwWlBrFglK92bEZkSrLXi6X9d4pn03f2fd/ZefTWVCqKwtKNWZBqSd7J/Nkv8WCUr1ZUKoCW1YMfkEFpUaxoFR7FpSaw4JSo1hQqjd7fnb3d6zBH5eJqd5sGeXUHBaUmsaCUqNYUKo32+bop2qyBkcApXqzZZRTc1hQahoLSo1iQanebJujn6rJGhwBlOrNllFOzWFBqWksKDWKBaV6s22OfqoOe/gAi7L4U8/FeAALSvVmD0czNYcFpaaxoNRAFpTqyh6OZqoIe/jw2cMn1f77M20fxoJSvdl7mKx3QJAFpaaxoNQ0FpRqzN7DZL0D32LXr+Jer9fDb2ps27Yu9p19/7r+XBaU6s2CUnNYUGoaC0qNYkGp3iwoVYEtKx8fH+2/zwlfXl6K+Wv5fu7Y0/f3V60/7lksKDWKBaUas6DUNBaUGsWCUr3ZsRmRqsPu/EsH9/PiZD22jHJqDgtKTWNBqVEsKNWbbXP0UzVZgyOAUr3ZMsqpOSwoNY0FpUaxoFRvts3RT9VkDY4ASvVmyyin5rCg1DQWlBrFglK92TZHP1WTNTgCKNWbLaOcmsOCUtNYUGoUC0r1Ztsc/VQddly/N2bcX6Usfjbjkr82781S1qVYUKoNW0Y5NYcFpZ4sK9WVBaV6s2MzIlWHLcLr6+u2bYfyuth39v3r+nNZUKo3C0rNYUGpaSwoNYoFpXqzoFQF1uMX1POfwIJsGeXUHBaUerKsVFcWlOrNnp/d/QW78/+4vJ+Xr+ixZZRTc1hQahoLSo1iQanebJujn6rJGhwBlOrNllFOzWFBqWksKDWKBaV6s22Ofqoma3AEUKo3W0Y5NYcFpaaxoNQoFpTqzbY5+qmarMERQKnebBnl1BwWlJrGglKjWFCqN9vm6KdKsbd5f38fiz/71LNHsqDUKBaUasyCUtNYUGoUC0r1Zr/4nFmFVBF2fG3293l7eyvmmG3b1sW+83q9ruvPZUGp3iwoNYcFpaaxoNQoFpTqzYJSFdjL5dKW6S9fF/vL18UurIt9nsuCUr3Ze5isd0CQBaWmsaDUNBaUaszew2S9A99i9/khXlkcn4LeZtxfZdxE5Tb9hfv8K/C6/iwWlOrNHo5mag4LSk1jQamBLCjVlT0czVQddre4dJCY6s2WUU7NYUGpaSwoNYoFpXqzbY5+qiZrcARQqjdbRjk1hwWlprGg1CgWlOrNtjn6qZqswRFAqd5sGeXUHBaUmsaCUqNYUKo32+bop2qyBkcApXqzZZRTc1hQahoLSo1iQanebJujnyrF3uZ295Uyh3dfuf2scVHfH+aRLCg1igWl2rOg1BwWlBrFglK92bEZkSrLXi6X9d4pn03f2fd/ZefTWVCqKwtKNWZBqSd7J/Nkv8WCUr1ZUKoCW1YMfkEFpUaxoFR7FpSaw4JSo1hQqjd7fnb3d6zBH5eJqd5sGeXUHBaUmsaCUqNYUKo32+bop2qyBkcApXqzZZRTc1hQahoLSo1iQanebJujn6rJGhwBlOrNllFOzWFBqWksKDWKBaV6s22OfqoOe/gAi7L4U8/FeAALSvVmD0czNYcFpaaxoNRAFpTqyh6OZqoIe/jw2cMn1f77M20fxoJSvdl7mKx3QJAFpaaxoNQ0FpRqzN7DZL0D32LXr+Jer9fDb2ps27Yu9p19/7r+XBaU6s2CUnNYUGoaC0qNYkGp3iwoVYEtKx8fH+2/zwlfXl6K+Wv5fu7Y0/f3V60/7lksKDWKBaUas6DUNBaUGsWCUr3ZsRmRqsPu/EsH9/PiZD22jHJqDgtKTWNBqVEsKNWbbXP0UzVZgyOAUr3ZMsqpOSwoNY0FpUaxoFRvts3RT9VkDY4ASvVmyyin5rCg1DQWlBrFglK92TZHP1WTNTgCKNWbLaOcmsOCUtNYUGoUC0r1Ztsc/VQddly/N2bcX6Usfjbjkr82781S1qVYUKoNW0Y5NYcFpZ4sK9WVBaV6s2MzIlWHLcLr6+u2bYfyuth39v3r+nNZUKo3C0rNYUGpaSwoNYoFpXqzoFQF1uMX1POfwIJsGeXUHBaUerKsVFcWlOrNnp/d/QW78/+4vJ+Xr+ixZZRTc1hQahoLSo1iQanebJujn6rJGhwBlOrNllFOzWFBqWksKDWKBaV6s22Ofqoma3AEUKo3W0Y5NYcFpaaxoNQoFpTqzbY5+qlS7G3e39/H4s8+F+ORLCg1igWlGrOg1DQWlBrFglK92S8+iUwhVYRdHz779vZWzDH/+EzbR7KgVG8WlJrDglLTWFBqFAtK9WZBqQrs5XJpy/SXr4v95etiF9bFPs9lQane7D1M1jsgyIJS01hQahoLSjVm72Gy3oFvsfv8EK8sjk9BbzO+gTu+Znub/sJ9/hV4XX8WC0r1Zg9HMzWHBaWmsaDUQBaU6soejmaqDrtbXDpITPVmyyin5rCg1DQWlBrFglK92TZHP1WTNTgCKNWbLaOcmsOCUtNYUGoUC0r1Ztsc/VRN1uAIoFRvtoxyag4LSk1jQalRLCjVm21z9FM1WYMjgFK92TLKqTksKDWNBaVGsaBUb7bN0U+VYm9zu/tKmcO7r9x+1rio7w/zSBaUGsWCUu1ZUGoOC0qNYkGp3uzYjEiVZS+Xy3rvlM+m7+z7v7Lz6Swo1ZUFpRqzoNSTvZN5st9iQaneLChVgS0rBr+gglKjWFCqPQtKzWFBqVEsKNWbPT+7+zvW4I/LxFRvtoxyag4LSk1jQalRLCjVm21z9FM1WYMjgFK92TLKqTksKDWNBaVGsaBUb7bN0U/VZA2OAEr1Zssop+awoNQ0FpQaxYJSvdk2Rz9Vhz18gEVZ/KnnYjyABaV6s4ejmZrDglLTWFBqIAtKdWUPRzNVhD18+Ozhk2r//Zm2D2NBqd7sPUzWOyDIglLTWFBqGgtKNWbvYbLegW+x61dxr9fr4Tc1tm1bF/vOvn9dfy4LSvVmQak5LCg1jQWlRrGgVG8WlKrAlpWPj4/23+eELy8vxfy1fD937On7+6vWH/csFpQaxYJSjVlQahoLSo1iQane7NiMSNVhd/6lg/t5cbIeW0Y5NYcFpaaxoNQoFpTqzbY5+qmarMERQKnebBnl1BwWlJrGglKjWFCqN9vm6KdqsgZHAKV6s2WUU3NYUGoaC0qNYkGp3mybo5+qyRocAZTqzZZRTs1hQalpLCg1igWlerNtjn6qDjuu3xsz7q9SFj+bcclfm/dmKetSLCjVhi2jnJrDglJPlpXqyoJSvdmxGZGqwxbh9fV127ZDeV3sO/v+df25LCjVmwWl5rCg1DQWlBrFglK9WVCqAuvxC+r5T2BBtoxyag4LSj1ZVqorC0r1Zs/P7v6C3fl/XN7Py1f02DLKqTksKDWNBaVGsaBUb7bN0U/VZA2OAEr1Zssop+awoNQ0FpQaxYJSvdk2Rz9VkzU4AijVmy2jnJrDglLTWFBqFAtK9WbbHP1UTdbgCKBUb7aMcmoOC0pNY0GpUSwo1Zttc/RTpdjbvL+/j8WfferZI1lQahQLSjVmQalpLCg1igWlerNffM6sQqoIO742+/u8vb0Vc8y2beti33m9Xtf157KgVG8WlJrDglLTWFBqFAtK9WZBqQrs5XJpy/SXr4v95etiF9bFPs9lQane7D1M1jsgyIJS01hQahoLSjVm72Gy3oFvsfv8EK8sjk9BbzPurzJuonKb/sJ9/hV4XX8WC0r1Zg9HMzWHBaWmsaDUQBaU6soejmaqDrtbXDpITPVmyyin5rCg1DQWlBrFglK92TZHP1WTNTgCKNWbLaOcmsOCUtNYUGoUC0r1Ztsc/VRN1uAIoFRvtoxyag4LSk1jQalRLCjVm21z9FM1WYMjgFK92TLKqTksKDWNBaVGsaBUb7bN0U+VYm9zu/tKmcO7r9x+1rio7w/zSBaUGsWCUu1ZUGoOC0qNYkGp3uzYjEiVZS+Xy3rvlM+m7+z7v7Lz6Swo1ZUFpRqzoNSTvZN5st9iQaneLChVgS0rBr+gglKjWFCqPQtKzWFBqVEsKNWbPT+7+zvW4I/LxFRvtoxyag4LSk1jQalRLCjVm21z9FM1WYMjgFK92TLKqTksKDWNBaVGsaBUb7bN0U/VZA2OAEr1Zssop+awoNQ0FpQaxYJSvdk2Rz9Vhz18gEVZ/KnnYjyABaV6s4ejmZrDglLTWFBqIAtKdWUPRzNVhD18+Ozhk2r//Zm2D2NBqd7sPUzWOyDIglLTWFBqGgtKNWbvYbLegW+x61dxr9fr4Tc1tm1bF/vOvn9dfy4LSvVmQak5LCg1jQWlRrGgVG8WlKrAlpWPj4/23+eELy8vxfy1fD937On7+6vWH/csFpQaxYJSjVlQahoLSo1iQane7NiMSNVhd/6lg/t5cbIeW0Y5NYcFpaaxoNQoFpTqzbY5+qmarMERQKnebBnl1BwWlJrGglKjWFCqN9vm6KdqsgZHAKV6s2WUU3NYUGoaC0qNYkGp3mybo5+qyRocAZTqzZZRTs1hQalpLCg1igWlerNtjn6qDjuu3xsz7q9SFj+bcclfm/dmKetSLCjVhi2jnJrDglJPlpXqyoJSvdmxGZGqwxbh9fV127ZDeV3sO/v+df25LCjVmwWl5rCg1DQWlBrFglK9WVCqAuvxC+r5T2BBtoxyag4LSj1ZVqorC0r1Zs/P7v6C3fl/XN7Py1f02DLKqTksKDWNBaVGsaBUb7bN0U/VZA2OAEr1Zssop+awoNQ0FpQaxYJSvdk2Rz9VkzU4AijVmy2jnJrDglLTWFBqFAtK9WbbHP1UTdbgCKBUb7aMcmoOC0pNY0GpUSwo1Zttc/RTpdjbvL+/j8WfferZI1lQahQLSjVmQalpLCg1igWlerNffM6sQqoIO742+/u8vb0Vc8y2beti33m9Xtf157KgVG8WlJrDglLTWFBqFAtK9WZBqQrs5XJpy/SXr4v95etiF9bFPs9lQane7D1M1jsgyIJS01hQahoLSjVm72Gy3oFvsfv8EK8sjk9BbzPurzJuonKb/sJ9/hV4XX8WC0r1Zg9HMzWHBaWmsaDUQBaU6soejmaqDrtbXDpITPVmyyin5rCg1DQWlBrFglK92TZHP1WTNTgCKNWbLaOcmsOCUtNYUGoUC0r1Ztsc/VRN1uAIoFRvtoxyag4LSk1jQalRLCjVm21z9FM1WYMjgFK92TLKqTksKDWNBaVGsaBUb7bN0U+VYm9zu/tKmcO7r9x+1rio7w/zSBaUGsWCUu1ZUGoOC0qNYkGp3uzYjEiVZS+Xy3rvlM+m7+z7v7Lz6Swo1ZUFpRqzoNSTvZN5st9iQaneLChVgS0rBr+gglKjWFCqPQtKzWFBqVEsKNWbPT+7+zvW4I/LxFRvtoxyag4LSk1jQalRLCjVm21z9FM1WYMjgFK92TLKqTksKDWNBaVGsaBUb7bN0U/VZA2OAEr1Zssop+awoNQ0FpQaxYJSvdk2Rz9Vhz18gEVZ/KnnYjyABaV6s4ejmZrDglLTWFBqIAtKdWUPRzNVhD18+Ozhk2r//Zm2D2NBqd7sPUzWOyDIglLTWFBqGgtKNWbvYbLegW+x61dxr9fr4Tc1tm1bF/vOvn9dfy4LSvVmQak5LCg1jQWlRrGgVG8WlKrAlpWPj4/23+eELy8vxfy1fD937On7+6vWH/csFpQaxYJSjVlQahoLSo1iQane7NiMSNVhd/6lg/t5cbIeW0Y5NYcFpaaxoNQoFpTqzbY5+qmarMERQKnebBnl1BwWlJrGglKjWFCqN9vm6KdqsgZHAKV6s2WUU3NYUGoaC0qNYkGp3mybo5+qyRocAZTqzZZRTs1hQalpLCg1igWlerNtjn6qDjuu3xsz7q9SFj+bcclfm/dmKetSLCjVhi2jnJrDglJPlpXqyoJSvdmxGZGqwxbh9fV127ZDeV3sO/v+df25LCjVmwWl5rCg1DQWlBrFglK9WVCqAuvxC+r5T2BBtoxyag4LSj1ZVqorC0r1Zs/P7v6C3fl/XN7Py1f02DLKqTksKDWNBaVGsaBUb7bN0U/VZA2OAEr1Zssop+awoNQ0FpQaxYJSvdk2Rz9VkzU4AijVmy2jnJrDglLTWFBqFAtK9WbbHP1UTdbgCKBUb7aMcmoOC0pNY0GpUSwo1Zttc/RTpdjbvL+/j8WfferZI1lQahQLSjVmQalpLCg1igWlerNffM6sQqoIO742+/u8vb0Vc8y2beti33m9Xtf157KgVG8WlJrDglLTWFBqFAtK9WZBqQrs5XJpy/SXr4v95etiF9bFPs9lQane7D1M1jsgyIJS01hQahoLSjVm72Gy3oFvsfv8EK8sjk9BbzPurzJuonKb/sJ9/hV4XX8WC0r1Zg9HMzWHBaWmsaDUQBaU6soejmaqDrtbXDpITPVmyyin5rCg1DQWlBrFglK92TZHP1WTNTgCKNWbLaOcmsOCUtNYUGoUC0r1Ztsc/VRN1uAIoFRvtoxyag4LSk1jQalRLCjVm21z9FM1WYMjgFK92TLKqTksKDWNBaVGsaBUb7bN0U+VYm9zu/tKmcO7r9x+1rio7w/zSBaUGsWCUu1ZUGoOC0qNYkGp3uzYjEiVZS+Xy3rvlM+m7+z7v7Lz6Swo1ZUFpRqzoNSTvZN5st9iQaneLChVgS0rBr+gglKjWFCqPQtKzWFBqVEsKNWbPT+7+zvW4I/LxFRvtoxyag4LSk1jQalRLCjVm21z9FM1WYMjgFK92TLKqTksKDWNBaVGsaBUb7bN0U/VZA2OAEr1Zssop+awoNQ0FpQaxYJSvdk2Rz9Vhz18gEVZ/KnnYjyABaV6s4ejmZrDglLTWFBqIAtKdWUPRzNVhD18+Ozhk2r//Zm2D2NBqd7sPUzWOyDIglLTWFBqGgtKNWbvYbLegW+x61dxr9fr4Tc1tm1bF/vOvn9dfy4LSvVmQak5LCg1jQWlRrGgVG8WlKrAlpWPj4/23+eELy8vxfy1fD937On7+6vWH/csFpQaxYJSjVlQahoLSo1iQane7NiMSNVhd/6lg/t5cbIeW0Y5NYcFpaaxoNQoFpTqzbY5+qmarMERQKnebBnl1BwWlJrGglKjWFCqN9vm6KdqsgZHAKV6s2WUU3NYUGoaC0qNYkGp3mybo5+qyRocAZTqzZZRTs1hQalpLCg1igWlerNtjn6qDjuu3xsz7q9SFj+bcclfm/dmKetSLCjVhi2jnJrDglJPlpXqyoJSvdmxGZGqwxbh9fV127ZDeV3sO/v+df25LCjVmwWl5rCg1DQWlBrFglK9WVCqAuvxC+r5T2BBtoxyag4LSj1ZVqorC0r1Zs/P7v6C3fl/XN7Py1f02DLKqTksKDWNBaVGsaBUb7bN0U/VZA2OAEr1Zssop+awoNQ0FpQaxYJSvdk2Rz9VkzU4AijVmy2jnJrDglLTWFBqFAtK9WbbHP1UTdbgCKBUb7aMcmoOC0pNY0GpUSwo1Zttc/RTpdjbvL+/j8WfferZI1lQahQLSjVmQalpLCg1igWlerNffM6sQqoIO742+/u8vb0Vc8y2beti33m9Xtf157KgVG8WlJrDglLTWFBqFAtK9WZBqQrs5XJpy/SXr4v95etiF9bFPs9lQane7D1M1jsgyIJS01hQahoLSjVm72Gy3oFvsfv8EK8sjk9BbzPurzJuonKb/sJ9/hV4XX8WC0r1Zg9HMzWHBaWmsaDUQBaU6soejmaqDrtbXDpITPVmyyin5rCg1DQWlBrFglK92TZHP1WTNTgCKNWbLaOcmsOCUtNYUGoUC0r1Ztsc/VRN1uAIoFRvtoxyag4LSk1jQalRLCjVm21z9FM1WYMjgFK92TLKqTksKDWNBaVGsaBUb7bN0U+VYm9zu/tKmcO7r9x+1rio7w/zSBaUGsWCUu1ZUGoOC0qNYkGp3uzYjEiVZS+Xy3rvlM+m7+z7v7Lz6Swo1ZUFpRqzoNSTvZN5st9iQaneLChVgS0rBr+gglKjWFCqPQtKzWFBqVEsKNWbPT+7+zvW4I/LxFRvtoxyag4LSk1jQalRLCjVm21z9FM1WYMjgFK92TLKqTksKDWNBaVGsaBUb7bN0U/VZA2OAEr1Zssop+awoNQ0FpQaxYJSvdk2Rz9Vhz18gEVZ/KnnYjyABaV6s4ejmZrDglLTWFBqIAtKdWUPRzNVhD18+Ozhk2r//Zm2D2NBqd7sPUzWOyDIglLTWFBqGgtKNWbvYbLegW+x61dxr9fr4Tc1tm1bF/vOvn9dfy4LSvVmQak5LCg1jQWlRrGgVG8WlKrAlpWPj4/23+eELy8vxfy1fD937On7+6vWH/csFpQaxYJSjVlQahoLSo1iQane7NiMSNVhd/6lg/t5cbIeW0Y5NYcFpaaxoNQoFpTqzbY5+qmarMERQKnebBnl1BwWlJrGglKjWFCqN9vm6KdqsgZHAKV6s2WUU3NYUGoaC0qNYkGp3mybo5+qw46/8I4Z38Ati5/N+KNwm9/eLetSLCjVhi2jnJrDglJPlpXqyoJSvdmxGZGqwxbh9fV127ZDeV3sO/v+df25LCjVmwWl5rCg1DQWlBrFglK9WVCqAuvxC+r5T2BBtoxyag4LSj1ZVqorC0r1Zs/P7v6C3fl/XN7Py1f02DLKqTksKDWNBaVGsaBUb7bN0U/VZA2OAEr1Zssop+awoNQ0FpQaxYJSvdk2Rz9VkzU4AijVmy2jnJrDglLTWFBqFAtK9WbbHP1UTdbgCKBUb7aMcmoOC0pNY0GpUSwo1Zttc/RTpdjbvL+/j8WffS7GI1lQahQLSjVmQalpLCg1igWlerNffBKZQqoIuz589u3trZhj/vGZto9kQaneLCg1hwWlprGg1CgWlOrNglIV2Mvl0pbpL18X+8vXxS6si32ey4JSvdl7mKx3QJAFpaaxoNQ0FpRqzN7DZL0D32L3+SFeWRyfgt5m3F9l3ETlNv2F+/wr8Lr+LBaU6s0ejmZqDgtKTWNBqYEsKNWVPRzNVB12t7h0kJjqzZZRTs1hQalpLCg1igWlerNtjn6qJmtwBFCqN1tGOTWHBaWmsaDUKBaU6s22OfqpmqzBEUCp3mwZ5dQcFpSaxoJSo1hQqjfb5uinarIGRwClerNllFNzWFBqGgtKjWJBqd5sm6OfKsXe5nb3lTKHd1+5/axxUd8f5pEsKDWKBaXas6DUHBaUGsWCUr3ZsRmRKsteLpf13imfTd/Z939l59NZUKorC0o1ZkGpJ3sn82S/xYJSvVlQqgJbVgx+QQWlRrGgVHsWlJrDglKjWFCqN3t+dvd3rMEfl4mp3mwZ5dQcFpSaxoJSo1hQqjfb5uinarIGRwClerNllFNzWFBqGgtKjWJBqd5sm6OfqskaHAGU6s2WUU7NYUGpaSwoNYoFpXqzbY5+qg57+ACLsvhTz8V4AAtK9WYPRzM1hwWlprGg1EAWlOrKHo5mqgh7+PDZwyfV/vszbR/GglK92XuYrHdAkAWlprGg1DQWlGrM3sNkvQPfYtev4l6v18Nvamzbti72nX3/uv5cFpTqzYJSc1hQahoLSo1iQaneLChVgS0rHx8f7b/PCV9eXor5a/l+7tjT9/dXrT/uWSwoNYoFpRqzoNQ0FpQaxYJSvdmxGZGqw+78Swf38+JkPbaMcmoOC0pNY0GpUSwo1Zttc/RTNVmDI4BSvdkyyqk5LCg1jQWlRrGgVG+2zdFP1WQNjgBK9WbLKKfmsKDUNBaUGsWCUr3ZNkc/VZM1OAIo1Zsto5yaw4JS01hQahQLSvVm2xz9VB12XL83ZtxfpSx+NuOSvzbvzVLWpVhQqg1bRjk1hwWlniwr1ZUFpXqzYzMiVYctwuvr67Zth/K62Hf2/ev6c1lQqjcLSs1hQalpLCg1igWlerOgVAXW4xfU85/AgmwZ5dQcFpR6sqxUVxaU6s2en939Bbvz/7i8n5ev6LFllFNzWFBqGgtKjWJBqd5sm6OfqskaHAGU6s2WUU7NYUGpaSwoNYoFpXqzbY5+qiZrcARQqjdbRjk1hwWlprGg1CgWlOrNtjn6qZqswRFAqd5sGeXUHBaUmsaCUqNYUKo32+bop0qxt3l/fx+LP/vUs0eyoNQoFpRqzIJS01hQahQLSvVmv/icWYVUEXZ8bfb3eXt7K+aYbdvWxb7zer2u689lQaneLCg1hwWlprGg1CgWlOrNglIV2Mvl0pbpL18X+8vXxS6si32ey4JSvdl7mKx3QJAFpaaxoNQ0FpRqzN7DZL0D32L3+SFeWRyfgt5m3F9l3ETlNv2F+/wr8Lr+LBaU6s0ejmZqDgtKTWNBqYEsKNWVPRzNVB12t7h0kJjqzZZRTs1hQalpLCg1igWlerNtjn6qJmtwBFCqN1tGOTWHBaWmsaDUKBaU6s22OfqpmqzBEUCp3mwZ5dQcFpSaxoJSo1hQqjfb5uinarIGRwClerNllFNzWFBqGgtKjWJBqd5sm6OfKsXe5nb3lTKHd1+5/axxUd8f5pEsKDWKBaXas6DUHBaUGsWCUr3ZsRmRKsteLpf13imfTd/Z939l59NZUKorC0o1ZkGpJ3sn82S/xYJSvVlQqgJbVgx+QQWlRrGgVHsWlJrDglKjWFCqN3t+dvd3rMEfl4mp3mwZ5dQcFpSaxoJSo1hQqjfb5uinarIGRwClerNllFNzWFBqGgtKjWJBqd5sm6OfqskaHAGU6s2WUU7NYUGpaSwoNYoFpXqzbY5+qg57+ACLsvhTz8V4AAtK9WYPRzM1hwWlprGg1EAWlOrKHo5mqgh7+PDZwyfV/vszbR/GglK92XuYrHdAkAWlprGg1DQWlGrM3sNkvQPfYtev4l6v18Nvamzbti72nX3/uv5cFpTqzYJSc1hQahoLSo1iQaneLChVgS0rHx8f7b/PCV9eXor5a/l+7tjT9/dXrT/uWSwoNYoFpRqzoNQ0FpQaxYJSvdmxGZGqw+78Swf38+JkPbaMcmoOC0pNY0GpUSwo1Zttc/RTNVmDI4BSvdkyyqk5LCg1jQWlRrGgVG+2zdFP1WQNjgBK9WbLKKfmsKDUNBaUGsWCUr3ZNkc/VZM1OAIo1Zsto5yaw4JS01hQahQLSvVm2xz9VB12XL83ZtxfpSx+NuOSvzbvzVLWpVhQqg1bRjk1hwWlniwr1ZUFpXqzYzMiVYctwuvr67Zth/K62Hf2/ev6c1lQqjcLSs1hQalpLCg1igWlerOgVAXW4xfU85/AgmwZ5dQcFpR6sqxUVxaU6s2en939Bbvz/7i8n5ev6LFllFNzWFBqGgtKjWJBqd5sm6OfqskaHAGU6s2WUU7NYUGpaSwoNYoFpXqzbY5+qiZrcARQqjdbRjk1hwWlprGg1CgWlOrNtjn6qZqswRFAqd5sGeXUHBaUmsaCUqNYUKo32+bop0qxt3l/fx+LP/vUs0eyoNQoFpRqzIJS01hQahQLSvVmv/icWYVUEXZ8bfb3eXt7K+aYbdvWxb7zer2u689lQaneLCg1hwWlprGg1CgWlOrNglIV2Mvl0pbpL18X+8vXxS6si32ey4JSvdl7mKx3QJAFpaaxoNQ0FpRqzN7DZL0D32L3+SFeWRyfgt5m3F9l3ETlNv2F+/wr8Lr+LBaU6s0ejmZqDgtKTWNBqYEsKNWVPRzNVB12t7h0kJjqzZZRTs1hQalpLCg1igWlerNtjn6qJmtwBFCqN1tGOTWHBaWmsaDUKBaU6s22OfqpmqzBEUCp3mwZ5dQcFpSaxoJSo1hQqjfb5uinarIGRwClerNllFNzWFBqGgtKjWJBqd5sm6OfKsXe5nb3lTKHd1+5/axxUd8f5pEsKDWKBaXas6DUHBaUGsWCUr3ZsRmRKsteLpf13imfTd/Z939l59NZUKorC0o1ZkGpJ3sn82S/xYJSvVlQqgJbVgx+QQWlRrGgVHsWlJrDglKjWFCqN3t+dvd3rMEfl4mp3mwZ5dQcFpSaxoJSo1hQqjfb5uinarIGRwClerNllFNzWFBqGgtKjWJBqd5sm6OfqskaHAGU6s2WUU7NYUGpaSwoNYoFpXqzbY5+qg57+ACLsvhTz8V4AAtK9WYPRzM1hwWlprGg1EAWlOrKHo5mqgh7+PDZwyfV/vszbR/GglK92XuYrHdAkAWlprGg1DQWlGrM3sNkvQPfYtev4l6v18Nvamzbti72nX3/uv5cFpTqzYJSc1hQahoLSo1iQaneLChVgS0rHx8f7b/PCV9eXor5a/l+7tjT9/dXrT/uWSwoNYoFpRqzoNQ0FpQaxYJSvdmxGZGqw+78Swf38+JkPbaMcmoOC0pNY0GpUSwo1Zttc/RTNVmDI4BSvdkyyqk5LCg1jQWlRrGgVG+2zdFP1WQNjgBK9WbLKKfmsKDUNBaUGsWCUr3ZNkc/VZM1OAIo1Zsto5yaw4JS01hQahQLSvVm2xz9VB12XL83ZtxfpSx+NuOSvzbvzVLWpVhQqg1bRjk1hwWlniwr1ZUFpXqzYzMiVYctwuvr67Zth/K62Hf2/ev6c1lQqjcLSs1hQalpLCg1igWlerOgVAXW4xfU85/AgmwZ5dQcFpR6sqxUVxaU6s2en939Bbvz/7i8n5ev6LFllFNzWFBqGgtKjWJBqd5sm6OfqskaHAGU6s2WUU7NYUGpaSwoNYoFpXqzbY5+qiZrcARQqjdbRjk1hwWlprGg1CgWlOrNtjn6qZqswRFAqd5sGeXUHBaUmsaCUqNYUKo32+bop0qxt3l/fx+LP/vUs0eyoNQoFpRqzIJS01hQahQLSvVmv/icWYVUEXZ8bfb3eXt7K+aYbdvWxb7zer2u689lQaneLCg1hwWlprGg1CgWlOrNglIV2Mvl0pbpL18X+8vXxS6si32ey4JSvdl7mKx3QJAFpaaxoNQ0FpRqzN7DZL0D32L3+SFeWRyfgt5m3F9l3ETlNv2F+/wr8Lr+LBaU6s0ejmZqDgtKTWNBqYEsKNWVPRzNVB12t7h0kJjqzZZRTs1hQalpLCg1igWlerNtjn6qJmtwBFCqN1tGOTWHBaWmsaDUKBaU6s22OfqpmqzBEUCp3mwZ5dQcFpSaxoJSo1hQqjfb5uinarIGRwClerNllFNzWFBqGgtKjWJBqd5sm6OfKsXe5nb3lTKHd1+5/axxUd8f5pEsKDWKBaXas6DUHBaUGsWCUr3ZsRmRKsteLpf13imfTd/Z939l59NZUKorC0o1ZkGpJ3sn82S/xYJSvVlQqgJbVgx+QQWlRrGgVHsWlJrDglKjWFCqN3t+dvd3rMEfl4mp3mwZ5dQcFpSaxoJSo1hQqjfb5uinarIGRwClerNllFNzWFBqGgtKjWJBqd5sm6OfqskaHAGU6s2WUU7NYUGpaSwoNYoFpXqzbY5+qg57+ACLsvhTz8V4AAtK9WYPRzM1hwWlprGg1EAWlOrKHo5mqgh7+PDZwyfV/vszbR/GglK92XuYrHdAkAWlprGg1DQWlGrM3sNkvQPfYtev4l6v18Nvamzbti72nX3/uv5cFpTqzYJSc1hQahoLSo1iQaneLChVgS0rHx8f7b/PCV9eXor5a/l+7tjT9/dXrT/uWSwoNYoFpRqzoNQ0FpQaxYJSvdmxGZGqw+78Swf38+JkPbaMcmoOC0pNY0GpUSwo1Zttc/RTNVmDI4BSvdkyyqk5LCg1jQWlRrGgVG+2zdFP1WQNjgBK9WbLKKfmsKDUNBaUGsWCUr3ZNkc/VZM1OAIo1Zsto5yaw4JS01hQahQLSvVm2xz9VB12XL83ZtxfpSx+NuOSvzbvzVLWpVhQqg1bRjk1hwWlniwr1ZUFpXqzYzMiVYctwuvr67Zth/K62Hf2/ev6c1lQqjcLSs1hQalpLCg1igWlerOgVAXW4xfU85/AgmwZ5dQcFpR6sqxUVxaU6s2en939Bbvz/7i8n5ev6LFllFNzWFBqGgtKjWJBqd5sm6OfqskaHAGU6s2WUU7NYUGpaSwoNYoFpXqzbY5+qiZrcARQqjdbRjk1hwWlprGg1CgWlOrNtjn6qZqswRFAqd5sGeXUHBaUmsaCUqNYUKo32+bop0qxt3l/fx+LP/vUs0eyoNQoFpRqzIJS01hQahQLSvVmv/icWYVUEXZ8bfb3eXt7K+aYbdvWxb7zer2u689lQaneLCg1hwWlprGg1CgWlOrNglIV2Mvl0pbpL18X+8vXxS6si32ey4JSvdl7mKx3QJAFpaaxoNQ0FpRqzN7DZL0D32L3+SFeWRyfgt5m3F9l3ETlNv2F+/wr8Lr+LBaU6s0ejmZqDgtKTWNBqYEsKNWVPRzNVB12t7h0kJjqzZZRTs1hQalpLCg1igWlerNtjn6qJmtwBFCqN1tGOTWHBaWmsaDUKBaU6s22OfqpmqzBEUCp3mwZ5dQcFpSaxoJSo1hQqjfb5uinarIGRwClerNllFNzWFBqGgtKjWJBqd5sm6OfqskaHAGU6s2WUU7NYUGpaSwoNYoFpXqzbY5+qiZrcARQqjdbRjk1hwWlprGg1CgWlOrNtjn6qZqswRFAqd5sGeXUHBaUmsaCUqNYUKo32+bop2qyBkcApXqzZZRTc1hQahoLSo1iQanebJujn6rJGhwBlOrNllFOzWFBqWksKDWKBaV6s22OfqoOe3iL47L4U3dOfgALSvVmD0czNYcFpaaxoNRAFpTqyh6OZqoIe/h4ssNnmf37U88exoJSvdl7mKx3QJAFpaaxoNQ0FpRqzN7DZL0D32K7sP+/c71e//e//+3LbNu2Lvadff+6/lwWlOrNglJzWFBqGgtKjWJBqd4sKFWBLSvjUbb9f7y8vBTz169fpWHs6fv7q9Yf9ywWlBrFglKNWVBqGgtKjWJBqd7s2IxI1WF3/qWD+3lxsh5bRjk1hwWlprGg1CgWlOrNtjn6qZqswRFAqd5sGeXUHBaUmsaCUqNYUKo32+bop2qyBkcApXqzZZRTc1hQahoLSo1iQanebJujn6rJGhwBlOrNllFOzWFBqWksKDWKBaV6s22OfqoOO67fGzPur1IWP5txyV+b92Yp61IsKNWGLaOcmsOCUk+WlerKglK92bEZkarDFuH19XXbtkN5Xew7+/51/bksKNWbBaXmsKDUNBaUGsWCUr1ZUKoC6/EL6vlPYEG2jHJqDgtKPVlWqisLSvVmz8/u/oLd+X9c3s/LV/TYMsqpOSwoNY0FpUaxoFRvts3RT9VkDY4ASvVmyyin5rCg1DQWlBrFglK92TZHP1WTNTgCKNWbLaOcmsOCUtNYUGoUC0r1Ztsc/VRN1uAIoFRvtoxyag4LSk1jQalRLCjVm21z9FOl2Nu8v7+PxZ996tkjWVBqFAtKNWZBqWksKDWKBaV6s198zqxCqgg7vjb7+7y9vRVzzLZt62Lfeb1e1/XnsqBUbxaUmsOCUtNYUGoUC0r1ZkGpCuzlcmnL9Jevi/3l62IX1sU+z2VBqd7sPUzWOyDIglLTWFBqGgtKNWbvYbLegW+x+/wQryyOT0FvM+6vMm6icpv+wn3+FXhdfxYLSvVmD0czNYcFpaaxoNRAFpTqyh6OZqoOu1tcOkhM9WbLKKfmsKDUNBaUGsWCUr3ZNkc/VZM1OAIo1Zsto5yaw4JS01hQahQLSvVm2xz9VE3W4AigVG+2jHJqDgtKTWNBqVEsKNWbbXP0UzVZgyOAUr3ZMsqpOSwoNY0FpUaxoFRvts3RT5Vib3O7+0qZw7uv3H7WuKjvD/NIFpQaxYJS7VlQag4LSo1iQane7NiMSJVlL5fLeu+Uz6bv7Pu/svPpLCjVlQWlGrOg1JO9k3my32JBqd4sKFWBLSsGv6CCUqNYUKo9C0rNYUGpUSwo1Zs9P7v7O9bgj8vEVG+2jHJqDgtKTWNBqVEsKNWbbXP0UzVZgyOAUr3ZMsqpOSwoNY0FpUaxoFRvts3RT9VkDY4ASvVmyyin5rCg1DQWlBrFglK92TZHP1WHPXyARVn8qediPIAFpXqzh6OZmsOCUtNYUGogC0p1ZQ9HM1WEPXz47OGTav/9mbYPY0Gp3uw9TNY7IMiCUtNYUGoaC0o1Zu9hst6Bb7HrV3Gv1+vhNzW2bVsX+86+f11/LgtK9WZBqTksKDWNBaVGsaBUbxaUqsCWlY+Pj/bf54QvLy/F/LV8P3fs6fv7q9Yf9ywWlBrFglKNWVBqGgtKjWJBqd7s2IxI1WF3/qWD+3lxsh5bRjk1hwWlprGg1CgWlOrNtjn6qZqswRFAqd5sGeXUHBaUmsaCUqNYUKo32+bop2qyBkcApXqzZZRTc1hQahoLSo1iQanebJujn6rJGhwBlOrNllFOzWFBqWksKDWKBaV6s22OfqoOO67fGzPur1IWP5txyV+b92Yp61IsKNWGLaOcmsOCUk+WlerKglK92bEZkarDFuH19XXbtkN5Xew7+/51/bksKNWbBaXmsKDUNBaUGsWCUr1ZUKoC6/EL6vlPYEG2jHJqDgtKPVlWqisLSvVmz8/u/oLd+X9c3s/LV/TYMsqpOSwoNY0FpUaxoFRvts3RT9VkDY4ASvVmyyin5rCg1DQWlBrFglK92TZHP1WTNTgCKNWbLaOcmsOCUtNYUGoUC0r1Ztsc/VRN1uAIoFRvtoxyag4LSk1jQalRLCjVm21z9FOl2Nu8v7+PxZ996tkjWVBqFAtKNWZBqWksKDWKBaV6s198zqxCqgg7vjb7+7y9vRVzzLZt62Lfeb1e1/XnsqBUbxaUmsOCUtNYUGoUC0r1ZkGpCuzlcmnL9Jevi/3l62IX1sU+z2VBqd7sPUzWOyDIglLTWFBqGgtKNWbvYbLegW+x+/wQryyOT0FvM+6vMm6icpv+wn3+FXhdfxYLSvVmD0czNYcFpaaxoNRAFpTqyh6OZqoOu1tcOkhM9WbLKKfmsKDUNBaUGsWCUr3ZNkc/VZM1OAIo1Zsto5yaw4JS01hQahQLSvVm2xz9VE3W4AigVG+2jHJqDgtKTWNBqVEsKNWbbXP0UzVZgyOAUr3ZMsqpOSwoNY0FpUaxoFRvts3RT5Vib3O7+0qZw7uv3H7WuKjvD/NIFpQaxYJS7VlQag4LSo1iQane7NiMSJVlL5fLeu+Uz6bv7Pu/svPpLCjVlQWlGrOg1JO9k3my32JBqd4sKFWBLSsGv6CCUqNYUKo9C0rNYUGpUSwo1Zs9P7v7O9bgj8vEVG+2jHJqDgtKTWNBqVEsKNWbbXP0UzVZgyOAUr3ZMsqpOSwoNY0FpUaxoFRvts3RT9VkDY4ASvVmyyin5rCg1DQWlBrFglK92TZHP1WHPXyARVn8qediPIAFpXqzh6OZmsOCUtNYUGogC0p1ZQ9HM1WEPXz47OGTav/9mbYPY0Gp3uw9TNY7IMiCUtNYUGoaC0o1Zu9hst6Bb7HrV3Gv1+vhNzW2bVsX+86+f11/LgtK9WZBqTksKDWNBaVGsaBUbxaUqsCWlY+Pj/bf54QvLy/F/LV8P3fs6fv7q9Yf9ywWlBrFglKNWVBqGgtKjWJBqd7s2IxI1WF3/qWD+3lxsh5bRjk1hwWlprGg1CgWlOrNtjn6qZqswRFAqd5sGeXUHBaUmsaCUqNYUKo32+bop2qyBkcApXqzZZRTc1hQahoLSo1iQanebJujn6rJGhwBlOrNllFOzWFBqWksKDWKBaV6s22OfqoOO67fGzPur1IWP5txyV+b92Yp61IsKNWGLaOcmsOCUk+WlerKglK92bEZkarDFuH19XXbtkN5Xew7+/51/bksKNWbBaXmsKDUNBaUGsWCUr1ZUKoC6/EL6vlPYEG2jHJqDgtKPVlWqisLSvVmz8/u/oLd+X9c3s/LV/TYMsqpOSwoNY0FpUaxoFRvts3RT9VkDY4ASvVmyyin5rCg1DQWlBrFglK92TZHP1WTNTgCKNWbLaOcmsOCUtNYUGoUC0r1Ztsc/VRN1uAIoFRvtoxyag4LSk1jQalRLCjVm21z9FOl2Nu8v7+PxZ996tkjWVBqFAtKNWZBqWksKDWKBaV6s198zqxCqgg7vjb7+7y9vRVzzLZt62Lfeb1e1/XnsqBUbxaUmsOCUtNYUGoUC0r1ZkGpCuzlcmnL9Jevi/3l62IX1sU+z2VBqd7sPUzWOyDIglLTWFBqGgtKNWbvYbLegW+x+/wQryyOT0FvM+6vMm6icpv+wn3+FXhdfxYLSvVmD0czNYcFpaaxoNRAFpTqyh6OZqoOu1tcOkhM9WbLKKfmsKDUNBaUGsWCUr3ZNkc/VZM1OAIo1Zsto5yaw4JS01hQahQLSvVm2xz9VE3W4AigVG+2jHJqDgtKTWNBqVEsKNWbbXP0UzVZgyOAUr3ZMsqpOSwoNY0FpUaxoFRvts3RT5Vib3O7+0qZw7uv3H7WuKjvD/NIFpQaxYJS7VlQag4LSo1iQane7NiMSJVlL5fLeu+Uz6bv7Pu/svPpLCjVlQWlGrOg1JO9k3my32JBqd4sKFWBLSsGv6CCUqNYUKo9C0rNYUGpUSwo1Zs9P7v7O9bgj8vEVG+2jHJqDgtKTWNBqVEsKNWbbXP0UzVZgyOAUr3ZMsqpOSwoNY0FpUaxoFRvts3RT9VkDY4ASvVmyyin5rCg1DQWlBrFglK92TZHP1WHPXyARVn8qediPIAFpXqzh6OZmsOCUtNYUGogC0p1ZQ9HM1WEPXz47OGTav/9mbYPY0Gp3uw9TNY7IMiCUtNYUGoaC0o1Zu9hst6Bb7HrV3Gv1+vhNzW2bVsX+86+f11/LgtK9WZBqTksKDWNBaVGsaBUbxaUqsCWlY+Pj/bf54QvLy/F/LV8P3fs6fv7q9Yf9ywWlBrFglKNWVBqGgtKjWJBqd7s2IxI1WF3/qWD+3lxsh5bRjk1hwWlprGg1CgWlOrNtjn6qZqswRFAqd5sGeXUHBaUmsaCUqNYUKo32+bop2qyBkcApXqzZZRTc1hQahoLSo1iQanebJujn6rJGhwBlOrNllFOzWFBqWksKDWKBaV6s22OfqoOO67fGzPur1IWP5txyV+b92Yp61IsKNWGLaOcmsOCUk+WlerKglK92bEZkarDFuH19XXbtkN5Xew7+/51/bksKNWbBaXmsKDUNBaUGsWCUr1ZUKoC6/EL6vlPYEG2jHJqDgtKPVlWqisLSvVmz8/u/oLd+X9c3s/LV/TYMsqpOSwoNY0FpUaxoFRvts3RT9VkDY4ASvVmyyin5rCg1DQWlBrFglK92TZHP1WTNTgCKNWbLaOcmsOCUtNYUGoUC0r1Ztsc/VRN1uAIoFRvtoxyag4LSk1jQalRLCjVm21z9FOl2Nu8v7+PxZ996tkjWVBqFAtKNWZBqWksKDWKBaV6s198zqxCqgg7vjb7+7y9vRVzzLZt62Lfeb1e1/XnsqBUbxaUmsOCUtNYUGoUC0r1ZkGpCuzlcmnL9Jevi/3l62IX1sU+z2VBqd7sPUzWOyDIglLTWFBqGgtKNWbvYbLegW+x+/wQryyOT0FvM+6vMm6icpv+wn3+FXhdfxYLSvVmD0czNYcFpaaxoNRAFpTqyh6OZqoOu1tcOkhM9WbLKKfmsKDUNBaUGsWCUr3ZNkc/VZM1OAIo1Zsto5yaw4JS01hQahQLSvVm2xz9VE3W4AigVG+2jHJqDgtKTWNBqVEsKNWbbXP0UzVZgyOAUr3ZMsqpOSwoNY0FpUaxoFRvts3RT5Vib3O7+0qZw7uv3H7WuKjvD/NIFpQaxYJS7VlQag4LSo1iQane7NiMSJVlL5fLeu+Uz6bv7Pu/svPpLCjVlQWlGrOg1JO9k3my32JBqd4sKFWBLSsGv6CCUqNYUKo9C0rNYUGpUSwo1Zs9P7v7O9bgj8vEVG+2jHJqDgtKTWNBqVEsKNWbbXP0UzVZgyOAUr3ZMsqpOSwoNY0FpUaxoFRvts3RT9VkDY4ASvVmyyin5rCg1DQWlBrFglK92TZHP1WHPXyARVn8qediPIAFpXqzh6OZmsOCUtNYUGogC0p1ZQ9HM1WEPXz47OGTav/9mbYPY0Gp3uw9TNY7IMiCUtNYUGoaC0o1Zu9hst6Bb7HrV3Gv1+vhNzW2bVsX+86+f11/LgtK9WZBqTksKDWNBaVGsaBUbxaUqsCWlY+Pj/bf54QvLy/F/LV8P3fs6fv7q9Yf9ywWlBrFglKNWVBqGgtKjWJBqd7s2IxI1WF3/qWD+3lxsh5bRjk1hwWlprGg1CgWlOrNtjn6qZqswRFAqd5sGeXUHBaUmsaCUqNYUKo32+bop2qyBkcApXqzZZRTc1hQahoLSo1iQanebJujn6rJGhwBlOrNllFOzWFBqWksKDWKBaV6s22OfqoOO67fGzPur1IWP5txyV+b92Yp61IsKNWGLaOcmsOCUk+WlerKglK92bEZkarDFuH19XXbtkN5Xew7+/51/bksKNWbBaXmsKDUNBaUGsWCUr1ZUKoC6/EL6vlPYEG2jHJqDgtKPVlWqisLSvVmz8/u/oLd+X9c3s/LV/TYMsqpOSwoNY0FpUaxoFRvts3RT9VkDY4ASvVmyyin5rCg1DQWlBrFglK92TZHP1WTNTgCKNWbLaOcmsOCUtNYUGoUC0r1Ztsc/VQp9jbv7+9j8Wefi/FIFpQaxYJSjVlQahoLSo1iQane7BefRKaQKsKuD599e3sr5ph/fKbtI1lQqjcLSs1hQalpLCg1igWlerOgVAX2crm0ZfrL18X+8nWxC+tin+eyoFRv9h4m6x0QZEGpaSwoNY0FpRqz9zBZ78C32P8fKFx2TQplbmRzdHJlYW0KZW5kb2JqCgoyNyAwIG9iago8PAovVHlwZSAvWE9iamVjdAovU3VidHlwZSAvSW1hZ2UKL1dpZHRoIDg0MgovSGVpZ2h0IDU5OQovQ29sb3JTcGFjZSAvRGV2aWNlR3JheQovQml0c1BlckNvbXBvbmVudCA4Ci9GaWx0ZXIgL0ZsYXRlRGVjb2RlCi9MZW5ndGggNTA5Ngo+PgpzdHJlYW0KeJzt3DFuXNcShGGnSp0qtEKHDpW9bTDiAphoMdquIc3DDQjCINhEV/e5n5IJCkIB+vHP6QHsevrj158vX39//PHt8fH1y+Pz6d3hh//i54WByrfC5D/BNCRPocrXYUvlz6dff55ffn88/Xh8vDw/Pt8ffvgvfl4YqHwrTP4TTEPyM1T5OmypPOcLMFDpTfImXeE52AKVTGISk5jUFOaRMIlJlXAAEiatxBaoZBKTrvD5y68/f377/fHl78fHtz8fn+8PP/wXPy8MVL4VJv8JpiF5DlW+DlsqX77++vPXP78/vn5/fPzz1+Pz/eGH/+LnhYHKt8LkP8E0JC+hytdhS+U5p0Sg0nXnuvM7iUlNYR4Jk5hUCQcgYdJKbIFKJjGJSUxqCvNImMSkSjgAya1M+vHt15+/v//++Pa/x8f3vx+f7w8//Bc/LwxUvhUm/wmmIfkRqnwdtlSe8wUYqPQmeZNcd0xqCvNImMSkSjgACZNWYgtUMolJTGJSU5hHwiQmVcIBSG5l0uM/ZP32X/+V63vCD//FzwsDlW+FyX+CaUheQpWvw5bK///PFX/91/958Y7ww3/x88JA5Vth8p9gGpLnUOXrsKXynFMiUOm6c935ncSkpjCPhElMqoQDkDBpJbZAJZOYxCQmNYV5JExiUiUcgORWJp0z5x6otLBvYd/CvjepKcwjcd0xqRIOQMKkldgClUxiEpOY1BTmkTCJSZVwAJJbmXTOnHug0sK+hX0L+xb2m8I8Egv7rrtKOADJra67c7AFKpnEJCYxqSnMI2ESkyrhACRMWoktUMkkJjGJSU1hHomFfQv7lXAAEgv7K78AA5XeJG+S645JTWEeCZOYVAkHIGHSSmyBSiYxiUlMagrzSJjEpEo4AMmtTDpnzj1QaWHfwr6FfQv7TWEeiYV9110lHIDkVtfdOdgClUxiEpOY1BTmkTCJSZVwABImrcQWqGQSk67wnBHqQKVdcLvgdsG9SU1hHonrjkmVcAASJq3EFqhkEpOYxKSmMI+ESUyqhAOQ3Mqkc0aoA5V2we2C2wW3C94U5pHYBXfdVcIBSG513Z2DLVDJJCYxiUlNYR4Jk5hUCQcgYdJKbIFKJjGJSUxqCvNI7ILbBa+EA5DYBV/5BRio9CZ5k1x3TGoK80iYxKRKOAAJk1ZiC1QyiUlMYlJTmEfCJCZVwgFIbmXSOSPUgUq74HbB7YLbBW8K80jsgrvuKuEAJLe67s7BFqhkEpOYxKSmMI+ESUyqhAOQMGkltkAlk5jEJCY1hXkkFvYt7FfCAUgs7K/8AgxUepO8Sa47JjWFeSRMYlIlHICESSuxBSqZxCQmMakpzCOxsG9hvxIOQGJhf+Wce6DSwr6FfQv7rrumMI/E7yQmVcIBSJi0ElugkklMYhKTmsI8EiYxqRIOQMKkldgClUxi0hWeM+ceqLSwb2Hfwr43qSnMI3HdMakSDkDCpJXYApVMYhKTmNQU5pEwiUmVcAASJq3EFqhkEpOu8Jw590ClhX0L+xb2Lew3hXkkFvZdd5VwAJJbXXfnYAtUMolJTGJSU5hHwiQmVcIBSJi0ElugkklMYhKTmsI8Egv7FvYr4QAkFvZXfgEGKr1J3iTXHZOawjwSJjGpEg5AwqSV2AKVTGISk5jUFOaRWNi3sF8JByCxsL9yzj1QaWHfwr6FfdddU5hH4ncSkyrhACRMWoktUMkkJjGJSU1hHgmTmFQJByBh0kpsgUomMekKz5lzD1Ra2Lewb2Hfm9QU5pG47phUCQcgYdJKbIFKJjGJSUxqCvNImMSkSjgACZNWYgtUMolJV3jOnHug0sK+hX0L+xb2m8I8Egv7rrtKOADJra67c7AFKpnEJCYxqSnMI2ESkyrhACRMWoktUMkkJjGJSU1hHomFfQv7lXAAEgv7K78AA5XeJG+S645JTWEeCZOYVAkHIGHSSmyBSiYxiUlMagrzSCzsW9ivhAOQWNhfOeceqLSwb2Hfwr7rrinMI/E7iUmVcAASJq3EFqhkEpOYxKSmMI+ESUyqhAOQMGkltkAlk5h0hefMuQcqLexb2Lew701qCvNIXHdMqoQDkDBpJbZAJZOYxCQmNYV5JExiUiUcgIRJK7EFKpnEpCs8Z849UGlh38K+hX0L+01hHomFfdddJRyA5FbX3TnYApVMYhKTmNQU5pEwiUmVcAASJq3EFqhkEpOYxKSmMI/Ewr6F/Uo4AImF/ZVfgIFKb5I3yXXHpKYwj4RJTKqEA5AwaSW2QCWTmMQkJjWFeSQW9i3sV8IBSCzsr5xzD1Ra2Lewb2HfddcU5pH4ncSkSjgACZNWYgtUMolJTGJSU5hHwiQmVcIBSJi0ElugkklMusJz5twDlRb2Lexb2PcmNYV5JK47JlXCAUiYtBJboJJJTGISk5rCPBImMakSDkByK5POGaEOVNoFtwtuF9wueFOYR2IX3HVXCQcgudV1dw62QCWTmMQkJjWFeSRMYlIlHICESSuxBSqZxCQmMakpzCOxC24XvBIOQGIXfOUXYKDSm+RNct0xqSnMI2ESkyrhACRMWoktUMkkJjGJSU1hHoldcLvglXAAErvgK0eoA5V2we2C2wV33TWFeSR+JzGpEg5AwqSV2AKVTGISk5jUFOaRMIlJlXAAEiatxBaoZBKTrvCcEepApV1wu+B2wb1JTWEeieuOSZVwABImrcQWqGQSk5jEpKYwj4RJTKqEA5AwaSW2QCWTmHSF58y5Byot7FvYt7BvYb8pzCOxsO+6q4QDkNzqujsHW6CSSUxiEpOawjwSJjGpEg5AwqSV2AKVTGISk5jUFOaRWNi3sF8JByCxsL/yCzBQ6U3yJrnumNQU5pEwiUmVcAASJq3EFqhkEpOYxKSmMI/Ewr6F/Uo4AImF/ZVz7oFKC/sW9i3su+6awjwSv5OYVAkHIGHSSmyBSiYxiUlMagrzSJjEpEo4AAmTVmILVDKJSVd4zpx7oNLCvoV9C/vepKYwj8R1x6RKOAAJk1ZiC1QyiUlMYlJTmEfCJCZVwgFImLQSW6CSSUy6wnPm3AOVFvYt7FvYt7DfFOaRWNh33VXCAUhudd2dgy1QySQmMYlJTWEeCZOYVAkHIGHSSmyBSiYxiUlMagrzSCzsW9ivhAOQWNhf+QUYqPQmeZNcd0xqCvNImMSkSjgACZNWYgtUMolJTGJSU5hHYmHfwn4lHIDEwv7KOfdApYV9C/sW9l13TWEeid9JTKqEA5AwaSW2QCWTmMQkJjWFeSRMYlIlHICESSuxBSqZxKQrPGfOPVBpYd/CvoV9b1JTmEfiumNSJRyAhEkrsQUqmcQkJjGpKcwjYRKTKuEAJExaiS1QySQmXeE5c+6BSgv7FvYt7FvYbwrzSCzsu+4q4QAkt7ruzsEWqGQSk5jEpKYwj4RJTKqEA5AwaSW2QCWTmMQkJjWFeSQW9i3sV8IBSCzsr/wCDFR6k7xJrjsmNYV5JExiUiUcgIRJK7EFKpnEJCYxqSnMI7Gwb2G/Eg5AYmF/5Zx7oNLCvoV9C/uuu6Ywj8TvJCZVwgFImLQSW6CSSUxiEpOawjwSJjGpEg5AwqSV2AKVTGLSFZ4z5x6otLBvYd/CvjepKcwjcd0xqRIOQMKkldgClUxiEpOY1BTmkTCJSZVwABImrcQWqGQSk67wnDn3QKWFfQv7FvYt7DeFeSQW9l13lXAAkltdd+dgC1QyiUlMYlJTmEfCJCZVwgFImLQSW6CSSUxiEpOawjwSC/sW9ivhACQW9ld+AQYqvUneJNcdk5rCPBImMakSDkDCpJXYApVMYhKTmNQU5pFY2LewXwkHILGwv3LOPVBpYd/CvoV9111TmEfidxKTKuEAJExaiS1QySQmMYlJTWEeCZOYVAkHILmVSeeMUAcq7YLbBbcL7k1qCvNIXHdMqoQDkDBpJbZAJZOYxCQmNYV5JExiUiUcgIRJK7EFKpnEpCs8Z4Q6UGkX3C64XXC74E1hHoldcNddJRyA5FbX3TnYApVMYhKTmNQU5pEwiUmVcAASJq3EFqhkEpOYxKSmMI/ELrhd8Eo4AIld8JVfgIFKb5I3yXXHpKYwj4RJTKqEA5AwaSW2QCWTmMQkJjWFeSR2we2CV8IBSOyCrxyhDlTaBbcLbhfcddcU5pH4ncSkSjgACZNWYgtUMolJTGJSU5hHwiQmVcIBSJi0ElugkklMusJz5twDlRb2Lexb2PcmNYV5JK47JlXCAUiYtBJboJJJTGISk5rCPBImMakSDkDCpJXYApVMYtIVnjPnHqi0sG9h38K+hf2mMI/Ewr7rrhIOQHKr6+4cbIFKJjGJSUxqCvNImMSkSjgACZNWYgtUMolJTGJSU5hHYmHfwn4lHIDEwv7KL8BApTfJm+S6Y1JTmEfCJCZVwgFImLQSW6CSSUxiEpOawjwSC/sW9ivhACQW9lfOuQcqLexb2Lew77prCvNI/E5iUiUcgIRJK7EFKpnEJCYxqSnMI2ESkyrhACRMWoktUMkkJl3hOXPugUoL+xb2Lex7k5rCPBLXHZMq4QAkTFqJLVDJJCYxiUlNYR4Jk5hUCQcgYdJKbIFKJjHpCs+Zcw9UWti3sG9h38J+U5hHYmHfdVcJByC51XV3DrZAJZOYxCQmNYV5JExiUiUcgIRJK7EFKpnEJCYxqSnMI7Gwb2G/Eg5AYmF/5RdgoNKb5E1y3TGpKcwjYRKTKuEAJExaiS1QySQmMYlJTWEeiYV9C/uVcAASC/sr59wDlRb2Lexb2HfdNYV5JH4nMakSDkDCpJXYApVMYhKTmNQU5pEwiUmVcAASJq3EFqhkEpOu8Jw590ClhX0L+xb2vUlNYR6J645JlXAAEiatxBaoZBKTmMSkpjCPhElMqoQDkDBpJbZAJZOYdIXnzLkHKi3sW9i3sG9hvynMI7Gw77qrhAOQ3Oq6OwdboJJJTGISk5rCPBImMakSDkDCpJXYApVMYhKTmNQU5pFY2LewXwkHILGwv/ILMFDpTfImue6Y1BTmkTCJSZVwABImrcQWqGQSk5jEpKYwj8TCvoX9SjgAiYX9lXPugUoL+xb2Ley77prCPBK/k5hUCQcgYdJKbIFKJjGJSUxqCvNImMSkSjgACZNWYgtUMolJV3jOnHug0sK+hX0L+96kpjCPxHXHpEo4AAmTVmILVDKJSUxiUlOYR8IkJlXCAUiYtBJboJJJTLrCc+bcA5UW9i3sW9i3sN8U5pFY2HfdVcIBSG513Z2DLVDJJCYxiUlNYR4Jk5hUCQcgYdJKbIFKJjGJSUxqCvNImMSkSjgACZNWYgtUMolJTGJSU5hHwiQmVcIBSJi0ElugkklMusJzRqgDlXbB7YLbBbcL3hTmkdgFd91VwgFIbnXdnYMtUMkkJjGJSU1hHgmTmFQJByBh0kpsgUomMYlJTGoK80jsgtsFr4QDkNgFX/kFGKj0JnmTXHdMagrzSJjEpEo4AAmTVmILVDKJSUxiUlOYR8IkJlXCAUhuZdI5I9SBSrvgdsHtgtsFbwrzSOyCu+4q4QAkt7ruzsEWqGQSk5jEpKYwj4RJTKqEA5AwaSW2QCWTmMQkJjWFeSQ9Jv18+vXn+eX3x9OPx8fL8+Pz/eGH/+LnhYHKt8LkP8E0JD9Dla/DlspzvgADld4kb5LrjklNYR4Jk5hUCQcgYdJKbIFKJjGJSUxqCvNILOxb2K+EA5BY2F855x6otLBvYd/CvuuuKcwj8TuJSZVwABImrcQWqGQSk5jEpKYwj4RJTKqEA5AwaSW2QCWTmHSF58y5Byot7FvYt7DvTWoK80hcd0yqhAOQMGkltkAlk5jEJCY1hXkkTGJSJRyAhEkrsQUqmcSkKzxnzj1QaWHfwr6FfQv7TWEeiYV9110lHIDkVtfdOdgClUxiEpOY1BTmkTCJSZVwABImrcQWqGQSk5jEpKYwj8TCvoX9SjgAiYX9lV+AgUpvkjfJdcekpjCPhElMqoQDkDBpJbZAJZOYxCQmNYV5JBb2LexXwgFILOyvnHMPVFrYt7BvYd911xTmkfidxKRKOAAJk1ZiC1QyiUlMYlJTmEfCJCZVwgFImLQSW6CSSUy6wnPm3AOVFvYt7FvY9yY1hXkkrjsmVcIBSJi0ElugkklMYhKTmsI8EiYxqRIOQMKkldgClUxi0hWeM+ceqLSwb2Hfwr6F/aYwj8TCvuuuEg5Acqvr7hxsgUomMYlJTGoK80iYxKRKOAAJk1ZiC1QyiUlMYlJTmEdiYd/CfiUcgMTC/sovwEClN8mb5LpjUlOYR8IkJlXCAUiYtBJboJJJTGISk5rCPBIL+xb2K+EAJBb2V865Byot7FvYt7DvumsK80j8TmJSJRyAhEkrsQUqmcQkJjGpKcwjYRKTKuEAJExaiS1QySQmXeE5c+6BSgv7FvYt7HuTmsI8EtcdkyrhACRMWoktUMkkJjGJSU1hHgmTmFQJByBh0kpsgUomMekKz5lzD1Ra2Lewb2Hfwn5TmEdiYd91VwkHILnVdXcOtkAlk5jEJCY1hXkkTGJSJRyAhEkrsQUqmcQkJjGpKcwjsbBvYb8SDkBiYX/lF2Cg0pvkTXLdMakpzCNhEpMq4QAkTFqJLVDJJCYxiUlNYR6JhX0L+5VwABIL+yvn3AOVFvYt7FvYd901hXkkficxqRIOQMKkldgClUxiEpOY1BTmkTCJSZVwABImrcQWqGQSk67wnDn3QKWFfQv7Fva9SU1hHonrjkmVcAASJq3EFqhkEpOYxKSmMI+ESUyqhAOQ3Mqkc0aoA5V2we2C2wW3C94U5pH07IL/C3SoYk4KZW5kc3RyZWFtCmVuZG9iagoKMzEgMCBvYmoKPDwKL0xlbmd0aDEgMTM0MDAKL0ZpbHRlciAvRmxhdGVEZWNvZGUKL0xlbmd0aCA3MzQ1Cj4+CnN0cmVhbQp4nL1aCXwURdZ/1d1zz2SOZJIJk6MnQ7gGCGQ4Eogy5OCKQAhBZsAjgQDhjoLgBbISBAKLKxoQ1lV0XY91VzvgsgF3Fe8DWUUU1xtRMahRdL0109+/eiYhh9H1+36/r5v6d/WrV1X/9+rV0RmIEZEDIBFNnZ6Te97+W1YQsQchrTy/eHJ4VXjNMSjcQ6Q7MXdpVa14THqBSEhC+da5q1bKc5+eNwRlP0L24vzaBUt/X3r+u0QDZCLz8AVVK2rJSF60Z4W+dcGSK+Z7tuv+RJS8ich0sKZ66eXv5fT6B5FcjPc3a+ZVVbPVKwdA/2roj6iBICnB2AvvYbz3rlm68vKZw4wvE4mH0F/BkuVzq+5f3fgG8nugIy+turxWWi2dRt4DfXlZ1dJ5eabwVCLj89B5vXb5ipXqNFqN8jxeXnvpvNrZG/e/TmSBfZJKjATwNasq2Yn75XpBIZnuIQPkDsqheeh5PLsIvhJIJO1Sp/D2fuJCfeMdrVEi+5c/LP7uZntUa7Hjdb0m0e3afcEt7zx4sb3gK/IatYJHWu/i/Oj4W81VPyz+cYc9ap6LV1N7C6K0QQiTjoy63boguvLGnuJRmi+4jDrBYhAk3ALnKHbscvJ0WeaW02ndseg0ZjPeIQgyMZWXSaTbrZWlaOxFrTcrxOvwTIP9It5keGEUFVEZzaAq+GMBLaTldBmdVlWtbsfSaq10CV3KS9X3erg3dvNL18v3X9wjf/Je2u3e3+N9pu1m6T3cV2r344KMez3ug9p9VOwnXiDu0u7D0kjpSun+X3k/+X+439INoLvaHCUEf8GTP3OJU9U3/ltd9ilG9hcu6Vs6/9dykP5KjV1luj2051e1MYhK2/Mv0QwphFiM5/lTSKFr28qR32lIpp3SfUhPx8o1+de0U1xBM4X3KYCy9b/Wjl/FN3S23//PS5hBy3SfUDLxWe9pQylILrotzoy4BCtcs7r5LBJF+6tfafoUPRhv64jaorudbMIE9WMxQjbofYzS+dEpyLV07zt6f1vOGE9S7HVvXHwDbdWe1yBtRXxf2rMdLIUZ/xfmf0+f0r3x/KfUTC/R21q+Bfnnqb5d7wg9grI76QAi8056nJ5Cjl8raNcvdcGyWAIen7GHWUG3wj/hJvqGTtEf6QK0Nk/3hu4N7DRLsBLNpQfozx10P9PwS6QN2Gs20o5OLa2NP7fGn09q+DDSm4KNzqOVWL8/Oquu98OeTbRGs2EhfYD+bqXt2ng6hd7kFEn9jP5K12F3Wkv/2+sVpMfo6+g/ol9gF6jGeF6NOWUTiGzSDvU/4BSm31IdLTAsjA6Fl96kz+lHehAj/TS9R39DBG6mZfQVfQz/76PdtEo6Qk79Hh5NrSrW6BN0E9o/AcseoqNsBZtEd9DVOkQbdupZfOeSTIhKD9XE84yyaFw8L1AC5cXzYge51CGvQ+TL8bye+I45XdvrlgNn0EQapL0vhf/mQLYEFp6P90s1jy4Hc5mG02AaQUOoXKt3GXSqUH62FVlrR+7Wzr2Q5aLeUHCUaTJK5qLecrS8nObDbzJ21+WQ1GpYBUmsx8EoGYsWluBZDtkC2L4StWSNwQqN3SpgtaZpI7OWJkAyByXzEFcyTUWr89BWBV2h5WRETxXyfH/nPS9BboHGSEZaDp0rULetL7md+xAKIten/W0kDdR4VKGFWujK6LcK/fA25tLiuO4kvNVovpuA/qo1i2N2VUC+ULNlSY985mv+kKlQ8+USTVqleaOzjbF2lsctlbVeLkPpXM3eNi+v1kaLSy6DVrXmPRnyGk02GSNXoXlnoVZvmebf0Vr9eZoGH9M5mrerNZTjjNp0ZU2+QhvbheCysj1u2uzg5SvBgp+fVsALFJr2zonklLSXXwFcdXWy96qrU4++hPyq1YCltYAlywGLlyV7Fy+75tJeKy9LcqctWASYvxAwrybJO69mwyW9UlckX1mU6rsC6QArY1P3OjKrxyazabQSSaBiNpUqkKqRnkCSaAwrxPyxs7G0B0lQT+z7vH8g/wALsXP2ioFQEztnf59A/qlyY6BJPRQKVHi9+Yef1QVCr/UfkD+9XAiUnxQCsmKx5H+BzONPCoHQoxZb/qOHdJq+52SqN//4MV3g44eFwMO7hcAupN0NvPBEyPppUnL+jTfoA9uRuMD7ZYIj/9abhcBOpPtuZTc09M68ucEY2NGgD8SscWauHOsEbwYrJsGKSbBrEmbySpzaGZvAxlMiZTK2d42ACueygpgJBXsze+c3sZy9a6RAExu8t07k5PY9kZWdz0k6D9ls+Ueeh+qzaWn5zz2jlYZSz8COj9YKgSFzrFZ9kelB1viAEHgAAl73GKrw5z/79tPakLdmZORvrpcC9XXmwBZ08JtrWGDNWimwFvmWuph9o+Z4UvPn1LHAJqSNSNfVSYENeK7H83Tdd3XCwjrWt455R7o9I9zu4W7XMLc96KbB7syxA9gsykES2Ax2PrmpjM2EF2rZDNg9io3GCOaxfEpgI9hIrIAWfAGNRipFOowkQTICkhE0G0nEF+Eo1NPvFdXMsT5mZhbUNzIT6uuZAfUXY9dlqGNEHSNaMdJDSB8j/YCkR4kZLZlpC5LI9KE0NNSnb0K/vvYBgYSBAXuWP6G3356RmSBn2ukRNhQdDiUZCZ8rbEiojtUOODFAoALm6B3qXdt7T2/J7nBaTWaLVW8wWkVJZyUmWPvo0zL1oifTLo4R3xHF2+gdEuwpmSk5KaI9KTMpJ0kcag7avCzd5jH0srkdKTaXlGTL8bKBBQMK+hX0KehdkFUgF2QUeAs8Be4CV4G9wFSgLxALqKAsWMEUVymVVhQqiQzP6YVKMFDaJMrlSm6gVDGVzQ43MrYtAqkibGpCwCnSpiYBD1fRrNnhJpbKizd4D8CPpJRWbvhtJBBIV6pLp4eVdekRJZdnfpceoVIld5ri9RcGul4rYoirTXA239ivT4kyoKRKGVhSWawVrWxi+pKFTcxcsrAK6C9uYsbYeyVy/uJ4A01sFJfmlSyEOI9rae8jtPcR/lhb8a4DbMXKy7rRaiN29hUVqLu4iwovVTzKGDiya2mjiXu0rLywVDGWI5XNVnr58fIMXkbgxeov5F+kuPmFr9BvjSqOjSY1im9iM9CsoYUsQCtZ1VbsbgnABLKrP+Jb3gF0kBPoJJf6A864ScBEDZMoBegmj/o9TsMcUygV6KFewFRKU7+jXpQO9FIGMI0ygekkq99SBvmAmZQFlKm3+g2+RDlmUTbQT32AvakvMJv6qV9jn+sP7EsDgP0ogHN0fxoIHECDgQHKUb/EXjkEOIiGAgdTLjBHwyE0DCenoTQcmEsjgEEaCRxGeeoXOG/kA0fQKOBIKgDmaZhP56if45v8XOBoGgMsoLHqGTqHCoHnUjFwDJUAQ8DPcIYYByyk8cAimgAsponqp1RCk4DjqBQ4ns4DTqDJONtPpKnASVQGLKVpwPOAn2CPLAdOoQrgVJoBLKPzgdNoJr4NyikMnE4RYAXNUj/CaWg28Hy6ADiTLgKGNYzQxeppnOmqgLM1vIDm4ivkQqoGXkTzgBfTfPVDqqQFQOyYwDkazqVFwGparJ7iOzJwPi0D4gQGrKFa9QPsr5cAF9GlwMW0AriELlPfx/69CrhMw+W0GojTDvAS4HvYoa8CrtBwJV0NvIzWqCdxwloLXE3rgJcD38Vp5VrglRpeRXXAq2kDcA1dp57ACXsj8BrapPKz7Gb1HfoN1QOvpa3A9fRbYB1tU9/GyX8b8jiVI7+RfgfcRNuBm+lG9S18r9wE3EINwK20Q30Tp+udwG20C3g97Qb+DvgGTuK/B26nW4A30q3Am+g29XVqoD3AHXQ7cCfdAbyZ/qi+hq+cO4G76U/A39NdwFvobvXf9Ae6B3gr3Qu8je4D7gG+SrfTX4F30P3AP9IDwDupUT2Orx2Od9Fe4N20D3gP8BWcGfcD/0x/B95HTcC/AF/GF8gB4P10EPgAPaQeI4UeBjZquJceAe6jQ8AH6VH1JXwzPAbcT48D/05PApuAR/G19hTwID0DfIieBf6DnlNfpH/SYeDDGj5CR4CHgC/Qo/QC8DF6Efi4hk/QUfVf+Ko6BnyKXgY+Ta8An6Hj6hF6ll4FPkf/Bh6m14DP0+vq8/hueRP4Lw1foLeAL9Lb6mE6SieAL9G7wGN0Evgyvac+hy+m94HH6QPgq3QK+G/6UH2WXqNm4Ov0EfAN+hj4JvAZeotagG/Tp8B3NDxBZ9Sn6V36HHiS/qM+hS8pju/Tl8AP6CvgKfoa+CF9C2wGPkmn6XvgR/QD8GMNP6FW9Ql8B3P8lFTgZ4wBzwAfp8+ZCPxCw/8wCfgl06mP0VfMAPyaGYHfMBPwW2ZWH6XvmAX4PbMCf2A24I/Mrh6iVuYARjVUmRMo8L9jSXW6VTgCGKhXyGJgokSiTmeSKOeIKz/nCB5jjgwdEnT6nNk+p+8u8e0f9wv7WyfpVn1ff5M0hZj6huoS5+JLViTbg/wvmEJODo3JGTqEMT8T57aWHhP26nZ/d7l+E3pboH7ENkt27BopJIecLqsy2+UgvTKbEk2i+wF7Tkt+Po0JkGdMYOiQlKw+w4eNCOYmu5P0Yof8NwUVFQXnzJhxTvyZPHVkXllZ3sipYkpbju9c56vN0i7dXuwyhSE/uZlFdLsThcQbIkIiTkpW0WKxGW03RIw4hVlSHGt0OS2wN4jenRT05Fx80YVnc0OHZOv9Mjkd5MtNcffxZ5E7iYK5I6Vdd3wefSa6id3Nil7cfMMDp6PvsIQ3DzcUVLB6nNXD7J7Rn5wfPf5dS/TDSljfCF8vhqfM2AsHhTxW2h6xWkXBJVq2R0TRsMbhSLKytUJOSy6YtMT8gBxcwZx+py9XQq9+0RnMHTF8mI/d2sL2fcMc0fe/eGT3rj3R1wVj67e63aeOHo1+Lfyr9cttv2nlXtijNuv43xls5Au5BBO33irqRFprsdgNayXNaHQ1hjucOXyy0xl0xh46an2i9c1PcX4v+FQobr1TKBGX/vhEdBbbKZbiQx+7UrN4r+TBXp5JM0O5FvetEbI4LEI6PKtzMbeYpkvbEdEl2x0m6wS7zWXbEXE57JZMqmPMZ0+9zpjTEuSdB4M5MacHPDGPj3FCDK+Dkc8/3K/3Y+wd2dnD/FmG4SOCstNg0OvdScncDeK970qLjuy8j01hQ178+413vMzqTrxaPe/CKYu27Gm6cyPLGhJ4Y+3hyui1f8ywjY+Mnd5wCWc+A5ExSvcJTifplBfKELw6bwOIMneC2+JuiFgcdnLaOM1Mz3pjzENBBEacnfZopyYMH+YK5qYEnUFx+DBERpyZNKpZqj39z/d+OPrCRVLzB9uWXdtw/RWrb7r/KZbYEmW5dwlX/tB83dKbH/vLLX97IMZI/B6+dOHsUxVKID2iVa9nUirbGUltUv8d6uN0XXuePTUzVXCKqakmu0naETEl25N3ROwOg4HWJyZ6U9l6azx0cnPik8jponwtggNnsxhnXzI4jnSDPg0fhkB2ufv24dwN4vet46S7t9+5eeupk1GVeV966dQJtnJ+9RYHe3Tb7jkPhVlK62dsUPSLM6VrtmxfxZlHM6TRYO7BaasiNJh0YK7TGQRDQ0RIM/tt/oaILTnF7k5PTG+IJDokd2qySHUmU19JXu+IR0BKWwR42nzcceY5fFl9hydj3OP+dmj+Ht7F36Nbn32m4Z6dbKm04sOHPvj61cNzpOZT1y+ua7h+1eU7ylufL3q5ki2ofYI5TzEdG3bXttZXNizZ9fgDO//2Vx4R12Kq7NK9g3XJTsNC6aSfG4HELlKC3WaaI4ZsVnGOOsRaZ7M5HTw6WwKsl8fRQjljnooFKuuwPiX6nUFmzZ82LX90eXlec7P06qT8/PPOyx8x+Yf+Ep+TOwHrEH8iJYfMzC0QjzWd5IxPRR5baGHd6dPQ0bT12+HhTCoLDRKSmVXSuZO9ks1ja4ikexyJdjNzoQG0lDDbZS5Mcta5vKY6sxmTmDfIwyHQRjcYHDMmCOemBDXfop+YD7G8OOLPoDvI7UjhM02/vXn2ktnXnH7uoitgxvKXF92WfulJVi4Mvv13+69pPS6MZRl/2dx6XKI7Dl528cvRi2Nspb5aJA8MpTC3yW22WyW71IA45VYmWY11prMLXGzMYxZ3IeCW+jYfXlR/+rS04rW7FXSVedsVrU0S/fmx147E5/Cl6IfvJNmhJHI1RChZb22I6B2m9W53qn292La2xbcTHYLdgWDna7fYFjeIIeHClugHrO/3Z5g1+s7pTbfuuW7zjTd6WGYLE1hW9NT3X0VfE1c/fPftB/bfc29TzELhtOTC6tE/lGxwG+1E5uXCNYIgJDiIXGZ9nQEGOvMR00cuzM3N4eaxPh2Mg3UpwukBUxfUw6lZv505xif6fQf3RJMlOrbkikQeITOxHgyGdYMpHBqq62fPkJIGUQqziSmpSakNkSQHMQcTLCITB4kNkUHJKSn9Mtbb7dRvvU43hHLQuWa7Kz+2EDie0razeMbpSskfOmQk5lTu8GGDhb6DMZPOFYKxnS1BcCdlCCkZojspQfBnzbz2Dy/1Pmd6cMy8oqxxq3aUbatdsnXg+Ny0tJGTcwsXTuo34fI/zLxHfnXu1f6hfTISU/PGzyqYdMnkvoHDk1zyIK9vsD/d6c0bf2FoysrzsmFXQD0t7NPlYM8oDPmSklwChk1INpsNCXoLlvWGiAHetOlteovRXofNKZgbzM3JaVsesDVhVYgvDrE92en0Dw8OHwm/+p18QEcK+4qXR4/fd1/zV18VTh4dsGSxDKFof0th9Oj+KM2eksW9ux6xk4SZ6IzFqGjVWfn677Ab7Yzq7PZEMx9CbdnXdkYtSttW/NgOyUPHGZSSmqV5r0Qbml9ZsKH5joPsQaG69cHoJzdfJUzGIS62quvNQh98txEz0DbWl4gSQxbB6+wjlKf1slI2Cwwn/AOrZdJjQp7ejFXBuZ8EO8ZWwOHrQpZzRDtLJQp50ZN/+UJvjjaxCbG/+DuRbrKYDV1+bybSnc22lxg6Kug5GDsLDHroQF0066Er6SR9Dz809CQ/26HVYvz1nAw/xwnRoXHqVOO/5sR/6bJZje0/ef0cp04/bGkvps4kjQaIOSerEcU6va6nn8J64nqWk91m7sZJ31mFujKIvVg6kzQZif+YQpLNhGK9XtepRleDfpaTI6E7J0NnFe0y/xInswk6nFOCCbp6g74nTj3JYxcfI6fd0mmweuLUkUGMoLVzP+2c7OYYp05W/CpOiU5rN07GzirUlUGMoK0zSYsZYqjrnBYUG4yGTlZ0NajHi8eNOzGh21ToYEk7p44MYgTtnUnaLNDhnBKt0DWajJ2s6GrQz3LyuB3dpoK5swp1ZUD8N1xteevAOMEGMdT17gQUm8ymhB56tfUgj12citfj7MbJ0lmFujLAfo8rsTNJRwLEUDd4HCg2W82OHnrtiWvs4nGT3iux2/Ts4PV2Tq6OChrBpA4CO58sEKMhYy8nii02cycrOuv+Aic5zd1tKtg6q1BXBjEXpXQmmeiEmHNKS0SxNcHa0Y/dDOrx4lR86d05dfBuOyf3L3FKcoE3GjKlJyb9LCdXD/LYxWM52+fpNj07eLedbUcG/H+BEPXqTDI5CWI0ZMYXGsxy2JJ76DWpB3ns4rE8INvbZfHp5N12th0Z4OsTV0ZnkqnJEKNFS3Yqih0ue2oPvfbENXZxKoP7Z3Sbnh283j4F0zsqeDnIHQTwdZqH0niL1v5eFDuTnN4eevX8LCdOJXeg3G16doiddg9mdlTQCPo7CODFDC88hxZtA9NhZWKyq5MVXQ3q8eJxE6qonj0rUlE+dcrk80onTZwwflxR4djQmHPPKRg9Kj9vJL5agrlDh+QMHjQwMKB/v759snv7s3xyZkZ6mrdXqicFH6GJLqfDnmCzWswmo0Gvk0SB0UDmUTxF4ZJFSmpRpWL1F/sdsmKdcmZyjkIuL77A5GBOZFBcS9EFFEosVZLKwo0Uyoso+kBXlSmKmO34wofKk71yiSJl459/UlW10q887PM7jnvbyyOoo/QqCvt8XkXIxr+JKMK/SVVyteIog9znjUkmKlQW5qlJPZkHIeX5IsDysJLR9hqJ/BTJA0TqoS40p7B6R6M1tahYoaRGsp5UyM3VzuSRQgVKvwCIOJDTWqMchSV9obBEhbkng3LnLni1E3k/4YOS6kX+kuqF8Gh15Vmfnol51CfXy/XlYWcQWY10qfLMtHCjxVzkL5pnhoA0ATWaLZBYuABN1DYy67lMywjWklGNAhltcJ+L0y3haZES2lKJjL8YfkNJ4tmSJvXQ1o5FhGptucRYLkZC0RcphhgJeaESqlJoi9w48FD91iYHzakMWKv91VUXhBWxCgqNJGaX1FQoaaVlsyBCV0iVNTIf7mIN+ODJJTVyPd65biXQX8wHvZO8umZeJQ8TVukvRpmpKLzRd8iruPAsUZwBxQY125Xve8X6Es9Cmb/W12+UlT2g26HUxxFB4AH1+hI/ekNjJYsK+ZDktA+bFo0Tq7XBCW2pkpV1cxbFYq9qa1v8++odivVrH0YH44OaWsW4K6srF3HKi6q4mSWL5Pot8zRTt2qmIV7lkkXFPPGKiH6agdqzwiU1/pKzHcJwZMTsrnV9PiU1wCvW15dwilXVYB+jjIKz/Pmc8AYY+BQpoQrtQRXaGKDHUFVxJC6KK8zi1XhJZXEk4ouNO1QVQ/ZG3WC/XM9bNGQrSQGH7wmUHRo0sLQ8XFLs1axXhKLwOS0ebwvypWXtYuaBTn1Oizfmo9Lp/tJpsSioaYPKitgEFtpHHqpxfa3VIx7vEeTH+cdV1teP88vj6ivrq5rUdXP8ssNf32i11teWVMrazGeQH9ziVcZtjSiOyho2CoPM421ceamSOG02H55xck1VbLEY4/fleX3OSJtOWU/F8XmGiEfc83lW7/gE3KxYkbzyOL68NGFV8CqOPD5NwWRGGPNgrhazGmB+TEfjXj5TxEh2ycLpcQchGuMBw9e9aXEpGvH5+Bza0hSiOXhR1k0Lx95lmuPdS6GcAMaukpccaitxz+Al69pK2qtX+jFWHv4fF342pjvGc73T75LzczT/a8tttXKoAjZ+m6cY8+LDnVgUFr1CPCd4RZ4zB7B8FSgpAa0i9wlWyXqHX37RrzgCiq4ofMhbEJEdTixvDDoTAnzWYBV90f8s42snJTkUVqCwZC4nrKXaki6m5KGwPXjkkvrKeHR1NCu+AVTX/LRt0HH4YZ43pu90+bmFz2tLWnylzh7H55LXF9OYFFES+HqsJHyiAfh6i8IyVh/M1mlaRi6Ra/hgK3JlsbYMRLwdxU3qicpivuyBMlfxxsMaGHNt51j77yN8HSL8N1sjNYhuJTQAFsjD0a02WyrCcS/leeOziPc1kZvSubzdi2063b1bWtHprUO7fEPwoTivfe5XhJVxgbamYu/jA96OrxO6FE9sKyZ4QnZO5E7F/pPn7STD+IZiIqwja7xX8v1EoMJGP9s0rTHENk2fFT6AjyZ5U0V4r8CEosrCSGNvlIUP4FgW0qQCl3Ihf5H5C5UytLZXMGr63gMhonVaqaQJtPe5TYw0mbFNxmhukxCTOWId9dE6CpGAEilWEmrTliAzxmTrNJl2NRK3PWTWhYwhU8gq2ARvI+OivZAcZDjrM9pnZTbmbUStck3cxNY1mkLemMY6aIRiDDfNONv1jFnhfVZCNQ3RUSG/4Op1cHYZ5hH6mM1PVYrc61lvvYOv0kokwFeyD/jyt7B4EM6N/wNHIVs9CmVuZHN0cmVhbQplbmRvYmoKCjMyIDAgb2JqCjw8Ci9GaWx0ZXIgL0ZsYXRlRGVjb2RlCi9MZW5ndGggMzA4Cj4+CnN0cmVhbQp4nF2R226DMAyG7/MUuewuKsKhsEoICdEhcbGDxvYANDFdpBGikF7w9gt210mLFKQv9m//2FHTnTqjPY/e3Cx78HzURjlY5quTwM9w0YbFCVda+hvhV06DZVEQ9+viYerMOLOy5Dx6D9HFu5XvajWf4YFFr06B0+bCd59NH7i/WvsNExjPBasqrmAMlZ4H+zJMwCOU7TsV4tqv+6D5y/hYLfAEOSY3claw2EGCG8wFWCnCqXjZhlMxMOpfPBYkO4/ya3CYnoZ0IRJRbRQnRC3RCSmtkZIcKUuRUtIdSJc+Eh2Qsgwpj4lqooKoIToiFQLp6Yhmb67SX4/3f8oKak1d8owqtdSTLOcNPgYH+EiZRXKrS5W2eWx7uw9bXp0Lc8bl4oC30WoD9/3b2W6q7f4ARqOdlgplbmRzdHJlYW0KZW5kb2JqCgozNiAwIG9iago8PAovTGVuZ3RoMSAyMzM4NAovRmlsdGVyIC9GbGF0ZURlY29kZQovTGVuZ3RoIDExNzIwCj4+CnN0cmVhbQp4nO18CXhURdb2qbv0vtzuTieddJZOmoSlQxoSAglG0ixBIIIhRL80iAZoZHFDNlcWJYoGVEDRER23QYcZtw4wGBiXDCrjxqjjvqMyLgiKyzgMkO7/reruJEB0HJ95/v97/meqc99bt+rcqjqnTp06p7qBGBFpAIXotEnB0tqDt7xKxNpQ2nTGqPGNixuX4Nn0NJG6Z8b50+YVZSmfE0ke1LfPWLzQd5U89V0iz17QFJwzb9b5Y0e9NYvIb8DzmbOmLZhHXvKjPQvvZdZ5l54z/Oisk4iqUJ9XNzty/iXegjc+JOofIbJtnD1zWuSbC01PgX456AfPRkGazXA9ns/Ec6/Z5y+8pPVF90oiPejlpvMunDFtzeLr5mI8b4Fm8/nTLpmn26SClGUDfBdMO3/mkN/+z0wwtxo0b8y7cMHC+ES6GPVVvH7e/JnzbvoqdzuGtpHIECJGMhnIRC7Sx+NkJy6bt6Tt5KPfkJ4k0ihI10ASNjYf8uLUIsUn8DZ7SHjfcG9HjMj+/ZFz/7nTHhMtdk9viRL1tg0Hn1m7/2x71d/JaxAVj/y96hF+f+P9z2ccOffoNnvMNAOPxs4WZOU0toZUMqgb1DJ05U3c5VfoHMlpUCWzKin4SDJEya/ONH6Sz0ch8nVUq6/GJjKr4V5J8hGL8zqF1A1cMpQhRi+L3iwo3op7H5QrkI+P+lIJDadRNJYmUB1Nopk0h+bRYrqUnqMv6Huf1lEdj4t2elMxKEeCcjwo62kazaJzaT5dAsrPBeWweDz+yU987oB8V+4hafcJsjs+mTpzF2E0RPk9fMrpQnpIfD6gwyz3Z302sU1SrrRKejf5+Trxka+Qf5B/UKbhc1h98Ec/z+pO072gL9U/ZBiIz0vGCuMV+Ow1WU0PmNPMK8xxc9wy1vKO9STr72wyPr+2u0749OvxM9ze2MPnwp/1ufZ/3WeTmDk9TeZapxiFjYkk8wwrryGZl8hGo5N5GRpWlMwr3WhU8oAqkdchR0JHZ2HuZ9Lp0MUzcJ9PC6C1F9IFaKMc+jyYBnSj8gk6HzSWlyyi86C58497Op76d7iXopWBVIHceLQ+A1QXop8L6RxaiLKRyM2HbnKchpJE/yWoGY42zxP9zUGbs1G3INn7AjHWxcCIoLRCz/k1BiXTUTMTtsdHp6HVmWirAWtwnhjRqejhUrS/SPR8HnKzxIh8uC4EzaV4N9WXr3PsA6hMyDT1NATr1yfW7Xl4ZzbyY5C/QLQxAys5QTsOT7OFJMegv4jgOMFXA8rnCF7O+9HxnCPk4aMReJ6OGl46TUjjWB4T7VyY5NQnelmE2hmC35SULxZzw0sWgSoipOdD+WxRNh7z1CCkM0e8d4GQ70ni/ZmCYiadjz65tCMCfckRpWh9onyBmFtu9RZ2alGKD16/EKOYgzcXQAqk9qP7U6ZJGvjjBoy9Sb+R5tJqXOmdZY9Rb7mM1uA+71/Yv5+d1L6J9pXv6Sz1DnpMsdBj3eul/GOf9UF6TD2aKFMuT96fw3shzOi/maRCqlecNFnZSvfLm6lJ2YYrSE2iTZ5fSfezg7SGP8uHRf5+3V66n5crUdRvTchSehbvz6TZ0jYKoG6N/LpY5yQ/SFnyh4n8T6Xjef5J2mDXGP8lbfTn0f2cJI2glf+ptv5/TdIhOhP7Az48wVc5ZIjDRzHGY/CVTECTQDOZgRayxDtgPW1AG9njR+HjaUCNHEAHOeNHyElpQJfANMoAuskTP4wVwzGDMoEeygJmUnb8n5RFOUAv5QKzKQ+YQ774IcqlfGAeFQB91Cv+D3gfHAuoEOinImAv6g0spD7xH2BH+wJ7Uz9gHwrE/w4vqxjYj0qAAQrGv4ctHgDsTwOBJVQKDAocQIPi32HfKQeW0mBgGQ0BDqKK+LfY3SqBg2kocAhVASsEVtLJ8W9oKA0DnkTVwCoaHj9IJ9MI4DAaBaymGmAI+DX2qNHAEXQKcCSNAcIDjH9FNTQOOJpqgafQqcAxND5+AJb2NOA4qgPW0kTgqcD9sMH1wAnUADyNTgfW0RnAifQ/8S+x1zQCJ1EY2ECT4/uwt04BnkFnAv+HzgI2CgzT2fEv4C9MA04ReCbNiH9OUykCPItmAs+mc+KfYUXOAsIiA6cLnEFzgRE6N/4pt/jAc+gCIPZz4GyaF/8b7PdFwLk0H3guLQCeR4vie7E/LAZeIPBCuhiI3RR4EfAT7ACXAxcIXEhXABfRkvjH2MGXAi+m5cBLgB/Bdl4FvEzg5dQMvIKuBi6ha+J7aCmtBC6ja4HL6br4h3QltQCvotXAFXQ9sJluiH9AVwM/RFxyI/KwhMBraR3wOrop/j610M3AVbQeuJpuib9H19OtwBvoNuCNtAG4BvguraXbgevoDuBNdCfwZror/g6tp7uBt9A9wFvpXuCv6Dfxt+k22gjcQPcBb6f7gXfQb+Nv0a9pE/BO+h3wLnoAeDfwTbqHHgLeSw8Df0OPADdSa/wNuk/g/bQZ+FvaAtwEfB0+yTbg7+lR4APUBnwQ+Bp89+3Ah2kH8BH6Y/xVitITwFaBm+lJ4BZqB26lP8X/Sn+gncBt9BTwUXoG2AZ8hbbTLuAOehb4R3oO+Bg9H3+ZHqcXgE8IfJJ2A9uBL9Gf6CXgTnoZ+JTAp+mV+F/oGXoVuIteA/6ZXgc+S2/EdyPCeRP4PL0FfIHeBr5I78RfpN30HvAvAl+i94Ev0wfxF+gV2gP8K30EfJU+Br5Gn8Sfp9dpL/AN+hvwTfoU+BZ9Fn+O3qbPge/QPuC79CXwPeCz9D4dAH5AXwE/FLiHDsb/TB/RN8CP6bv4LvpE4F76Hvg3+jvwU/oB+BkdAn4OfAaR3GHgPjoC/FLgfuqIP00HBH5FceDXjAEPAp+ib5gM/Fbgd0wBfs/U+E76O9MDf2AG4D+YEXiImeJ/on8yM/AwswCPMCvwKLPH26mDacCYwDhzxNsRgLNhW40eNs7XxqpSmUGpTGkqE0xlSlKZ4lTGksooqYycyrDQEZGLC4wJPCrwO4HfCDwo8GuBBwTuE/iewHcEviXwVYG7Bb4o8HmBzwl8VuAugU8L3CmwXeDjAhMjaxX4iMDVAlcJbBF4ncAKgUMENgtcIXCZwKUClwicLrBO4BiBNo7BJ5QD2DxPU/YDQ8qXoWlGa+WHe9Izsl97HXD5Feney6/IfOWvyC++GHD+PMB5FwLOvSDde+4Fy+ZnLVyU5s6eNRdwzhzAzNlp3pmzr74oK3NB+mUjM/MvxXVSJQWG4qpcPyYv+JjyKQVVmSRV3uKK5+15QvkH+t4j0Kcc3GJ1VIbalH2bzWmV2+PtytdbvAWV1cOtcFYZ3ah8BxyQxK/FmD/fYtYqBzzOTsfTco6sYcv6XnnVT7IRKLGz4XQ3Lim+Z+s3fQNomoW2nDwyce/Vh9+rtxQHE/eMbH4/OZReFKj89DM5EPqsuKQy9JkXxQ15eZVt8fZQ+gt+f2Xo7b79KifVS4H6j6WAL2q2Vm5nEhTJKwU6jpoCRx5RA9+i5qlnpEDonYzMynfxgJe3fDxgoGjE8XFObmXojYyMyi+fkAJPbEAta958mwm3KxO35YnbspAd99tx3QaiDetVNLPn0a/S0ivXrZV5PmT53pVeuX+9ElgLnnmBeYYns/KcGeyW9VKCYH1hn8qKIRQY0hzPg7ZvWyIFjr5rCmxnw1jVZgwQS2pzXq9KLJ/NS9AmK9nSLAdextr5Awu9hcHzARufLiisDO3EgDkb7Vlefn+0XXNW7n6Rj6P90ecgluefFflQ+kFIZN9SKTBgusWiG9n6iBR4ZGlCAq/anaKJx3v3qXyMXUPXMaIAu3pzi0m8mb06N7fyuhYl0NJsCqzCOK5cxgJLliqBpc0JdodPB3fTm1ngWlwrcV2Na0WzEvii+Z/N0pxm1ruZeYe4PYPd7nK3c5DbXua2lLqNA926AW456KYS9/AiNo7VwqmrY6dCP+axcdCYoewkaEoFqyQbG8yGwDk0swo6CVctrhdwKSgZjJLBNAWXTBobivd0m+V43vB8ZmJmvG9gRryvY3q8fy4zoHUz8CRctbj+iOtLXEdw6VBjQksmWoVLZrpQARoq6m3r09tePthWNtjeL2ArDtgL/LZefntuns2XZ6cn2UB0OxDGcCA/eWQDQsvZvH57+klUxbReoV7zet3dS7FrDovRZLbo9AaLrKgWYpKlSJedp5M9eXa5Wv5Qlu/CriDZM/IyghmyPS0vLZgme1mO1aPPsrq1DKtTSbMGvay4ql9Vn6qiql5VBVW+qtwqb5Wnyl3lrLJXGat0VXIVVdWVNbCos5ZqG0ZEXRBp7aQR0bJAbZvsq4+WBmqjxropja2M3RBGaVS6to1RQ1S5tk3CzTly8pTGNpbJq6/2bockKVrbdPX14UAgJxqpndQYXZ4TjpbyzJqcMNVGSydGvf4RgePTAgFIqedu+UBrn6KaaL+aadHimqZRonJhG9PVzGljppo504D+UW3MkHhuQs4/KtlEGxvKSytq5qC4glOJ58HiebA/0Va3UbAFCxedMLQTx8kTdcv/q4Q+FixMccdzojTqiVZD0j1Qtxq51OvqR9RGDfW46qZEs/x4eBYPg/Fg8Y9oJWlkQ6vEQQeYMqVxuJsNowirwjUIVymuIK4SXMW4LLgUXDIuFjotEo/EIkcj30W+iRyMfB05ENkXeS/yTuStyKuR3ZEXI89Hnos8G9kVeTqyM9IeeTyyNdIaeSSyOrIq0hK5LtIcWRFZFlkaWRKZHqmLjInYIj9XEl0p/O+/Egio+/l5h7oBcVsSuyeFEiXxz+PXdWFsQqwv4i5xHh7bkYw1d8cPqPeQVRoT/1IOI44kxCjdUvyAUob4cSO81VXw1i+OPZyqMSQvJfHYkixekLyfS/zMejlikx9Pb+Dz76cofOm1yfwmjIy65W9HnJNKtyI2SIxshbjfjFwX9U+nPfjcTXvZE0w6oe4a/n0JPOSnII9xiNUmqu+q76KsETFHI/ro/sXESwI5l5cgTroM8dpleCuRrhQyIlF3vrivQ9k6yPluupW9ishyIaK5TV2N6fzwv+eC9lRxEvcs4o7liKnOxXw6pF7kkAnx65WI9y76mVz2lG5EHHkLtccei30rzgsX0xXSD9APIqtyC+LvBkTFczHyU/VzYgPhbXc7cVJ2k0N3N9eZGCHG2YbYkt/bcP/jvz+QOMVmdJzfsTh+VXyF+oX6ifKEsl+OKJmIUpdhZm9HXMVzayGtTf+6tf+m/6b/pv+m/6b/pv+FaQX20Zvp5vjV8Yepnvrq0uhh7LOjY41qE3bkq/E5U+y8v6Vfwcf4iO6kWngAW+OfH9PKHdivP4JHUgsfbwJR6PSrI1MmhxvqT5sw/tTacWPHnDJ65IjhoephJ1edNBTx8+DyQWWlAwcES/oXB/r17dO7qLCXvyDfl5ebk+3NyvRkpLvTXE6HZrdZLWaT0aDXqYosMSpmnqhnZGPN3GjmyCZ44KP8mi9qmXBwfDBKTm++3+ErC4b7J6miaiBKrtpoWl1jK4UqwlFd4HiSCVG5UPs2Hy+P9/pqokoh/vzjpkWifeob8/3aG97O+jDeiWaNbMzP90alQvyNRRX+xk3zRaJaHcrzvYmSsVGqa+RXW/zjChRSRX4YWN8YzU09hsM9DXI7HI/244Y5gbVorZbMkaOilNZKlo+j5OZkByvgilZF+yAQLNSQE61RMMrSvo0yV5S5x2PIx3bBX9tT0YMMaiJz/TWROZBopKlLpgcTEs33tfha6hsdZciKQSP+mdjYajaN9I+caUIBiQJqNZlRYuYFaGJeK7MMYyIjWWqGtkpksEJ8Tj7cGn7NjYZWNSHjHwW5ocbVVdMWb1/dvYrwWirnSuQSg4jqRkb1iUH45kRD06K0ytda3N6yuk2j6U0BS8QfmXZmY1SeBoJWkgtrZjdEs2vrJqMIXeFqmu3j0z1KAJ88X81sXwueOW0T0D+KT/ox5ZHZM5u4mrAm/yjUGUc2rsxv9yIAb1xZE3UEolaQWS/b65VbajxzfPyxpWWlL3o3htutNp8jlMCDobfU+NEbGquZO4JPSbBz2oQ2jo2IyQmtmuaLLp8+N6F701an9D+/RYtafsjH7GB+8KZ4MSnKSNNcPuS50zibNXN9LatmClZXC9agr76auaP4xV+E9tPpeHtyY81sf01Xh2AcGbnw+Hfz86OZAf5iS0sNH+K0CEafGDIqusbP14Q3wDCekdFQg7hRg5gD9BiaNiqcLEoSTOav8ZqmUeFwfmLeQRrVF65US/y+Ft6ivjCaFtDyn0Zde//i2vrGmlFewX1UGtl48gGP9wDytXWdxcwDmpbgAW9CRrWT/LUTE1owOwVNDYkFLHXOPEiT9KLV3R7vbuRH+0c3tbSM9vtGtzS1TGuLL5/u92n+llaLpWVeTZNPrHyG8h2rvNHRq8NRrWk2G4pJ5vo2ur426po4hU/PaN/saQljUe3Pr/DmO8Ipmrofq06uM2g89J6vsxZtP8ZmgUXy+kZz89IGq+CNahV8mWIkpzdiHcwQOisA62MSGvfylSKHC2vmTEoKCNqYVBhu9yYmS9FIfj5fQ6vaQjQdD9HlExsTzz6a7t1MoWAAc9fEa9pTNe7Tec3yVE3n601+zJWHHz/9pE531+cWh9/pqwwK+QtzG4m2N4DHQxVRQ0Vyul0jG2WvlMxJXpnnTAGYr6poRkC8yGUCK9mi+X0v+6NaIKqObGz3VoV9mgPmjYFmTICvGljRl/3PMW47KU2LsqooS+flBFsqTLqcUYHKTuXx1bQ0JbWrO1vJDSAyu2feQKP5wZ43Qe9w+jmHLwqTlrTUhaP5WvLmJyjGhaM2bo+jtv0CMF7vyEYfrA9W60SR8dX4ZvPJjvqaRgkzEPZ2L26L72kaxc0ehsxJvEm1BiZEe6yu/XwNXw4Nv3J1eDa0OxrqBw585ehWrJaGxqSUKrzJVcT7GstZOba+U4opmhOlW9twzFO3dvmGkI/qis6139AYHR1INZV4PiXg7f445rjqsalqgiR8jrFcqNh/KrzHlGF+Q4ki2JEl3sv4fiKxEa1+du3E1hC7dtLkRuxwI7ZrRL5rGxo3S0wa2TQi3NoL9Y3bfXCGRKnES3khf/DxB6plaHGzZBD03u0houWiVhEF4nlGGyNRZkiVMZrRJiXKtERHRaKjEEmoURI1oRS1gjJDomy5KBNJHFw2hkxqyBAyhiySVfK2Ml60GSU7GJGR0RYLszJvK96qF8VtbHmrMeRNUCwHRSgxwmtP7+r69MmNWyyE1wSioxE8QdzLIfA6rCV+ShrV+CTCvYr6sp7ztmjcXEfDAW7S/sbt4ByoSWshu7auO09nRtNq66d4oyzcH96mA9d7ZpOeUr8ZlmWZ/4ZXPtG91ZPeoKMEoYl/VaDXda+WdXoVJXq9TDrZqNfrSVEVvUqqmqLoRq7ryutP7KmHzn9ZUogsZkMXbwoKZLWH5g1k6OTNbOSsHs+brpM3c4o3HamdVP9PeLNaDJ1Htz/Jm1Gf7NliwpgMxwxLxqwaeGGCN4MBXHHeutjoRq7vyht6HNJ/JkFl7FZTF29ch2RdD7yZyGhOnV9bzfz3VccMSwHnRl6okF6xGoxG8KaC2S42upEbuvLGE3v6j/EGsWq2Lt6Un+DN1MmbzcJ/NXbMsFK8GRUyKDYjeMMCRIG+k42fzZt6YtEvS+DNYTd3Nih4U/Q9iM5MZosx2bOd/2r4WN5Uo8mAEpOJ82Y3mUzgTWcydGOjG7mxK2+iE9J/kjeXw9LFG18fiqEH3ixk4borCB02zuoxw1JNZiNKzGaVjKpmNpu5WYXN6WKjG7mpK28+saf/GG9YDm6XrdOKqZw31dBD8zay8vkVhC4NrFqPGZbObDFZzGSxqGRSnRaLhfRGPWxOFxvdyM1decuJPelOLPplCSrjSdc6rZiOr33V1ANvdrLz+RU9pzv5rzGtxwzIYjOjxGbTkUXnttlsZDAZsC7NnYPvxoW169UefvHbw7bwyxJUxutxdPHG14fO3IPoHOTg8ysIPWn816XHDEtv0ywo0ex6suoz7JoGs2rEurR0stGN3NaV107sqYdt4ZclqExOlquzQT1fHzpLD7y5yJlmT/aclc5/M2s/ZkB2hxUlDk1PNn2m5nCQyWICs9ZONrqR27vyjhN7+o/xBs335bg7rZierw+9tQe1cFMa111BmOMhJ0xQ92qj5rKjxOU0kGbIdrpcZLaZnfZubHSbIUfXq64Te+phW/hlCasgP7eLN8NP8ZbhSPacm8l/3+w8ZkCOBG8uwZsrwRtsjr2TpW6i+L/HW2G+p9NCG7kJM9h7UAsPZXDdFYT52WA1Pa17tcmV7kh3UbrbSE6jz52eTlbN6naSo1MC3bhwdeXT6YTUw5b3yxKWQ78ib6cVM3ETZnT0IDovZXHdFaa8KA+sZh4zLLM704WSTI+J3KZensxMsjttsDmuTgm4u4jTu17NPLGnHraFX5agMiV9c4mS5szMTZjJ2YPocinbl5HsuW8BZVH2MT/KsGR43V4PebPMlGHuk+X1kpamwea4O9nI6CL2dL3qPbEn64lFvyxB80v7+zottIWvfXNaD96Cj/L8mcme+xdSNuUeMyxrZk5GThblZFso0xLIzskhh9sB9jM62eg2Q1lZndmcE3v6l//I5ecmrvkS/3c1SrO6GAGMnrJCZj2TFR4SwPEN7nZWBnfjVr174IAyR76jMN+Rf7/8wdFt0raOceriwy03KxMQ5/9GfpcNUjegBcsWWUKEW72bBQcOYA6/gw1aq26IDWdP8n9Xujq2QzoDdEYaHgrAOWPjGYcKicFB96n7dGwfhGswWHTjDZoZsE/mNzkY+CgQwFA+euMjqq5Gw1MDAebHnsPKAFLDutjzbPDNsV2xHWy6pJeM7IJYc0wfM/M+01H4sehz3HbSxQ9uQYfUFj8YMiMzxCh6lvH8B97RPkNb/FDIyrs2mJlun0r7GO/Vgc4xhs7OXZ2d/34dq4jtuhmwgy1mf2f/ZFfE1nX8o+OfvO/esUOsivZCLjWhnEqZVRKTQvJmhXzgkPqgG1ouhRyZY6S2+L4tKOP3bSiWgiqbGgwEAlm7AwHSfsjazfudWij7Xazq7kWL9sbS2H7ewxp2WNosXY4eskOaxCaFT5MY/1e95GOMBacGp1JwagDv5pfnS5s7PpAK2OEr+Xvz4vtYHb0AI5MdcpAuOoVcxkfy5CBmL2hF1xdB0Hgvo6CofNDgstJ0d5ruw5Lhw0uCI0akjygpGTmypGQE1x3++yonpKvHLv9yqFivZwYdM2oWGi8ZjCYzM1ttdlmxyAqzMKbJjNcoHrOVncra4p9v5RlLW7xdZMz8l6CVPGezGk2KarYYrLrxlpAzfYxFFzLYJdkurw3b7TqZqQa7xSxLNqPVZFIvVtklxFS0F7LBWzyVPALJoQYdZRDi1KnOjEoKBqsxh6R5ntaeztLeDwSeRunAAVAkiPnss6ZOXdnebmtv11YC1PZ2htfy/XK+7GdlLrmot1+nl1Xnjl913H3jH6Wih+/6yGxWTNYP2brYBeqGozdKM3JHnOzv+DWX7Vnxz5XV6mbY4dtC9hoTG0tsnMzsGcwiGzmLcNvHyx4zjTeZyc0LRiLvdrsk19qwhG0YdGaz1WBdG0b4Yx7ABVINSZozNB3kocFJG68tUTXkVb5SVBcURuXK8oVYJFMDZZg7B5V5gmArmQuUOcoEs5xTgibp/D5oL+WXZriL/AU8W1Y6RFl914HYX2Jr2J1s2IvXbNjxj9hulvfFW3dWNbAWFmKNbNNJW86IbYvtjx2OPdfE5/8xzP+w5PzfGioimeFPQ+i1NkxOZlgbhjHhs6jwkSoGjFRZYm2Lf8+VHfeDW6zi/kPyeV/IAxKr1WHkrBo5q0Y43OONS4kToQz3GCcWd76AkoxzzgPJLNgnD1dfzi1NheHycVZlRxnnOf8xtlr6ITYldtdrb7AsNrRjm7qhoya2NXa+Kh25hZUwt9QbswjO5K3gzEzzQoN04EcHK7U2MEBnkpgJfDklFdMF7hT4J1adiQ/YxAds4gM2LWVJ7nA/zAcs7qhhqQGXYsRlZcFgcrTwTSqRCWLY+bCy7uQlb+0wSG91vCzpOg5LdeqGX8X8t8ZMifGxiLC52jZayjAemN1qWCu873eUscimTagVdLr5yHlpR8h9WRZb5GJFrsEuaX46SxcL0ZpaiGIFDeG59CymGq06p8PpxF7A54/4/BGfP1qaxQuylsHAeDh/TJfkjltQluPiFjQDFS5rN33lMtGWOtri33KZOJIz7oAsYNkDlaWYvkAgGJhaJkRTCU6wOpGbKuweVqJj0BAsQeZnWIrpbgfnMD2jbPAQVqab/1ub4nHF0utjGe50xXDvB6ytzK4LZLE//VXeOf++af2ObFZGD5hxxlNHQ1iqngWVi4fKexOSUVGCXfChkPViC5tvZpdIbAljZr49YHGOtxuScjkUCgq75GSqYjTJRmYnzhsPmMbziBBSWeZgDi4Ph4OLysHfyUSFw21WDZzWwGkNnNaw1JiUg5FTGTuVPKUZlaVJaYiHMgomhAFRwChxYRwrhKJyR5ka+ktHbrZTZ9j0jvSX/lbFtEm5OBAsufXI9+qGI7ePzhq2Xv42uV6VvuDZhHhgTajvaB2T7MyiWGht2GKRJadsXhuWZT2fYT3nQ8+nXL9Eg2rwAfN7KJdPKN+XNS3NwjhvCRXgPLCl2MIOcVLcvxe8SYrY0Lpp/THLlD8PHEDcLnF/IZ/vNeTHWi0dXK7lQ41Zy6cdsc++fjz68KOxqJTbgc18z4svxo5Kezu23rWWZSe5agdX2dSb/hgaWmNncsjG7BKzqBm5BkMuLKnBlGPOWRs2y8yUYXRw/hLzxPnrtcRxqcQuY0xKLQW+OYWKRC5bcijzoC1iFfTNPcEwmZJzaUquc1NynZs4m1y5S7VdgakZpXwfCn4kDBUFyxLrHaud3wYOAPds6tl8wymR/X4hhlzJnWaT9O5cOYNBGMOk8kFFfqX92YP5w4bXBls2sQfPumvRiP6TFo3tVT4gmNPRurf63AnF669n6ypOK83ouFPdEGy6sal2yfQal6L1rTglKE/qOFR0yqzQgivBzaXxz+UPsEeV019D7tpyNq6EjS5ko7LYaDcb5MEG1Y/POO59uBnDPZNL5AxkHLzWWOwqUDwDs9CSF9uV1xPyQLgehbB4ZDZwoG5teKDL6y0u4FIr4IIu4IIuWOJysWJeVszLinlZ8RIjX252ZH1GZjQOYYaElRRbWUJgSbklTKX2tNjWKMuj7UYOsnEkd3JuL3gaUp4rc/UZVCL1LpHLBw2TyhLbnA0yzZUycmUuWn9BiXRpwdlz5va//bayyZefUntV05AzVm+Z+tq0ZX8ecsEZg/vWLagd3zL75EnXt51TEJk9deiu3AH5zgXnDT3jlOG9iiacdXHd9LVnlZQ93pgxqP6kIXUjhhUWNZxzRd3cm87sa3bnQTL1yk72ps7EfbNHL5aZvJyRxP8NjFUbg+UAtzrh1cGmlbE3l8UObwL9GGjzZMzNCsVDaZRHvw/V6zRGRqYpOuHWmN23hM187zebs53MLWer2evDarodS22M3W51WteHnZrPPsAu2c15xxupZiYldqTvkzvSV6EMLmyWb89cYbBwA8UXa9DADJB94IuyrsWKnWpqyq0IJO7Vwivmi1f4T/n+cr/OD4dRKyzU/AX68sFlPoder9O509L5bMgrNirnvnzbQ6yelb26ff2tz7A5G/8xf+G54cvuurvt3mtYXjDA1KWbmmJX3VygTZxVe/YDK0R0Am+qQd2PGDOH7ggFyMQ0nexmbrt7fdiervcavevDRk0hC+fVwnm1cF4tKzxJQ+ThC9Qi7p+EslDl8eTpJCcnd3JyJyd3NsvcFjtQKEsolJmIO/ISXrgwXMdYrqQEEphwNAr9bhhkRxncZadbg3rJScaxbgt0bIKycaNy6RfPfHj47RfOu2/Z+t/dufLGh2++Wd3f0fRi7MBnsXjsBWnsjcta977wwM4/Q3uaoAXToQVuujo0pVFmRnumXYLDiOUmfMX1YSlduInrwwYNAQWiGjLzKTRLGPo8OIy8zHz8HrxCTeOOIydU/d0cR77dYJaDgdQkd7mQAwdw6wSPsYDKB1FyKSVmdYjctPjed2PfsYJvV86af9Wvn3v8rmsWB09hOZ90sLLSTXUfPbr15TCfRXCjaMlZvD1UYddhFrOFQkte1cs1mLltbjPm1KzZyWE93uloZmpCcw8lNfdgqJ/Q3DwPZ9DDGfRwBj0rDHx1GGxcmflsG7pPYnd97pxEcYP94JOYVGIpwShmU05MX2IqFW2jMv+rP33G6PVXmzCfG5fe8uB9q6574OFdzHUgxkrvly478smtVzz43s7W3bsSXMvvK/xcMZMe+YNdD6Z13OHvb7aN0emYksnWhzMzFbtRgQ6n29Oh0doyPdOn852XT59eTytcIj6CpJB5eQsKXUnP0sVNMg8iXS5vJuMCY1xgCfu5wsLFYNH4esjh6+G4DTjwRSkPjbo5n8nNSHigfD/KT+cT7O6UhtPdu4iLQi+/39FfiW54aO3KD94+xOzPPffeJrbykoX3utibD+yYv2E6y+j4mvWPHf2s/IY7779GzH4sV9EgBw8V0vMhzaQw2W6DMHoJDUDMvUcwqHLZDDXbx6iqXtJDwbNNfqt/fdianmF357hy1oddmuLOTJdPsGtGNelNce0Q+0mAb87G3oqPk/o4qY+T+lZoXC4aVw+Nq4cW7N2lHt3sXUZZkLrrhydl+1JRFJ09tVDLL+hdng4zl1QazcmVpvx4penY+8QND/2aXaYs+vLJL46881IEqnPf5b968L5rWx6q73hxzMYmtm7e08zxKVPZoPtv6Hjp1ssefv/PD+x+mkeT9yMOOYSV46BbQn0kjeFPU5jb6LYodoUrjIlONPNJ09dtvRwK5Yr14rIc7402G6WE8GJJ4cW2CWfU1c329WD6qlPhFXxzjTPrSFo/n0M+tPGrS7A6lMXvsMnSBBbavrbjMRi6uTtjZ0Mb1oCtc9S3EVnZaULIT7oZU8hmtxqny1aLPD0+4HhL3mxNjs2aHBviQy2x93C/IMC0jxA3Ve/C1Li6nVe4MJ7DxcOGFfevrvZv3KgqVSUlJ59cUjzs8FH+rWKXZC2wSNplFnaxmcENXGJiiKYsXIeM8HSYhjhAnBcVcL9HMqnMrbpNdh2ZzGbGHcM0LvIQP1Wy8AWZzQdvUDgPCudB4TwozarCzW5bPL5NGF2bEG5iXwnwhYj9lVukar6pVnJPn/sylPD2/QnRwk2QD30aq+IbCXv4zVgh2x9LU/cfrWavx5wJftg48CPT0BDMqdSjXsSS+iAEyRDOdAlSnG6J2HEcxLU/0aKuAes2j97fNtbCxiosFyw+yiOjfCZnwx6FivlRTzpCCNWd7lWsHmxHOR7NZTcx5091vz+Uzfu3mZymEWkOTujghA5O6Gh2wocODeR7s43vzd7jne5mk4mL0xSysvHoySL78k3NAxIWPBDQREjpSXJVCv04mGTQg4C7uroMCpxRJjY2vDE1kAgvi5I63KnLbr6Tp2dwhdY1bJxzxZybNn5x3mrI/vxX5tyRM/9jVi+d+vtftV/T0SY1sZI/rO1oU+jeHYvOfg1KntIuYfv5unV0rVuTPbVyexLQDz+ybtN+9rpN+5F1m1y2Pa7bBK9uvnAvvwcsLnxv02ZpDBu9/XrO1e93vr07uYfXgSMzZdB1IX9myCyNJ+f6MKXrLOvDOu34WVrhTm5U7sRigvV1D3BLePpAbN5ud6ad71p2E6rs/BX7CplbZ5l7J3Km8MAyj928px5/whNQ4ZXwwytC2CinbC7sr1T/SewblnXwb4zFvnz/zrYdd9z1wAMelneASawg9unhv8felu9/8/Ftf/3LE+0vcz8z1lfhun6Mn+lN+ZmKXZf0NP89P9MpcXKJk0ucXPo3/cxjdqCUn9k5Yz/hZ+764PDbf57X6Wd2rFff3Nqjnwk9lR5TnOA7vJ0sMGC9+VasdxvsRCbJpnETR06TjvOh43zoOB+6Zn1b/LuQjZ8TKNxbUfk5QScPjkoeLewuLQ1yfQuwom6KhnFnSI8FJs65HgP1rwmHCuTJ+bse6PhBoVfPu9TG185s+E12zEUJ3RPK1BcxOZ3JRguCQ2YnrKKAxofo5FpVznOmCuE99LHnKmn9MzLTMteH0zQQMh+TEY7K/eX14f7pGRl9clfY7dRnhcr/R4F07g2oA1RJVQcQ1zrKTh4nOkTgyaPOzpBzVyLkRIbHmsIH4CEPQnYEmxD+vww1Z19zz1uF1acPHDWrxj/igutrr55z0U0l48pzcirqykadd2rfkfPW1d1ZGJ2xpm9lsd/lHVLTeNKYC2uLSu4f5y4q9/UZ3K8gLWtIzeRhp84b14tLKBDfJ12pBhEjXhE6SRZuVFqaU3LyqMBk0tt0ZkRe68N6TKI1BHttxfSZDXY+iXZd53JrVpKHF4qI8sX9K354oXR6RKVlpcFgIOUM8W2oMzSAFPgxssPhLy8rHyKOK0VMIF059OzYd9HoRibFYqMnDutv8rFi6azVh8tjr6zueHJWY4H45gJz/LHCv1+7JzR4rI7hT7aKibXLzKJDaGtRLTww0OwGOzvBVC6zMzs/aeEMtcWP8sHzuzAsdrvr+OPYZr2Jqyov0EtCVV3HRwXitE3swYnV1rlBUDIqAKdlDo2vNIQFH29Uznkjtu43hy65feO9O9hWKdKxLfZY640S/z4MSiy/oPCvcC8PWS8VbsXFjC1W+MninpCZnyspPo7ikIwbOmYBLIbrL477zXpZcst2M6/l7oWZtMRXGlaF0yly8lBGxswE+HccpXzzhuMgzktT5yBMnCwkTknlF2Kz74ldsZUpOXrFlI5FREdJoQ5P/cnjh0l8r8/CmNcp/DvBPSHX5S62wMYutbCFJna5zBbBbxRHlejcxsMLS+rJxJ/k1JMIPaxJXbIk7+I01cUNIA9GGAfSkkHcFqgmD2dCDnG8qnE0CZQTZ7DIOTzwrXTctXIjI+scLsXMfyUlWc2ShJARQcNmyCLAv+zh+tn9uPT4JI6Hpholf/IbHT9jZS5IiMnrYptY/ZPPubIUtd/ux9nU2OYnd6W7FcaFdDimY6fmBY01sa3sB8kUu7d3X/Yw12FbLFd+HTJLgwdpsqYxsjKdxNL4JBeLo/XEJPvApdj+yW6xa2KGNdh9nUE2rA/L2Toxz7aUFjCdWbakpaY+LTX16VZeabUkp97SNfWC21S0EoSLE6hOKa/gmDEYIB6nlA4Z0qUQr8f6Lt0bCpQXXzGsPjZvG7xaTafamV+hI2fGdlpvct68U44d3W+v9gyS0+PxxPch+plSEfUB63q6gWWwKeSC41ths0jyMGZTiyhQzgLlBGoR+epMoB6TpOY/mQG11NubY3EWStmOn6AeSbEktTHHy6m9x1ErdTobqOsF9Zv0tyQ15eTKxu5tY45WKjux0fJTONejl2AzkGi5FMziX2qLwzfmd0mW2OFlH+pMsTbGu6cz8cYanY10lL2FyACb2L5No/GKulzmZ3aJo0m87O+t97vKpDWXbbzvojevVnZ++ik7lf4PGS696AplbmRzdHJlYW0KZW5kb2JqCgozNyAwIG9iago8PAovRmlsdGVyIC9GbGF0ZURlY29kZQovTGVuZ3RoIDM1MQo+PgpzdHJlYW0KeJxdUstugzAQvPMVPqaHCAPmEQkhJSSROPSh0n4AsZcUqRjLkAN/X7NLEqmWwJrdmd1Zrf2yOla6m5j/YQdZw8TaTisL43CzEtgFrp32gpCpTk4rwr/sG+P5TlzP4wR9pdvBy3PG/E+XHSc7s81eDRd48fx3q8B2+so232XtcH0z5hd60BPjXlEwBa2r9NqYt6YH5qNsWymX76Z56zRPxtdsgIWIA3IjBwWjaSTYRl/By7k7BcvP7hQeaPUvn5Hq0sqfxiI7cmzOQ14sKBSIRECoJLRDFBEzJmYSIyopl3JEpxUFhDJCB0RngX7WzgG/G3n63iOPU9MwRTE/IwqoojOEvpI7Be1FZI8sRMQURwqSy4gEcYhBsQ6Z4ZXQrIK6C+qeUHdxIh1NnhwwGFPNeIdXSjVjGjImeZqts9JwyxqW5/LYsbxZ69aLbwr3umy00/B4dmYwi2r5/gAfhLUuCmVuZHN0cmVhbQplbmRvYmoKCjM4IDAgb2JqCjw8Ci9GaWx0ZXIgL0ZsYXRlRGVjb2RlCi9MZW5ndGggMTA0NQo+PgpzdHJlYW0KeJy1WNtu4zYQfddX8LnA0hwOh6SAIMBaiRd92GLbNdDnInsBCmyAJvv/6PAm0bJFyY1rI5FEUTNnZs5cZKmxjx+h+PtOVpfUe6m8Ulo8/ej+6cJ9JOUl8kdo47304Kx4+dr9+Yt45h1a9r0nRybKOr1iEbtPf/38+fXlWQyfx9On190nKz4Pv4XD69Nzt/uA4vtrVAbglPCogoZv3e/8vQBCS6/VFSCkttYJqZ0hIVH3RvzxQZwvvnwvSIwWzgkNKKBPSMiL3vKVE2B9WmJP8JL0SMj/yfso9WyRpe6P7Adxd7f7OPz6wJDu7/cPQ7c7BGHi+K2DFAcQrLdHcfzR3SmFqBTRvTj+3QFJQO1BE287fhF8l7RSxvGRY2UGPvK54ifgIT7x+HHoHo8zxTAq9nPF1rDnddasWZ7O8oqOcE4R0bJutedry38HpcJS/Uzcx0vG5POwFuQOy3h1G69RxVOQMJG6BvOyXmzr5fhnP7lkA9lk92gnJp/E84ALlnWZti7mUs2GLHO/LI+a8rQ2BbtNsQg4Q6zM+4w16zB+WYdt66DCI7RRhpO9N+gq7rocj4DhcYpZtM1m/0W/ZSyUOHWKaXtSI3JacTprN6YzGobO2DWA8OZt+eyW8zloBsAzn0c7NMreWbI4OuZyINYT2y8HBLkKcu1YyOwi3Kyy4f/J8H4FuG2l+Aj+kJRuM6RRHtUKGn994t8S7XbCWxsJD9zRC+GtS4QHj2/vYADLlA+6Z5Q/TCQKHtnUqlq137coTTWlFzTfmsbQ6hj+Mo8b0lo9wdc8LE0h2EBbJLe6A0vWUNqNNtmbNDE9sr14l4+B3LWnzKGhudUzgmZjtmqe51KIUZ/3l5jZ9cYLbgWR03XMfLI1ejqPE3M0YxZnVgVGmX3Vyv5jNvdaILcuQj9mMygv0FhBWse57W3Z7JezOeg2dTKXIlwCHw2rnNBM6ka5B2Y92i19ag3BzafQRluIqHt141IUyeMmSkcLuTU4qBBjon2UR4ny8/YSW5Gp56e0vliUW15ovDwELxg4aY65qV1M2mYMGwgaLSEiMKV4WZpsp0ssmrXgTYzyVTvPcouFxX9x/2EqkOP+oqOOVb1vnxgai0ceH+J5LW9W6s7uZ9yUi1Xh0xkml/AAzOO9vSCB0sLwfIEKporE8acwUHt6e0XSuFyRgnIa5wssJg2Vi07HbFKSlPMwjdnRDzkWoHOOuBz/YXrviG2kzsMkkM2TvnqdqcWtlUDd6O3AN2l9VA/BfJ81Llp+jurmZbExS0RLmrP7dRY0UDTmiohimpVURnHBp1QSaDZrFJ/FpK3m++i/lm8as0VAZcc5C5NtvQQFZKvfd9z+tGYHKNeGfBwJqQrv4bRmbOP9TPaJ6eE3un8BcfEhCgplbmRzdHJlYW0KZW5kb2JqCgo0MCAwIG9iago8PAovRmlsdGVyIC9GbGF0ZURlY29kZQovVHlwZSAvT2JqU3RtCi9OIDIzCi9GaXJzdCAxNjIKL0xlbmd0aCAxNjUxCj4+CnN0cmVhbQp4nM1X227bRhB911fMY4LC1N4vRWBAtixHbZwasdMANfTASKwqQBYNiQbiv+8ZkiYp24otB0WTmNReZnZnd+ecPZQkSJFVpCk4MqQjamSkI9SCIE/WoIuc8CQVOS9JavIxkjQkrcALHV7hFfDnBMlISnuNFyknJClDKsBeBVKRGyNpATuNP2s8aU3aB0uaJ8fYGtM7gYAiAtCS3r3r9S/vbjLqn6fzbNPr/76YbeiKxxf0ic34Z9LrH+e3q4JU7/Cw1/ocp0W6zOe9ypkkG99bnK/z2e00W9O70cloJIQXQjiDxwmhhvg9xhPxKNTRpwLKeLypH7R5LYQeoG9UPc5XPtxf2tra/wS/sHVsM6xsTajqzbw810k1hnounnjY65/ls2FaZPRm+KsSSosojIjWGPfXW2zHOkuLvFkcD+Th6CR+fR0QDzY6rG0X+WrnaPWOTVOSvf7RGfU/5uvrdHnffjzg9qr3wzEJvH8r319wHv2zDyRRuRhQsb7N9vSXpb/5Mff9plf7+lepNspXBcxuvxZllRvhdpRuMu6h/qD898tgvUiXZ5e9/slqms8Wqzn1x7NsVSyKu4P3vf4w20yz1SxdFezFiS71fYZf5p9XCzhlBHx2Erk7P795jPXihk8fKGXD74TRBHw8HrIFD4YdQO0yPx0Pz9KbNsCy+eJuU2TX49XfeYnNT9l8sSnWd/RmMMu/Zsi8P9azbM0Le3Pv95anublZZteoY2cRd/8LlibwACHE/5X3SdBK6LJmrUukVdpQ1SujSKL0kflCJ0jhIDsl2AedxGB06IzT9nfHbkduSxNmoavOIDylcy6JUUkmGK9UIh1P35bafmAKw8Nzy7I7aXes0ITV2u6aTWyN3dpMUCYXO0vwvJcgmyfX9/T6VWca9mzrbYgTwivojheo+qqztaVjM3x3S0OkqMt+iZvjaqsPyTz8UiXCdgK3qVul8sf0Onucs6NlOt8wKQwYLAVFYRPltTH3+ME9ICUSxgiH1EO6/knGJqE8XCRxevM+W8z/KchLl2gRbOz1x7goFtPBar7MGPs8+dFR/g2BHzhnEmuxXDrQyiQezIx7TPDKhI5116TyGS2WmcLNuAufu/nhqLPIg6N8OduLJMJjklDypSQRH5LEk7H8DEwBpLLi6IA8cE+TuRMyhsVBJ+E7iG2w9DwGxRb2Srz5LngghK46Bl2+alvb0ja7tbUQIqYX4PMKaV2fCmmNQTtFi75uhFBuUm5BcD+QPXnmr0GaRwBeBm+3kQb8YcXy+0hTPokqgtkONIYxzvDeVUizNgEQhdtGmhKPk5y1HqfbJr9dT6H6arE3vcgKTNI/H44Av+wb8nx8DdOj+ve4/h3zDCffitOLgvUQe59qqi/SUyjiugTir0uShXJdVBTuI0IgRZGtV1UAjmLTUaKMW0eBZXXpOpKSU7s2YauzbLZIq53hVQbDGx1jIBtDIqAeVaV7V0XGLKDqgS6gU6bFebouWwWHwcVt8btLyu2lZS6yeZ59Hh9cZNeLr8iYl/OVio/5SqsX8pUWO0TN43j+b85yuHZsrVEY9yaJoroCJROXkTqx3uDkJrwl2BecsZIilpqELZySiYjaWzRYWYoUkxivHDOGdUx+QidScb9jBwuHWPaXFCZUYnUEaqzGyHarCQE5NGphfBVeUwvBJggLTMiayEQnUIq+YUp8u3mRSMAcX2kYuOYl+GsVmIQar8n97V9N/9qr//HJPmQmKTyYUkjrOtRkoRq9sw01uZAEUzV0qElgKdE+Q03Wq8Rj3yQdGOVQ5EMFGmNSHqhUwKSuqLjLT3rnJfysEqjX/HJQlbfPQ1D5l4LK7hABTRg/G5Yg1pVl5YWzZ+ioCPXO2auFrM+nLZUuUHs+uhBI49gqILZtAJyrZxGcDuVNjpTClaORI7K81EKjMKAVcN2qUGuFAHREE4Fkb0DOhkeEXnAiERb6kstIEGkMBm6wUAFWhMSHEqIBsiDydMbVdyrakLKOcWahVKoZRLfV2frDSBkoGdy66DYIhkWqbBtDi83GA4ElJbW0EwPYxicACOIz0LpaOsNfWo+nM4CbEIwHzGdD/eFkAPwAU1WeSslXUAzYAB1qKig1SrMUqaoPrzqQvenhYY6+ihWsTvDt88OsAB3ECfEiVnji+/0/US3K7BIjqvlE6agRTyrUaiTwN/HrxYgOLxQj/wK35g1hCmVuZHN0cmVhbQplbmRvYmoKCjQxIDAgb2JqCjw8Ci9TaXplIDQyCi9Sb290IDIgMCBSCi9JbmZvIDMgMCBSCi9GaWx0ZXIgL0ZsYXRlRGVjb2RlCi9UeXBlIC9YUmVmCi9MZW5ndGggMTQ4Ci9XIFsgMSAzIDIgXQovSW5kZXggWyAwIDQyIF0KPj4Kc3RyZWFtCnicLcs9DgFhFIXhc8Y/Y4zfBahUGluYFcwGJJoplBKVVknECixFJugsQK+2AcXHPbnNU9z3XAAIIQJmgKSMZEVWZU3WZYNAChDcmfnBf5uyJdtEMbVafrx2ZCy7xO1iNWz/El/fJLJHxne7JwtzmXlNZV8OyM3L6untdShHckyeV1ave7Oc+2ZCPo52ea6BH2LMGIIKZW5kc3RyZWFtCmVuZG9iagoKc3RhcnR4cmVmCjExODEyMwolJUVPRg==" style="text;html=1;" parent="1" vertex="1">
          <mxGeometry width="1088180" height="30" as="geometry" />
        </mxCell>
      </root>
    </mxGraphModel>
  </diagram>
</mxfile>
